SplineFontDB: 3.2
MMCounts: 1 1 1 4
MMAxis: Weight
MMPositions: 1
MMWeights: 0
MMAxisMap: 0 3 -1=>400 0=>400 1=>700
MMNamedInstance: 0  400
MMNamedInstance: 1  500
MMNamedInstance: 2  600
MMNamedInstance: 3  700
BeginMMFonts: 2 576
FontName: PixelifySans_700.0wt
FullName: Pixelify Sans_ 700.0wt
FamilyName: Pixelify Sans
Weight: All
ItalicAngle: 0
UnderlinePosition: -100
UnderlineWidth: 50
Ascent: 800
Descent: 200
InvalidEm: 0
LayerCount: 2
Layer: 0 1 "Sfondo" 1
Layer: 1 1 "Fore" 0
OS2Version: 0
OS2_WeightWidthSlopeOnly: 0
OS2_UseTypoMetrics: 0
CreationTime: 1703097653
ModificationTime: 1703097653
OS2TypoAscent: 0
OS2TypoAOffset: 1
OS2TypoDescent: 0
OS2TypoDOffset: 1
OS2TypoLinegap: 0
OS2WinAscent: 0
OS2WinAOffset: 1
OS2WinDescent: 0
OS2WinDOffset: 1
HheadAscent: 0
HheadAOffset: 1
HheadDescent: 0
HheadDOffset: 1
OS2Vendor: 'PfEd'
DEI: 91125
Encoding: UnicodeBmp
UnicodeInterp: none
NameList: AGL For New Fonts
DisplaySize: -48
AntiAlias: 1
FitToEm: 0
WinInfo: 0 38 13
BeginChars: 65542 576

StartChar: .notdef
Encoding: 65536 -1 0
Width: 701
GlyphClass: 1
Flags: W
LayerCount: 2
Fore
SplineSet
100 -143 m 1,0,-1
 100 678 l 1,1,-1
 601 669 l 1,2,-1
 627 -142 l 1,3,-1
 100 -143 l 1,0,-1
201 -42 m 1,4,-1
 500 -15 l 1,5,-1
 500 568 l 1,6,-1
 227 551 l 1,7,-1
 201 -42 l 1,4,-1
EndSplineSet
EndChar

StartChar: A
Encoding: 65 65 1
Width: 586
GlyphClass: 1
Flags: W
LayerCount: 2
Fore
SplineSet
61 -11 m 1,0,-1
 60 450 l 1,1,-1
 149 467 l 1,2,-1
 151 540 l 1,3,-1
 241 540 l 1,4,-1
 237 638 l 1,5,-1
 343 631 l 1,6,-1
 365 552 l 1,7,-1
 433 540 l 1,8,-1
 433 450 l 1,9,-1
 542 467 l 1,10,-1
 525 -12 l 1,11,-1
 414 -11 l 1,12,-1
 423 169 l 1,13,-1
 188 160 l 1,14,-1
 161 -12 l 1,15,-1
 61 -11 l 1,0,-1
161 270 m 1,16,-1
 414 297 l 1,17,-1
 423 440 l 1,18,-1
 326 416 l 1,19,-1
 333 530 l 1,20,-1
 276 501 l 1,21,-1
 251 440 l 1,22,-1
 188 416 l 1,23,-1
 161 270 l 1,16,-1
EndSplineSet
EndChar

StartChar: AE
Encoding: 198 198 11
Width: 949
GlyphClass: 1
Flags: W
LayerCount: 2
Fore
SplineSet
60 -12 m 1,0,-1
 61 467 l 1,1,-1
 151 450 l 1,2,-1
 151 540 l 1,3,-1
 241 540 l 1,4,-1
 237 638 l 1,5,-1
 343 631 l 1,6,-1
 365 552 l 1,7,-1
 515 540 l 1,8,-1
 503 638 l 1,9,-1
 797 631 l 1,10,-1
 807 552 l 1,11,-1
 888 540 l 1,12,-1
 895 416 l 1,13,-1
 787 440 l 1,14,-1
 768 501 l 1,15,-1
 525 530 l 1,16,-1
 542 381 l 1,17,-1
 706 359 l 1,18,-1
 718 246 l 1,19,-1
 525 260 l 1,20,-1
 542 125 l 1,21,-1
 787 88 l 1,22,-1
 768 211 l 1,23,-1
 888 179 l 1,24,-1
 895 74 l 1,25,-1
 797 78 l 1,26,-1
 807 -11 l 1,27,-1
 423 -12 l 1,28,-1
 414 160 l 1,29,-1
 161 169 l 1,30,-1
 188 -11 l 1,31,-1
 60 -12 l 1,0,-1
161 270 m 1,32,-1
 414 297 l 1,33,-1
 423 440 l 1,34,-1
 326 416 l 1,35,-1
 333 530 l 1,36,-1
 276 501 l 1,37,-1
 251 440 l 1,38,-1
 188 416 l 1,39,-1
 161 270 l 1,32,-1
EndSplineSet
EndChar

StartChar: B
Encoding: 66 66 13
Width: 586
GlyphClass: 1
Flags: W
LayerCount: 2
Fore
SplineSet
151 -12 m 1,0,-1
 149 74 l 1,1,-1
 60 78 l 1,2,-1
 61 552 l 1,3,-1
 151 540 l 1,4,-1
 149 638 l 1,5,-1
 433 631 l 1,6,-1
 453 552 l 1,7,-1
 525 540 l 1,8,-1
 542 331 l 1,9,-1
 433 350 l 1,10,-1
 453 297 l 1,11,-1
 525 270 l 1,12,-1
 542 74 l 1,13,-1
 433 78 l 1,14,-1
 453 -11 l 1,15,-1
 151 -12 l 1,0,-1
161 88 m 1,16,-1
 414 125 l 1,17,-1
 423 260 l 1,18,-1
 237 246 l 1,19,-1
 241 359 l 1,20,-1
 414 381 l 1,21,-1
 423 530 l 1,22,-1
 188 501 l 1,23,-1
 161 88 l 1,16,-1
EndSplineSet
EndChar

StartChar: C
Encoding: 67 67 14
Width: 586
GlyphClass: 1
Flags: W
LayerCount: 2
Fore
SplineSet
151 -12 m 1,0,-1
 149 74 l 1,1,-1
 60 78 l 1,2,-1
 61 552 l 1,3,-1
 151 540 l 1,4,-1
 149 638 l 1,5,-1
 433 631 l 1,6,-1
 453 552 l 1,7,-1
 525 540 l 1,8,-1
 542 331 l 1,9,-1
 423 350 l 1,10,-1
 414 501 l 1,11,-1
 161 530 l 1,12,-1
 188 125 l 1,13,-1
 423 88 l 1,14,-1
 414 297 l 1,15,-1
 525 270 l 1,16,-1
 542 74 l 1,17,-1
 433 78 l 1,18,-1
 453 -11 l 1,19,-1
 151 -12 l 1,0,-1
EndSplineSet
EndChar

StartChar: D
Encoding: 68 68 20
Width: 586
GlyphClass: 1
Flags: W
LayerCount: 2
Fore
SplineSet
60 -12 m 1,0,-1
 61 638 l 1,1,-1
 343 631 l 1,2,-1
 365 552 l 1,3,-1
 433 540 l 1,4,-1
 433 450 l 1,5,-1
 542 467 l 1,6,-1
 525 169 l 1,7,-1
 453 160 l 1,8,-1
 433 78 l 1,9,-1
 343 78 l 1,10,-1
 365 -11 l 1,11,-1
 60 -12 l 1,0,-1
161 88 m 1,12,-1
 326 125 l 1,13,-1
 333 179 l 1,14,-1
 414 211 l 1,15,-1
 423 440 l 1,16,-1
 326 416 l 1,17,-1
 333 530 l 1,18,-1
 188 501 l 1,19,-1
 161 88 l 1,12,-1
EndSplineSet
EndChar

StartChar: Eth
Encoding: 208 208 23
Width: 586
GlyphClass: 1
Flags: W
LayerCount: 2
Fore
SplineSet
60 -12 m 1,0,-1
 60 228 l 1,1,-1
 22 241 l 1,2,-1
 23 365 l 1,3,-1
 60 342 l 1,4,-1
 60 638 l 1,5,-1
 343 631 l 1,6,-1
 364 552 l 1,7,-1
 433 540 l 1,8,-1
 433 450 l 1,9,-1
 541 467 l 1,10,-1
 525 169 l 1,11,-1
 452 160 l 1,12,-1
 433 78 l 1,13,-1
 343 78 l 1,14,-1
 364 -11 l 1,15,-1
 60 -12 l 1,0,-1
161 88 m 1,16,-1
 325 125 l 1,17,-1
 333 179 l 1,18,-1
 413 211 l 1,19,-1
 423 440 l 1,20,-1
 325 416 l 1,21,-1
 333 530 l 1,22,-1
 187 501 l 1,23,-1
 161 342 l 1,24,-1
 288 365 l 1,25,-1
 254 241 l 1,26,-1
 187 228 l 1,27,-1
 161 88 l 1,16,-1
EndSplineSet
EndChar

StartChar: E
Encoding: 69 69 24
Width: 586
GlyphClass: 1
Flags: W
LayerCount: 2
Fore
SplineSet
151 -12 m 1,0,-1
 149 74 l 1,1,-1
 60 78 l 1,2,-1
 61 552 l 1,3,-1
 151 540 l 1,4,-1
 149 638 l 1,5,-1
 433 631 l 1,6,-1
 453 552 l 1,7,-1
 525 540 l 1,8,-1
 542 416 l 1,9,-1
 423 440 l 1,10,-1
 414 501 l 1,11,-1
 161 530 l 1,12,-1
 188 381 l 1,13,-1
 343 359 l 1,14,-1
 365 246 l 1,15,-1
 161 260 l 1,16,-1
 188 125 l 1,17,-1
 423 88 l 1,18,-1
 414 211 l 1,19,-1
 525 179 l 1,20,-1
 542 74 l 1,21,-1
 433 78 l 1,22,-1
 453 -11 l 1,23,-1
 151 -12 l 1,0,-1
EndSplineSet
EndChar

StartChar: F
Encoding: 70 70 34
Width: 586
GlyphClass: 1
Flags: W
LayerCount: 2
Fore
SplineSet
60 -12 m 1,0,-1
 61 638 l 1,1,-1
 433 631 l 1,2,-1
 453 552 l 1,3,-1
 525 540 l 1,4,-1
 542 416 l 1,5,-1
 423 440 l 1,6,-1
 414 501 l 1,7,-1
 161 530 l 1,8,-1
 188 381 l 1,9,-1
 343 359 l 1,10,-1
 365 246 l 1,11,-1
 161 260 l 1,12,-1
 188 -11 l 1,13,-1
 60 -12 l 1,0,-1
EndSplineSet
EndChar

StartChar: G
Encoding: 71 71 35
Width: 586
GlyphClass: 1
Flags: W
LayerCount: 2
Fore
SplineSet
149 -11 m 1,0,-1
 151 78 l 1,1,-1
 61 74 l 1,2,-1
 60 540 l 1,3,-1
 149 552 l 1,4,-1
 151 631 l 1,5,-1
 453 638 l 1,6,-1
 433 540 l 1,7,-1
 542 552 l 1,8,-1
 525 350 l 1,9,-1
 414 331 l 1,10,-1
 423 530 l 1,11,-1
 188 501 l 1,12,-1
 161 88 l 1,13,-1
 414 125 l 1,14,-1
 423 169 l 1,15,-1
 326 160 l 1,16,-1
 333 260 l 1,17,-1
 237 246 l 1,18,-1
 241 359 l 1,19,-1
 365 381 l 1,20,-1
 343 270 l 1,21,-1
 542 297 l 1,22,-1
 525 78 l 1,23,-1
 453 74 l 1,24,-1
 433 -12 l 1,25,-1
 149 -11 l 1,0,-1
EndSplineSet
EndChar

StartChar: H
Encoding: 72 72 40
Width: 586
GlyphClass: 1
Flags: W
LayerCount: 2
Fore
SplineSet
60 -12 m 1,0,-1
 61 638 l 1,1,-1
 161 631 l 1,2,-1
 188 381 l 1,3,-1
 241 359 l 1,4,-1
 237 467 l 1,5,-1
 343 450 l 1,6,-1
 365 381 l 1,7,-1
 423 359 l 1,8,-1
 414 638 l 1,9,-1
 525 631 l 1,10,-1
 542 -11 l 1,11,-1
 423 -12 l 1,12,-1
 414 246 l 1,13,-1
 161 260 l 1,14,-1
 188 -11 l 1,15,-1
 60 -12 l 1,0,-1
EndSplineSet
EndChar

StartChar: Hbar
Encoding: 294 294 41
Width: 586
GlyphClass: 1
Flags: W
LayerCount: 2
Fore
SplineSet
60 -12 m 1,0,-1
 61 638 l 1,1,-1
 161 631 l 1,2,-1
 188 603 l 1,3,-1
 423 594 l 1,4,-1
 414 638 l 1,5,-1
 525 631 l 1,6,-1
 542 -11 l 1,7,-1
 423 -12 l 1,8,-1
 414 246 l 1,9,-1
 161 260 l 1,10,-1
 188 -11 l 1,11,-1
 60 -12 l 1,0,-1
161 359 m 1,12,-1
 237 381 l 1,13,-1
 241 450 l 1,14,-1
 365 467 l 1,15,-1
 343 359 l 1,16,-1
 414 381 l 1,17,-1
 423 494 l 1,18,-1
 188 467 l 1,19,-1
 161 359 l 1,12,-1
EndSplineSet
EndChar

StartChar: I
Encoding: 73 73 43
Width: 404
GlyphClass: 1
Flags: W
LayerCount: 2
Fore
SplineSet
60 -12 m 1,0,-1
 61 125 l 1,1,-1
 151 88 l 1,2,-1
 149 501 l 1,3,-1
 60 530 l 1,4,-1
 61 638 l 1,5,-1
 343 631 l 1,6,-1
 365 501 l 1,7,-1
 251 530 l 1,8,-1
 276 125 l 1,9,-1
 343 88 l 1,10,-1
 365 -11 l 1,11,-1
 60 -12 l 1,0,-1
EndSplineSet
EndChar

StartChar: J
Encoding: 74 74 54
Width: 586
GlyphClass: 1
Flags: W
LayerCount: 2
Fore
SplineSet
151 -12 m 1,0,-1
 149 74 l 1,1,-1
 60 78 l 1,2,-1
 61 297 l 1,3,-1
 161 270 l 1,4,-1
 188 125 l 1,5,-1
 423 88 l 1,6,-1
 414 501 l 1,7,-1
 151 530 l 1,8,-1
 149 638 l 1,9,-1
 433 631 l 1,10,-1
 453 552 l 1,11,-1
 525 540 l 1,12,-1
 542 74 l 1,13,-1
 433 78 l 1,14,-1
 453 -11 l 1,15,-1
 151 -12 l 1,0,-1
EndSplineSet
EndChar

StartChar: K
Encoding: 75 75 56
Width: 586
GlyphClass: 1
Flags: W
LayerCount: 2
Fore
SplineSet
60 -12 m 1,0,-1
 61 552 l 1,1,-1
 151 540 l 1,2,-1
 149 638 l 1,3,-1
 251 631 l 1,4,-1
 276 501 l 1,5,-1
 161 530 l 1,6,-1
 188 381 l 1,7,-1
 241 359 l 1,8,-1
 237 467 l 1,9,-1
 333 450 l 1,10,-1
 333 540 l 1,11,-1
 423 540 l 1,12,-1
 414 638 l 1,13,-1
 525 631 l 1,14,-1
 542 501 l 1,15,-1
 433 530 l 1,16,-1
 433 440 l 1,17,-1
 343 440 l 1,18,-1
 343 350 l 1,19,-1
 276 331 l 1,20,-1
 251 270 l 1,21,-1
 365 297 l 1,22,-1
 343 179 l 1,23,-1
 433 179 l 1,24,-1
 433 88 l 1,25,-1
 542 125 l 1,26,-1
 525 -12 l 1,27,-1
 414 -11 l 1,28,-1
 423 78 l 1,29,-1
 333 78 l 1,30,-1
 333 169 l 1,31,-1
 241 169 l 1,32,-1
 237 246 l 1,33,-1
 161 260 l 1,34,-1
 188 -11 l 1,35,-1
 60 -12 l 1,0,-1
EndSplineSet
EndChar

StartChar: L
Encoding: 76 76 58
Width: 586
GlyphClass: 1
Flags: W
LayerCount: 2
Fore
SplineSet
151 -12 m 1,0,-1
 149 74 l 1,1,-1
 60 78 l 1,2,-1
 61 638 l 1,3,-1
 161 631 l 1,4,-1
 188 125 l 1,5,-1
 423 88 l 1,6,-1
 414 211 l 1,7,-1
 525 179 l 1,8,-1
 542 74 l 1,9,-1
 433 78 l 1,10,-1
 453 -11 l 1,11,-1
 151 -12 l 1,0,-1
EndSplineSet
EndChar

StartChar: Lslash
Encoding: 321 321 63
Width: 613
GlyphClass: 1
Flags: W
LayerCount: 2
Fore
SplineSet
159 -11 m 1,0,-1
 153 33 153 33 159 74 c 1,1,-1
 107.5 78 107.5 78 71 74 c 1,2,-1
 62 136 62 136 71 157 c 1,3,-1
 46.5 173 46.5 173 57 139 c 1,4,-1
 3.5 173 3.5 173 -24 200 c 1,5,-1
 19 250.5 19 250.5 71 320 c 1,6,-1
 62 469 62 469 71 638 c 1,7,-1
 112.5 631 112.5 631 198 638 c 1,8,-1
 163 536.5 163 536.5 198 485 c 1,9,-1
 194.5 483.5 194.5 483.5 243 542 c 1,10,-1
 253 505 253 505 323 484 c 1,11,-1
 221.5 407 221.5 407 198 322 c 1,12,-1
 163 208.5 163 208.5 198 125 c 1,13,-1
 294 88 294 88 424 125 c 1,14,-1
 425 133.5 425 133.5 424 211 c 1,15,-1
 476 179 476 179 552 211 c 1,16,-1
 527 128.5 527 128.5 552 74 c 1,17,-1
 481 78 481 78 463 74 c 1,18,-1
 435 33 435 33 463 -11 c 1,19,-1
 294 -12 294 -12 159 -11 c 1,0,-1
EndSplineSet
EndChar

StartChar: M
Encoding: 77 77 64
Width: 767
GlyphClass: 1
Flags: W
LayerCount: 2
Fore
SplineSet
60 -12 m 1,0,-1
 61 552 l 1,1,-1
 151 540 l 1,2,-1
 149 638 l 1,3,-1
 251 631 l 1,4,-1
 276 552 l 1,5,-1
 343 540 l 1,6,-1
 365 381 l 1,7,-1
 423 359 l 1,8,-1
 414 552 l 1,9,-1
 515 540 l 1,10,-1
 503 638 l 1,11,-1
 616 631 l 1,12,-1
 631 552 l 1,13,-1
 706 540 l 1,14,-1
 718 -11 l 1,15,-1
 606 -12 l 1,16,-1
 592 501 l 1,17,-1
 525 530 l 1,18,-1
 542 331 l 1,19,-1
 433 350 l 1,20,-1
 453 74 l 1,21,-1
 333 78 l 1,22,-1
 326 331 l 1,23,-1
 241 350 l 1,24,-1
 237 501 l 1,25,-1
 161 530 l 1,26,-1
 188 -11 l 1,27,-1
 60 -12 l 1,0,-1
EndSplineSet
EndChar

StartChar: N
Encoding: 78 78 65
Width: 586
GlyphClass: 1
Flags: W
LayerCount: 2
Fore
SplineSet
60 -12 m 1,0,-1
 61 638 l 1,1,-1
 161 631 l 1,2,-1
 188 552 l 1,3,-1
 251 540 l 1,4,-1
 251 450 l 1,5,-1
 343 450 l 1,6,-1
 365 211 l 1,7,-1
 423 179 l 1,8,-1
 414 638 l 1,9,-1
 525 631 l 1,10,-1
 542 -11 l 1,11,-1
 423 -12 l 1,12,-1
 414 74 l 1,13,-1
 333 78 l 1,14,-1
 333 169 l 1,15,-1
 241 169 l 1,16,-1
 237 416 l 1,17,-1
 161 440 l 1,18,-1
 188 -11 l 1,19,-1
 60 -12 l 1,0,-1
EndSplineSet
EndChar

StartChar: Eng
Encoding: 330 330 70
Width: 586
GlyphClass: 1
Flags: W
LayerCount: 2
Fore
SplineSet
241 -248 m 1,0,-1
 237 -148 l 1,1,-1
 150 -157 l 1,2,-1
 148 -20 l 1,3,-1
 251 -56 l 1,4,-1
 276 -97 l 1,5,-1
 423 -147 l 1,6,-1
 414 74 l 1,7,-1
 333 78 l 1,8,-1
 333 169 l 1,9,-1
 241 169 l 1,10,-1
 237 416 l 1,11,-1
 161 440 l 1,12,-1
 188 -11 l 1,13,-1
 60 -12 l 1,14,-1
 61 638 l 1,15,-1
 161 631 l 1,16,-1
 188 552 l 1,17,-1
 251 540 l 1,18,-1
 251 450 l 1,19,-1
 343 450 l 1,20,-1
 365 211 l 1,21,-1
 423 179 l 1,22,-1
 414 638 l 1,23,-1
 525 631 l 1,24,-1
 542 -148 l 1,25,-1
 433 -157 l 1,26,-1
 453 -234 l 1,27,-1
 241 -248 l 1,0,-1
EndSplineSet
EndChar

StartChar: O
Encoding: 79 79 71
Width: 586
GlyphClass: 1
Flags: W
LayerCount: 2
Fore
SplineSet
151 -12 m 1,0,-1
 149 74 l 1,1,-1
 60 78 l 1,2,-1
 61 552 l 1,3,-1
 151 540 l 1,4,-1
 149 638 l 1,5,-1
 433 631 l 1,6,-1
 453 552 l 1,7,-1
 525 540 l 1,8,-1
 542 74 l 1,9,-1
 433 78 l 1,10,-1
 453 -11 l 1,11,-1
 151 -12 l 1,0,-1
161 88 m 1,12,-1
 414 125 l 1,13,-1
 423 530 l 1,14,-1
 188 501 l 1,15,-1
 161 88 l 1,12,-1
EndSplineSet
EndChar

StartChar: Oslash
Encoding: 216 216 79
Width: 623
GlyphClass: 1
Flags: W
LayerCount: 2
Fore
SplineSet
30 -52 m 1,0,-1
 430 670 l 1,1,-1
 557 670 l 1,2,-1
 157 -52 l 1,3,-1
 30 -52 l 1,0,-1
168 -12 m 1,4,-1
 149 74 l 1,5,-1
 77 78 l 1,6,-1
 61 552 l 1,7,-1
 168 540 l 1,8,-1
 149 638 l 1,9,-1
 450 631 l 1,10,-1
 453 552 l 1,11,-1
 542 540 l 1,12,-1
 542 74 l 1,13,-1
 450 78 l 1,14,-1
 453 -11 l 1,15,-1
 168 -12 l 1,4,-1
178 88 m 1,16,-1
 414 125 l 1,17,-1
 440 530 l 1,18,-1
 188 501 l 1,19,-1
 178 88 l 1,16,-1
EndSplineSet
EndChar

StartChar: OE
Encoding: 338 338 82
Width: 949
GlyphClass: 1
Flags: W
LayerCount: 2
Fore
SplineSet
151 -12 m 1,0,-1
 149 74 l 1,1,-1
 60 78 l 1,2,-1
 61 552 l 1,3,-1
 151 540 l 1,4,-1
 149 638 l 1,5,-1
 433 631 l 1,6,-1
 453 552 l 1,7,-1
 515 540 l 1,8,-1
 503 638 l 1,9,-1
 797 631 l 1,10,-1
 807 552 l 1,11,-1
 888 540 l 1,12,-1
 895 416 l 1,13,-1
 787 440 l 1,14,-1
 768 501 l 1,15,-1
 525 530 l 1,16,-1
 542 381 l 1,17,-1
 706 359 l 1,18,-1
 718 246 l 1,19,-1
 525 260 l 1,20,-1
 542 125 l 1,21,-1
 787 88 l 1,22,-1
 768 211 l 1,23,-1
 888 179 l 1,24,-1
 895 74 l 1,25,-1
 797 78 l 1,26,-1
 807 -11 l 1,27,-1
 515 -12 l 1,28,-1
 503 74 l 1,29,-1
 433 78 l 1,30,-1
 453 -11 l 1,31,-1
 151 -12 l 1,0,-1
161 88 m 1,32,-1
 414 125 l 1,33,-1
 423 530 l 1,34,-1
 188 501 l 1,35,-1
 161 88 l 1,32,-1
EndSplineSet
EndChar

StartChar: P
Encoding: 80 80 83
Width: 586
GlyphClass: 1
Flags: W
LayerCount: 2
Fore
SplineSet
60 -12 m 1,0,-1
 61 552 l 1,1,-1
 151 540 l 1,2,-1
 149 638 l 1,3,-1
 433 631 l 1,4,-1
 453 552 l 1,5,-1
 525 540 l 1,6,-1
 542 246 l 1,7,-1
 433 260 l 1,8,-1
 433 169 l 1,9,-1
 161 169 l 1,10,-1
 188 -11 l 1,11,-1
 60 -12 l 1,0,-1
161 270 m 1,12,-1
 414 297 l 1,13,-1
 423 530 l 1,14,-1
 188 501 l 1,15,-1
 161 270 l 1,12,-1
EndSplineSet
EndChar

StartChar: Thorn
Encoding: 222 222 84
Width: 586
GlyphClass: 1
Flags: W
LayerCount: 2
Fore
SplineSet
60 -12 m 1,0,-1
 61 638 l 1,1,-1
 161 631 l 1,2,-1
 188 542 l 1,3,-1
 433 529 l 1,4,-1
 433 438 l 1,5,-1
 542 456 l 1,6,-1
 525 157 l 1,7,-1
 453 149 l 1,8,-1
 433 67 l 1,9,-1
 161 67 l 1,10,-1
 188 -11 l 1,11,-1
 60 -12 l 1,0,-1
161 167 m 1,12,-1
 414 200 l 1,13,-1
 423 429 l 1,14,-1
 188 405 l 1,15,-1
 161 167 l 1,12,-1
EndSplineSet
EndChar

StartChar: Q
Encoding: 81 81 85
Width: 586
GlyphClass: 1
Flags: W
LayerCount: 2
Fore
SplineSet
326 -181 m 1,0,-1
 333 -103 l 1,1,-1
 241 -103 l 1,2,-1
 241 -12 l 1,3,-1
 151 -12 l 1,4,-1
 151 78 l 1,5,-1
 61 74 l 1,6,-1
 60 540 l 1,7,-1
 149 552 l 1,8,-1
 151 631 l 1,9,-1
 453 638 l 1,10,-1
 433 540 l 1,11,-1
 542 552 l 1,12,-1
 525 78 l 1,13,-1
 453 74 l 1,14,-1
 433 -12 l 1,15,-1
 365 -11 l 1,16,-1
 343 -93 l 1,17,-1
 453 -46 l 1,18,-1
 433 -192 l 1,19,-1
 326 -181 l 1,0,-1
161 88 m 1,20,-1
 414 125 l 1,21,-1
 423 530 l 1,22,-1
 188 501 l 1,23,-1
 161 88 l 1,20,-1
EndSplineSet
EndChar

StartChar: R
Encoding: 82 82 86
Width: 586
GlyphClass: 1
Flags: W
LayerCount: 2
Fore
SplineSet
60 -12 m 1,0,-1
 61 552 l 1,1,-1
 151 540 l 1,2,-1
 149 638 l 1,3,-1
 433 631 l 1,4,-1
 453 552 l 1,5,-1
 525 540 l 1,6,-1
 542 246 l 1,7,-1
 433 260 l 1,8,-1
 433 169 l 1,9,-1
 410 160 l 1,10,-1
 389 88 l 1,11,-1
 497 125 l 1,12,-1
 479 -12 l 1,13,-1
 371 -11 l 1,14,-1
 379 78 l 1,15,-1
 287 78 l 1,16,-1
 281 160 l 1,17,-1
 161 169 l 1,18,-1
 188 -11 l 1,19,-1
 60 -12 l 1,0,-1
161 270 m 1,20,-1
 414 297 l 1,21,-1
 423 530 l 1,22,-1
 188 501 l 1,23,-1
 161 270 l 1,20,-1
EndSplineSet
EndChar

StartChar: S
Encoding: 83 83 90
Width: 586
GlyphClass: 1
Flags: W
LayerCount: 2
Fore
SplineSet
149 -11 m 1,0,-1
 151 78 l 1,1,-1
 61 74 l 1,2,-1
 60 179 l 1,3,-1
 188 211 l 1,4,-1
 161 88 l 1,5,-1
 414 125 l 1,6,-1
 423 260 l 1,7,-1
 149 246 l 1,8,-1
 151 350 l 1,9,-1
 61 331 l 1,10,-1
 60 540 l 1,11,-1
 149 552 l 1,12,-1
 151 631 l 1,13,-1
 453 638 l 1,14,-1
 433 540 l 1,15,-1
 542 552 l 1,16,-1
 525 440 l 1,17,-1
 414 416 l 1,18,-1
 423 530 l 1,19,-1
 188 501 l 1,20,-1
 161 359 l 1,21,-1
 453 381 l 1,22,-1
 433 270 l 1,23,-1
 542 297 l 1,24,-1
 525 78 l 1,25,-1
 453 74 l 1,26,-1
 433 -12 l 1,27,-1
 149 -11 l 1,0,-1
EndSplineSet
EndChar

StartChar: uni1E9E
Encoding: 7838 7838 96
Width: 655
GlyphClass: 1
Flags: W
LayerCount: 2
Fore
SplineSet
221 -12 m 1,0,-1
 219 125 l 1,1,-1
 493 88 l 1,2,-1
 484 246 l 1,3,-1
 321 260 l 1,4,-1
 319 381 l 1,5,-1
 493 359 l 1,6,-1
 484 501 l 1,7,-1
 121 530 l 1,8,-1
 119 638 l 1,9,-1
 503 631 l 1,10,-1
 523 552 l 1,11,-1
 595 540 l 1,12,-1
 612 331 l 1,13,-1
 503 350 l 1,14,-1
 523 297 l 1,15,-1
 595 270 l 1,16,-1
 612 74 l 1,17,-1
 503 78 l 1,18,-1
 523 -11 l 1,19,-1
 221 -12 l 1,0,-1
60 -12 m 1,20,-1
 61 638 l 1,21,-1
 161 631 l 1,22,-1
 188 -11 l 1,23,-1
 60 -12 l 1,20,-1
EndSplineSet
EndChar

StartChar: T
Encoding: 84 84 97
Width: 586
GlyphClass: 1
Flags: W
LayerCount: 2
Fore
SplineSet
241 -12 m 1,0,-1
 237 501 l 1,1,-1
 161 530 l 1,2,-1
 188 416 l 1,3,-1
 60 440 l 1,4,-1
 61 552 l 1,5,-1
 151 540 l 1,6,-1
 149 638 l 1,7,-1
 433 631 l 1,8,-1
 453 552 l 1,9,-1
 525 540 l 1,10,-1
 542 416 l 1,11,-1
 423 440 l 1,12,-1
 414 501 l 1,13,-1
 343 530 l 1,14,-1
 365 -11 l 1,15,-1
 241 -12 l 1,0,-1
EndSplineSet
EndChar

StartChar: Tbar
Encoding: 358 358 98
Width: 586
GlyphClass: 1
Flags: W
LayerCount: 2
Fore
SplineSet
241 -12 m 1,0,-1
 239 238 l 1,1,-1
 151 296 l 1,2,-1
 150 359 l 1,3,-1
 241 397 l 1,4,-1
 239 514 l 1,5,-1
 161 530 l 1,6,-1
 189 426 l 1,7,-1
 60 440 l 1,8,-1
 60 547 l 1,9,-1
 151 540 l 1,10,-1
 150 635 l 1,11,-1
 433 631 l 1,12,-1
 457 547 l 1,13,-1
 525 540 l 1,14,-1
 548 426 l 1,15,-1
 423 440 l 1,16,-1
 418 514 l 1,17,-1
 343 530 l 1,18,-1
 369 359 l 1,19,-1
 433 397 l 1,20,-1
 457 238 l 1,21,-1
 343 296 l 1,22,-1
 369 -12 l 1,23,-1
 241 -12 l 1,0,-1
EndSplineSet
EndChar

StartChar: U
Encoding: 85 85 102
Width: 586
GlyphClass: 1
Flags: W
LayerCount: 2
Fore
SplineSet
151 -12 m 1,0,-1
 149 74 l 1,1,-1
 60 78 l 1,2,-1
 61 638 l 1,3,-1
 161 631 l 1,4,-1
 188 125 l 1,5,-1
 423 88 l 1,6,-1
 414 638 l 1,7,-1
 525 631 l 1,8,-1
 542 74 l 1,9,-1
 433 78 l 1,10,-1
 453 -11 l 1,11,-1
 151 -12 l 1,0,-1
EndSplineSet
EndChar

StartChar: V
Encoding: 86 86 113
Width: 586
GlyphClass: 1
Flags: W
LayerCount: 2
Fore
SplineSet
241 -12 m 1,0,-1
 237 74 l 1,1,-1
 151 78 l 1,2,-1
 151 260 l 1,3,-1
 61 246 l 1,4,-1
 60 631 l 1,5,-1
 188 638 l 1,6,-1
 161 270 l 1,7,-1
 251 270 l 1,8,-1
 276 125 l 1,9,-1
 333 88 l 1,10,-1
 326 297 l 1,11,-1
 423 270 l 1,12,-1
 414 638 l 1,13,-1
 525 631 l 1,14,-1
 542 246 l 1,15,-1
 433 260 l 1,16,-1
 433 78 l 1,17,-1
 343 78 l 1,18,-1
 365 -11 l 1,19,-1
 241 -12 l 1,0,-1
EndSplineSet
EndChar

StartChar: W
Encoding: 87 87 114
Width: 767
GlyphClass: 1
Flags: W
LayerCount: 2
Fore
SplineSet
151 -12 m 1,0,-1
 149 74 l 1,1,-1
 60 78 l 1,2,-1
 61 638 l 1,3,-1
 161 631 l 1,4,-1
 188 125 l 1,5,-1
 241 88 l 1,6,-1
 237 297 l 1,7,-1
 333 270 l 1,8,-1
 326 552 l 1,9,-1
 433 540 l 1,10,-1
 453 297 l 1,11,-1
 525 270 l 1,12,-1
 542 125 l 1,13,-1
 606 88 l 1,14,-1
 592 638 l 1,15,-1
 706 631 l 1,16,-1
 718 74 l 1,17,-1
 616 78 l 1,18,-1
 631 -11 l 1,19,-1
 515 -12 l 1,20,-1
 503 74 l 1,21,-1
 423 78 l 1,22,-1
 414 246 l 1,23,-1
 343 260 l 1,24,-1
 365 74 l 1,25,-1
 251 78 l 1,26,-1
 276 -11 l 1,27,-1
 151 -12 l 1,0,-1
EndSplineSet
EndChar

StartChar: X
Encoding: 88 88 119
Width: 586
GlyphClass: 1
Flags: W
LayerCount: 2
Fore
SplineSet
60 -12 m 1,0,-1
 61 125 l 1,1,-1
 151 88 l 1,2,-1
 151 270 l 1,3,-1
 237 297 l 1,4,-1
 241 350 l 1,5,-1
 149 331 l 1,6,-1
 151 530 l 1,7,-1
 61 501 l 1,8,-1
 60 631 l 1,9,-1
 188 638 l 1,10,-1
 161 540 l 1,11,-1
 251 540 l 1,12,-1
 276 381 l 1,13,-1
 333 359 l 1,14,-1
 326 552 l 1,15,-1
 423 540 l 1,16,-1
 414 638 l 1,17,-1
 525 631 l 1,18,-1
 542 501 l 1,19,-1
 433 530 l 1,20,-1
 433 350 l 1,21,-1
 365 331 l 1,22,-1
 343 270 l 1,23,-1
 453 297 l 1,24,-1
 433 88 l 1,25,-1
 542 125 l 1,26,-1
 525 -12 l 1,27,-1
 414 -11 l 1,28,-1
 423 78 l 1,29,-1
 333 78 l 1,30,-1
 326 246 l 1,31,-1
 251 260 l 1,32,-1
 276 74 l 1,33,-1
 161 78 l 1,34,-1
 188 -11 l 1,35,-1
 60 -12 l 1,0,-1
EndSplineSet
EndChar

StartChar: Y
Encoding: 89 89 120
Width: 586
GlyphClass: 1
Flags: W
LayerCount: 2
Fore
SplineSet
241 -12 m 1,0,-1
 237 331 l 1,1,-1
 151 350 l 1,2,-1
 151 440 l 1,3,-1
 61 416 l 1,4,-1
 60 631 l 1,5,-1
 188 638 l 1,6,-1
 161 450 l 1,7,-1
 251 450 l 1,8,-1
 276 381 l 1,9,-1
 333 359 l 1,10,-1
 326 467 l 1,11,-1
 423 450 l 1,12,-1
 414 638 l 1,13,-1
 525 631 l 1,14,-1
 542 416 l 1,15,-1
 433 440 l 1,16,-1
 433 350 l 1,17,-1
 343 350 l 1,18,-1
 365 -11 l 1,19,-1
 241 -12 l 1,0,-1
EndSplineSet
EndChar

StartChar: Z
Encoding: 90 90 125
Width: 586
GlyphClass: 1
Flags: W
LayerCount: 2
Fore
SplineSet
149 -11 m 1,0,-1
 151 78 l 1,1,-1
 61 74 l 1,2,-1
 60 270 l 1,3,-1
 149 297 l 1,4,-1
 151 359 l 1,5,-1
 414 381 l 1,6,-1
 423 530 l 1,7,-1
 188 501 l 1,8,-1
 161 440 l 1,9,-1
 61 416 l 1,10,-1
 60 631 l 1,11,-1
 453 638 l 1,12,-1
 433 540 l 1,13,-1
 542 552 l 1,14,-1
 525 350 l 1,15,-1
 453 331 l 1,16,-1
 433 260 l 1,17,-1
 188 246 l 1,18,-1
 161 88 l 1,19,-1
 414 125 l 1,20,-1
 423 179 l 1,21,-1
 542 211 l 1,22,-1
 525 -12 l 1,23,-1
 149 -11 l 1,0,-1
EndSplineSet
EndChar

StartChar: a
Encoding: 97 97 129
Width: 677
GlyphClass: 1
Flags: W
LayerCount: 2
Fore
SplineSet
149 -11 m 1,0,-1
 151 78 l 1,1,-1
 61 74 l 1,2,-1
 60 359 l 1,3,-1
 149 381 l 1,4,-1
 151 450 l 1,5,-1
 453 467 l 1,6,-1
 433 359 l 1,7,-1
 525 359 l 1,8,-1
 525 88 l 1,9,-1
 631 125 l 1,10,-1
 616 -12 l 1,11,-1
 503 -11 l 1,12,-1
 515 78 l 1,13,-1
 453 74 l 1,14,-1
 433 -12 l 1,15,-1
 149 -11 l 1,0,-1
161 88 m 1,16,-1
 414 125 l 1,17,-1
 423 350 l 1,18,-1
 188 331 l 1,19,-1
 161 88 l 1,16,-1
EndSplineSet
EndChar

StartChar: ae
Encoding: 230 230 139
Width: 1132
GlyphClass: 1
Flags: W
LayerCount: 2
Fore
SplineSet
151 -12 m 1,0,-1
 149 74 l 1,1,-1
 60 78 l 1,2,-1
 61 381 l 1,3,-1
 151 359 l 1,4,-1
 149 467 l 1,5,-1
 433 450 l 1,6,-1
 453 381 l 1,7,-1
 525 359 l 1,8,-1
 542 125 l 1,9,-1
 606 88 l 1,10,-1
 592 381 l 1,11,-1
 698 359 l 1,12,-1
 681 467 l 1,13,-1
 980 450 l 1,14,-1
 984 381 l 1,15,-1
 1071 359 l 1,16,-1
 1073 246 l 1,17,-1
 970 260 l 1,18,-1
 946 331 l 1,19,-1
 707 350 l 1,20,-1
 719 297 l 1,21,-1
 889 270 l 1,22,-1
 896 160 l 1,23,-1
 707 169 l 1,24,-1
 719 125 l 1,25,-1
 970 88 l 1,26,-1
 946 212 l 1,27,-1
 1071 180 l 1,28,-1
 1073 75 l 1,29,-1
 980 79 l 1,30,-1
 984 -11 l 1,31,-1
 698 -12 l 1,32,-1
 681 74 l 1,33,-1
 616 78 l 1,34,-1
 631 -11 l 1,35,-1
 515 -12 l 1,36,-1
 503 74 l 1,37,-1
 433 78 l 1,38,-1
 453 -11 l 1,39,-1
 151 -12 l 1,0,-1
161 88 m 1,40,-1
 414 125 l 1,41,-1
 423 350 l 1,42,-1
 188 331 l 1,43,-1
 161 88 l 1,40,-1
EndSplineSet
EndChar

StartChar: b
Encoding: 98 98 141
Width: 586
GlyphClass: 1
Flags: W
LayerCount: 2
Fore
SplineSet
149 -11 m 1,0,-1
 151 78 l 1,1,-1
 61 74 l 1,2,-1
 60 631 l 1,3,-1
 188 638 l 1,4,-1
 161 450 l 1,5,-1
 433 450 l 1,6,-1
 433 359 l 1,7,-1
 542 381 l 1,8,-1
 525 78 l 1,9,-1
 453 74 l 1,10,-1
 433 -12 l 1,11,-1
 149 -11 l 1,0,-1
161 88 m 1,12,-1
 414 125 l 1,13,-1
 423 350 l 1,14,-1
 188 331 l 1,15,-1
 161 88 l 1,12,-1
EndSplineSet
EndChar

StartChar: c
Encoding: 99 99 142
Width: 586
GlyphClass: 1
Flags: W
LayerCount: 2
Fore
SplineSet
151 -12 m 1,0,-1
 149 74 l 1,1,-1
 60 78 l 1,2,-1
 61 381 l 1,3,-1
 151 359 l 1,4,-1
 149 467 l 1,5,-1
 433 450 l 1,6,-1
 453 381 l 1,7,-1
 525 359 l 1,8,-1
 542 246 l 1,9,-1
 423 260 l 1,10,-1
 414 331 l 1,11,-1
 161 350 l 1,12,-1
 188 125 l 1,13,-1
 423 88 l 1,14,-1
 414 211 l 1,15,-1
 525 179 l 1,16,-1
 542 74 l 1,17,-1
 433 78 l 1,18,-1
 453 -11 l 1,19,-1
 151 -12 l 1,0,-1
EndSplineSet
EndChar

StartChar: d
Encoding: 100 100 148
Width: 586
GlyphClass: 1
Flags: W
LayerCount: 2
Fore
SplineSet
149 -11 m 1,0,-1
 151 78 l 1,1,-1
 61 74 l 1,2,-1
 60 359 l 1,3,-1
 149 381 l 1,4,-1
 151 450 l 1,5,-1
 424 450 l 1,6,-1
 415 638 l 1,7,-1
 525 631 l 1,8,-1
 543 74 l 1,9,-1
 453 74 l 1,10,-1
 433 -12 l 1,11,-1
 149 -11 l 1,0,-1
161 88 m 1,12,-1
 414 125 l 1,13,-1
 423 350 l 1,14,-1
 188 331 l 1,15,-1
 161 88 l 1,12,-1
EndSplineSet
EndChar

StartChar: dcroat
Encoding: 273 273 150
Width: 585
GlyphClass: 1
Flags: W
LayerCount: 2
Fore
SplineSet
149 -11 m 1,0,-1
 151 78 l 1,1,-1
 61 74 l 1,2,-1
 60 359 l 1,3,-1
 149 381 l 1,4,-1
 151 450 l 1,5,-1
 415 462 l 1,6,-1
 424 495 l 1,7,-1
 217 479 l 1,8,-1
 221 595 l 1,9,-1
 415 604 l 1,10,-1
 424 631 l 1,11,-1
 543 638 l 1,12,-1
 526 595 l 1,13,-1
 568 604 l 1,14,-1
 552 495 l 1,15,-1
 543 474 l 1,16,-1
 526 78 l 1,17,-1
 453 74 l 1,18,-1
 433 -12 l 1,19,-1
 149 -11 l 1,0,-1
161 88 m 1,20,-1
 414 125 l 1,21,-1
 423 350 l 1,22,-1
 188 331 l 1,23,-1
 161 88 l 1,20,-1
EndSplineSet
EndChar

StartChar: eth
Encoding: 240 240 151
Width: 605
GlyphClass: 1
Flags: W
LayerCount: 2
Fore
SplineSet
150 -11 m 1,0,-1
 152 78 l 1,1,-1
 61 74 l 1,2,-1
 60 270 l 1,3,-1
 150 297 l 1,4,-1
 152 359 l 1,5,-1
 415 381 l 1,6,-1
 424 530 l 1,7,-1
 189 501 l 1,8,-1
 162 440 l 1,9,-1
 61 416 l 1,10,-1
 60 540 l 1,11,-1
 150 552 l 1,12,-1
 152 631 l 1,13,-1
 454 638 l 1,14,-1
 434 540 l 1,15,-1
 542 552 l 1,16,-1
 525 78 l 1,17,-1
 454 74 l 1,18,-1
 434 -12 l 1,19,-1
 150 -11 l 1,0,-1
162 88 m 1,20,-1
 415 125 l 1,21,-1
 424 260 l 1,22,-1
 189 246 l 1,23,-1
 162 88 l 1,20,-1
246 420 m 1,24,-1
 446 700 l 1,25,-1
 573 700 l 1,26,-1
 373 420 l 1,27,-1
 246 420 l 1,24,-1
EndSplineSet
EndChar

StartChar: e
Encoding: 101 101 152
Width: 586
GlyphClass: 1
Flags: W
LayerCount: 2
Fore
SplineSet
151 -12 m 1,0,-1
 149 74 l 1,1,-1
 60 78 l 1,2,-1
 61 381 l 1,3,-1
 151 359 l 1,4,-1
 149 467 l 1,5,-1
 433 450 l 1,6,-1
 453 381 l 1,7,-1
 525 359 l 1,8,-1
 542 246 l 1,9,-1
 423 260 l 1,10,-1
 414 331 l 1,11,-1
 161 350 l 1,12,-1
 188 297 l 1,13,-1
 343 270 l 1,14,-1
 365 160 l 1,15,-1
 161 169 l 1,16,-1
 188 125 l 1,17,-1
 423 88 l 1,18,-1
 414 212 l 1,19,-1
 525 180 l 1,20,-1
 542 75 l 1,21,-1
 433 79 l 1,22,-1
 453 -11 l 1,23,-1
 151 -12 l 1,0,-1
EndSplineSet
EndChar

StartChar: f
Encoding: 102 102 162
Width: 586
GlyphClass: 1
Flags: W
LayerCount: 2
Fore
SplineSet
60 -12 m 1,0,-1
 61 552 l 1,1,-1
 151 540 l 1,2,-1
 149 638 l 1,3,-1
 433 631 l 1,4,-1
 453 552 l 1,5,-1
 525 540 l 1,6,-1
 542 416 l 1,7,-1
 423 440 l 1,8,-1
 414 501 l 1,9,-1
 161 530 l 1,10,-1
 188 381 l 1,11,-1
 343 359 l 1,12,-1
 365 246 l 1,13,-1
 161 260 l 1,14,-1
 188 -11 l 1,15,-1
 60 -12 l 1,0,-1
EndSplineSet
EndChar

StartChar: g
Encoding: 103 103 163
Width: 586
GlyphClass: 1
Flags: W
LayerCount: 2
Fore
SplineSet
149 -182 m 1,0,-1
 151 -103 l 1,1,-1
 61 -97 l 1,2,-1
 60 -3 l 1,3,-1
 188 39 l 1,4,-1
 161 -93 l 1,5,-1
 415 -46 l 1,6,-1
 424 78 l 1,7,-1
 149 74 l 1,8,-1
 151 169 l 1,9,-1
 61 160 l 1,10,-1
 60 359 l 1,11,-1
 149 381 l 1,12,-1
 151 450 l 1,13,-1
 454 467 l 1,14,-1
 434 359 l 1,15,-1
 542 381 l 1,16,-1
 525 -103 l 1,17,-1
 454 -97 l 1,18,-1
 434 -193 l 1,19,-1
 149 -182 l 1,0,-1
161 179 m 1,20,-1
 415 211 l 1,21,-1
 424 350 l 1,22,-1
 188 331 l 1,23,-1
 161 179 l 1,20,-1
EndSplineSet
EndChar

StartChar: h
Encoding: 104 104 168
Width: 586
GlyphClass: 1
Flags: W
LayerCount: 2
Fore
SplineSet
60 -12 m 1,0,-1
 61 638 l 1,1,-1
 161 631 l 1,2,-1
 188 381 l 1,3,-1
 241 359 l 1,4,-1
 237 467 l 1,5,-1
 433 450 l 1,6,-1
 453 381 l 1,7,-1
 525 359 l 1,8,-1
 542 -11 l 1,9,-1
 423 -12 l 1,10,-1
 414 331 l 1,11,-1
 251 350 l 1,12,-1
 276 246 l 1,13,-1
 161 260 l 1,14,-1
 188 -11 l 1,15,-1
 60 -12 l 1,0,-1
EndSplineSet
EndChar

StartChar: hbar
Encoding: 295 295 169
Width: 586
GlyphClass: 1
Flags: W
LayerCount: 2
Fore
SplineSet
60 -12 m 1,0,-1
 60 471 l 1,1,-1
 30 498 l 1,2,-1
 31 607 l 1,3,-1
 60 598 l 1,4,-1
 60 638 l 1,5,-1
 161 631 l 1,6,-1
 187 607 l 1,7,-1
 262 598 l 1,8,-1
 285 471 l 1,9,-1
 161 498 l 1,10,-1
 187 381 l 1,11,-1
 241 359 l 1,12,-1
 236 467 l 1,13,-1
 433 450 l 1,14,-1
 452 381 l 1,15,-1
 525 359 l 1,16,-1
 541 -11 l 1,17,-1
 423 -12 l 1,18,-1
 413 331 l 1,19,-1
 251 350 l 1,20,-1
 275 246 l 1,21,-1
 161 260 l 1,22,-1
 187 -11 l 1,23,-1
 60 -12 l 1,0,-1
EndSplineSet
EndChar

StartChar: i
Encoding: 105 105 171
Width: 222
GlyphClass: 1
Flags: W
LayerCount: 2
Fore
SplineSet
60 -12 m 1,0,-1
 61 467 l 1,1,-1
 161 450 l 1,2,-1
 188 -11 l 1,3,-1
 60 -12 l 1,0,-1
60 530 m 1,4,-1
 61 638 l 1,5,-1
 161 631 l 1,6,-1
 188 501 l 1,7,-1
 60 530 l 1,4,-1
EndSplineSet
EndChar

StartChar: dotlessi
Encoding: 305 305 172
Width: 222
GlyphClass: 1
Flags: W
LayerCount: 2
Fore
SplineSet
60 -12 m 1,0,-1
 61 467 l 1,1,-1
 161 450 l 1,2,-1
 189 -11 l 1,3,-1
 60 -12 l 1,0,-1
EndSplineSet
EndChar

StartChar: ibreve
Encoding: 301 301 174
Width: 222
GlyphClass: 1
Flags: W
LayerCount: 2
Fore
SplineSet
60 -12 m 1,0,-1
 59 467 l 1,1,-1
 161 450 l 1,2,-1
 186 -11 l 1,3,-1
 60 -12 l 1,0,-1
-13 540 m 1,4,-1
 -12 647 l 1,5,-1
 42 641 l 1,6,-1
 70 604 l 1,7,-1
 176 595 l 1,8,-1
 172 647 l 1,9,-1
 231 641 l 1,10,-1
 254 510 l 1,11,-1
 -13 540 l 1,4,-1
EndSplineSet
EndChar

StartChar: ij
Encoding: 307 307 182
Width: 697
GlyphClass: 1
Flags: W
LayerCount: 2
Fore
SplineSet
353 -13 m 1,0,-1
 378 74 l 1,1,-1
 262 78 l 1,2,-1
 290 211 l 1,3,-1
 363 179 l 1,4,-1
 417 125 l 1,5,-1
 535 88 l 1,6,-1
 555 467 l 1,7,-1
 636 450 l 1,8,-1
 683 74 l 1,9,-1
 545 78 l 1,10,-1
 594 -12 l 1,11,-1
 353 -13 l 1,0,-1
60 -12 m 1,12,-1
 61 467 l 1,13,-1
 161 450 l 1,14,-1
 188 -11 l 1,15,-1
 60 -12 l 1,12,-1
EndSplineSet
EndChar

StartChar: j
Encoding: 106 106 183
Width: 495
GlyphClass: 1
Flags: W
LayerCount: 2
Fore
SplineSet
151 -13 m 1,0,-1
 149 74 l 1,1,-1
 60 78 l 1,2,-1
 61 211 l 1,3,-1
 161 179 l 1,4,-1
 188 125 l 1,5,-1
 333 88 l 1,6,-1
 326 467 l 1,7,-1
 434 450 l 1,8,-1
 454 74 l 1,9,-1
 343 78 l 1,10,-1
 365 -12 l 1,11,-1
 151 -13 l 1,0,-1
EndSplineSet
EndChar

StartChar: uni0237
Encoding: 567 567 184
Width: 495
GlyphClass: 1
Flags: W
LayerCount: 2
Fore
SplineSet
151 -13 m 1,0,-1
 149 74 l 1,1,-1
 60 78 l 1,2,-1
 61 211 l 1,3,-1
 161 179 l 1,4,-1
 188 125 l 1,5,-1
 333 88 l 1,6,-1
 326 467 l 1,7,-1
 434 450 l 1,8,-1
 454 74 l 1,9,-1
 343 78 l 1,10,-1
 365 -12 l 1,11,-1
 151 -13 l 1,0,-1
EndSplineSet
EndChar

StartChar: k
Encoding: 107 107 186
Width: 586
GlyphClass: 1
Flags: W
LayerCount: 2
Fore
SplineSet
60 -12 m 1,0,-1
 61 638 l 1,1,-1
 161 631 l 1,2,-1
 188 297 l 1,3,-1
 241 270 l 1,4,-1
 237 381 l 1,5,-1
 423 359 l 1,6,-1
 414 467 l 1,7,-1
 525 450 l 1,8,-1
 542 331 l 1,9,-1
 433 350 l 1,10,-1
 433 260 l 1,11,-1
 276 246 l 1,12,-1
 251 179 l 1,13,-1
 453 211 l 1,14,-1
 433 88 l 1,15,-1
 542 125 l 1,16,-1
 525 -12 l 1,17,-1
 414 -11 l 1,18,-1
 423 78 l 1,19,-1
 241 78 l 1,20,-1
 237 160 l 1,21,-1
 161 169 l 1,22,-1
 188 -11 l 1,23,-1
 60 -12 l 1,0,-1
EndSplineSet
EndChar

StartChar: l
Encoding: 108 108 188
Width: 222
GlyphClass: 1
Flags: W
LayerCount: 2
Fore
SplineSet
60 -12 m 1,0,-1
 61 638 l 1,1,-1
 161 631 l 1,2,-1
 188 -11 l 1,3,-1
 60 -12 l 1,0,-1
EndSplineSet
EndChar

StartChar: lslash
Encoding: 322 322 193
Width: 274
GlyphClass: 1
Flags: W
LayerCount: 2
Fore
SplineSet
74 -11 m 1,0,-1
 62 74 62 74 74 117 c 1,1,-1
 50 140 50 140 53 90 c 1,2,-1
 8.5 137 8.5 137 -37 140 c 1,3,-1
 20.5 222.5 20.5 222.5 74 306 c 1,4,-1
 62 461 62 461 74 638 c 1,5,-1
 112.5 631 112.5 631 201 638 c 1,6,-1
 163 546 163 546 201 513 c 1,7,-1
 175.5 482.5 175.5 482.5 231 565 c 1,8,-1
 217 486.5 217 486.5 318 514 c 1,9,-1
 204.5 399.5 204.5 399.5 201 322 c 1,10,-1
 163 159 163 159 201 -11 c 1,11,-1
 112.5 -12 112.5 -12 74 -11 c 1,0,-1
EndSplineSet
EndChar

StartChar: m
Encoding: 109 109 194
Width: 767
GlyphClass: 1
Flags: W
LayerCount: 2
Fore
SplineSet
60 -12 m 1,0,-1
 61 467 l 1,1,-1
 343 450 l 1,2,-1
 365 381 l 1,3,-1
 423 359 l 1,4,-1
 414 467 l 1,5,-1
 616 450 l 1,6,-1
 631 381 l 1,7,-1
 706 359 l 1,8,-1
 718 -11 l 1,9,-1
 606 -12 l 1,10,-1
 592 331 l 1,11,-1
 433 350 l 1,12,-1
 453 -11 l 1,13,-1
 333 -12 l 1,14,-1
 326 331 l 1,15,-1
 161 350 l 1,16,-1
 188 -11 l 1,17,-1
 60 -12 l 1,0,-1
EndSplineSet
EndChar

StartChar: n
Encoding: 110 110 195
Width: 586
GlyphClass: 1
Flags: W
LayerCount: 2
Fore
SplineSet
60 -12 m 1,0,-1
 61 467 l 1,1,-1
 433 450 l 1,2,-1
 453 381 l 1,3,-1
 525 359 l 1,4,-1
 542 -11 l 1,5,-1
 423 -12 l 1,6,-1
 414 331 l 1,7,-1
 161 350 l 1,8,-1
 188 -11 l 1,9,-1
 60 -12 l 1,0,-1
EndSplineSet
EndChar

StartChar: eng
Encoding: 331 331 201
Width: 586
GlyphClass: 1
Flags: W
LayerCount: 2
Fore
SplineSet
241 -247 m 1,0,-1
 240 -152 l 1,1,-1
 150 -156 l 1,2,-1
 150 -31 l 1,3,-1
 251 -55 l 1,4,-1
 279 -119 l 1,5,-1
 423 -146 l 1,6,-1
 419 339 l 1,7,-1
 161 350 l 1,8,-1
 190 7 l 1,9,-1
 60 -12 l 1,10,-1
 61 459 l 1,11,-1
 433 450 l 1,12,-1
 458 371 l 1,13,-1
 525 359 l 1,14,-1
 549 -152 l 1,15,-1
 433 -156 l 1,16,-1
 458 -240 l 1,17,-1
 241 -247 l 1,0,-1
EndSplineSet
EndChar

StartChar: o
Encoding: 111 111 202
Width: 586
GlyphClass: 1
Flags: W
LayerCount: 2
Fore
SplineSet
151 -12 m 1,0,-1
 149 74 l 1,1,-1
 60 78 l 1,2,-1
 61 381 l 1,3,-1
 151 359 l 1,4,-1
 149 467 l 1,5,-1
 433 450 l 1,6,-1
 453 381 l 1,7,-1
 525 359 l 1,8,-1
 542 74 l 1,9,-1
 433 78 l 1,10,-1
 453 -11 l 1,11,-1
 151 -12 l 1,0,-1
161 88 m 1,12,-1
 414 125 l 1,13,-1
 423 350 l 1,14,-1
 188 331 l 1,15,-1
 161 88 l 1,12,-1
EndSplineSet
EndChar

StartChar: oslash
Encoding: 248 248 210
Width: 586
GlyphClass: 1
Flags: W
LayerCount: 2
Fore
SplineSet
38 -59 m 1,0,-1
 438 541 l 1,1,-1
 566 541 l 1,2,-1
 166 -59 l 1,3,-1
 38 -59 l 1,0,-1
151 -12 m 1,4,-1
 149 74 l 1,5,-1
 60 78 l 1,6,-1
 61 381 l 1,7,-1
 151 359 l 1,8,-1
 149 467 l 1,9,-1
 433 450 l 1,10,-1
 453 381 l 1,11,-1
 525 359 l 1,12,-1
 542 74 l 1,13,-1
 433 78 l 1,14,-1
 453 -11 l 1,15,-1
 151 -12 l 1,4,-1
161 88 m 1,16,-1
 414 125 l 1,17,-1
 423 350 l 1,18,-1
 188 331 l 1,19,-1
 161 88 l 1,16,-1
EndSplineSet
EndChar

StartChar: oe
Encoding: 339 339 213
Width: 949
GlyphClass: 1
Flags: W
LayerCount: 2
Fore
SplineSet
151 -12 m 1,0,-1
 149 74 l 1,1,-1
 60 78 l 1,2,-1
 61 381 l 1,3,-1
 151 359 l 1,4,-1
 149 467 l 1,5,-1
 433 450 l 1,6,-1
 453 381 l 1,7,-1
 515 359 l 1,8,-1
 503 467 l 1,9,-1
 797 450 l 1,10,-1
 807 381 l 1,11,-1
 888 359 l 1,12,-1
 895 246 l 1,13,-1
 787 260 l 1,14,-1
 768 331 l 1,15,-1
 525 350 l 1,16,-1
 542 297 l 1,17,-1
 706 270 l 1,18,-1
 718 160 l 1,19,-1
 525 169 l 1,20,-1
 542 125 l 1,21,-1
 787 88 l 1,22,-1
 768 212 l 1,23,-1
 888 180 l 1,24,-1
 895 75 l 1,25,-1
 797 79 l 1,26,-1
 807 -11 l 1,27,-1
 515 -12 l 1,28,-1
 503 74 l 1,29,-1
 433 78 l 1,30,-1
 453 -11 l 1,31,-1
 151 -12 l 1,0,-1
161 88 m 1,32,-1
 414 125 l 1,33,-1
 423 350 l 1,34,-1
 188 331 l 1,35,-1
 161 88 l 1,32,-1
EndSplineSet
EndChar

StartChar: p
Encoding: 112 112 214
Width: 586
GlyphClass: 1
Flags: W
LayerCount: 2
Fore
SplineSet
60 -188 m 1,0,-1
 61 381 l 1,1,-1
 151 359 l 1,2,-1
 149 467 l 1,3,-1
 433 450 l 1,4,-1
 453 381 l 1,5,-1
 525 359 l 1,6,-1
 542 74 l 1,7,-1
 433 78 l 1,8,-1
 433 -12 l 1,9,-1
 161 -12 l 1,10,-1
 188 -177 l 1,11,-1
 60 -188 l 1,0,-1
161 88 m 1,12,-1
 414 125 l 1,13,-1
 423 350 l 1,14,-1
 188 331 l 1,15,-1
 161 88 l 1,12,-1
EndSplineSet
EndChar

StartChar: thorn
Encoding: 254 254 215
Width: 586
GlyphClass: 1
Flags: W
LayerCount: 2
Fore
SplineSet
60 -12 m 1,0,-1
 61 638 l 1,1,-1
 161 631 l 1,2,-1
 188 518 l 1,3,-1
 433 504 l 1,4,-1
 433 413 l 1,5,-1
 542 432 l 1,6,-1
 525 131 l 1,7,-1
 453 124 l 1,8,-1
 433 42 l 1,9,-1
 161 42 l 1,10,-1
 188 -11 l 1,11,-1
 60 -12 l 1,0,-1
161 141 m 1,12,-1
 414 175 l 1,13,-1
 423 403 l 1,14,-1
 188 381 l 1,15,-1
 161 141 l 1,12,-1
EndSplineSet
EndChar

StartChar: q
Encoding: 113 113 216
Width: 586
GlyphClass: 1
Flags: W
LayerCount: 2
Fore
SplineSet
414 -177 m 1,0,-1
 423 -12 l 1,1,-1
 151 -12 l 1,2,-1
 151 78 l 1,3,-1
 61 74 l 1,4,-1
 60 359 l 1,5,-1
 149 381 l 1,6,-1
 151 450 l 1,7,-1
 453 467 l 1,8,-1
 433 359 l 1,9,-1
 542 381 l 1,10,-1
 525 -188 l 1,11,-1
 414 -177 l 1,0,-1
161 88 m 1,12,-1
 414 125 l 1,13,-1
 423 350 l 1,14,-1
 188 331 l 1,15,-1
 161 88 l 1,12,-1
EndSplineSet
EndChar

StartChar: r
Encoding: 114 114 217
Width: 586
GlyphClass: 1
Flags: W
LayerCount: 2
Fore
SplineSet
60 -12 m 1,0,-1
 61 381 l 1,1,-1
 151 359 l 1,2,-1
 149 467 l 1,3,-1
 433 450 l 1,4,-1
 453 381 l 1,5,-1
 525 359 l 1,6,-1
 542 246 l 1,7,-1
 423 260 l 1,8,-1
 414 331 l 1,9,-1
 161 350 l 1,10,-1
 188 -11 l 1,11,-1
 60 -12 l 1,0,-1
EndSplineSet
EndChar

StartChar: s
Encoding: 115 115 221
Width: 586
GlyphClass: 1
Flags: W
LayerCount: 2
Fore
SplineSet
61 -11 m 1,0,-1
 60 88 l 1,1,-1
 414 125 l 1,2,-1
 423 169 l 1,3,-1
 149 160 l 1,4,-1
 151 260 l 1,5,-1
 61 246 l 1,6,-1
 60 359 l 1,7,-1
 149 381 l 1,8,-1
 151 450 l 1,9,-1
 542 467 l 1,10,-1
 525 350 l 1,11,-1
 188 331 l 1,12,-1
 161 270 l 1,13,-1
 453 297 l 1,14,-1
 433 179 l 1,15,-1
 542 211 l 1,16,-1
 525 78 l 1,17,-1
 453 74 l 1,18,-1
 433 -12 l 1,19,-1
 61 -11 l 1,0,-1
EndSplineSet
EndChar

StartChar: germandbls
Encoding: 223 223 227
Width: 586
GlyphClass: 1
Flags: W
LayerCount: 2
Fore
SplineSet
60 -12 m 1,0,-1
 61 638 l 1,1,-1
 433 631 l 1,2,-1
 453 552 l 1,3,-1
 525 540 l 1,4,-1
 542 331 l 1,5,-1
 433 350 l 1,6,-1
 453 297 l 1,7,-1
 525 270 l 1,8,-1
 542 74 l 1,9,-1
 433 78 l 1,10,-1
 453 -11 l 1,11,-1
 241 -12 l 1,12,-1
 237 125 l 1,13,-1
 423 88 l 1,14,-1
 414 246 l 1,15,-1
 241 260 l 1,16,-1
 237 381 l 1,17,-1
 423 359 l 1,18,-1
 414 501 l 1,19,-1
 161 530 l 1,20,-1
 188 -11 l 1,21,-1
 60 -12 l 1,0,-1
EndSplineSet
EndChar

StartChar: t
Encoding: 116 116 228
Width: 677
GlyphClass: 1
Flags: W
LayerCount: 2
Fore
SplineSet
237 -11 m 1,0,-1
 241 78 l 1,1,-1
 151 78 l 1,2,-1
 151 350 l 1,3,-1
 61 331 l 1,4,-1
 60 450 l 1,5,-1
 149 467 l 1,6,-1
 151 631 l 1,7,-1
 276 638 l 1,8,-1
 251 450 l 1,9,-1
 542 467 l 1,10,-1
 525 350 l 1,11,-1
 276 331 l 1,12,-1
 251 88 l 1,13,-1
 503 125 l 1,14,-1
 515 179 l 1,15,-1
 631 211 l 1,16,-1
 616 78 l 1,17,-1
 542 74 l 1,18,-1
 525 -12 l 1,19,-1
 237 -11 l 1,0,-1
EndSplineSet
EndChar

StartChar: tbar
Encoding: 359 359 229
Width: 677
GlyphClass: 1
Flags: W
LayerCount: 2
Fore
SplineSet
237 -11 m 1,0,-1
 241 78 l 1,1,-1
 151 78 l 1,2,-1
 149 147 l 1,3,-1
 60 155 l 1,4,-1
 61 284 l 1,5,-1
 151 256 l 1,6,-1
 149 331 l 1,7,-1
 60 350 l 1,8,-1
 61 467 l 1,9,-1
 151 450 l 1,10,-1
 149 638 l 1,11,-1
 251 631 l 1,12,-1
 276 467 l 1,13,-1
 525 450 l 1,14,-1
 542 331 l 1,15,-1
 251 350 l 1,16,-1
 276 284 l 1,17,-1
 342 256 l 1,18,-1
 364 147 l 1,19,-1
 251 155 l 1,20,-1
 276 125 l 1,21,-1
 515 88 l 1,22,-1
 503 211 l 1,23,-1
 616 179 l 1,24,-1
 631 74 l 1,25,-1
 542 74 l 1,26,-1
 525 -12 l 1,27,-1
 237 -11 l 1,0,-1
EndSplineSet
EndChar

StartChar: u
Encoding: 117 117 233
Width: 586
GlyphClass: 1
Flags: W
LayerCount: 2
Fore
SplineSet
151 -12 m 1,0,-1
 149 74 l 1,1,-1
 60 78 l 1,2,-1
 61 467 l 1,3,-1
 161 450 l 1,4,-1
 188 125 l 1,5,-1
 423 88 l 1,6,-1
 414 467 l 1,7,-1
 525 450 l 1,8,-1
 542 74 l 1,9,-1
 433 78 l 1,10,-1
 453 -11 l 1,11,-1
 151 -12 l 1,0,-1
EndSplineSet
EndChar

StartChar: v
Encoding: 118 118 244
Width: 576
GlyphClass: 1
Flags: W
LayerCount: 2
Fore
SplineSet
232 -12 m 1,0,-1
 227 74 l 1,1,-1
 141 78 l 1,2,-1
 141 260 l 1,3,-1
 50 246 l 1,4,-1
 50 450 l 1,5,-1
 177 467 l 1,6,-1
 151 270 l 1,7,-1
 241 270 l 1,8,-1
 265 125 l 1,9,-1
 323 88 l 1,10,-1
 315 297 l 1,11,-1
 413 270 l 1,12,-1
 403 467 l 1,13,-1
 515 450 l 1,14,-1
 531 246 l 1,15,-1
 423 260 l 1,16,-1
 423 78 l 1,17,-1
 333 78 l 1,18,-1
 354 -11 l 1,19,-1
 232 -12 l 1,0,-1
EndSplineSet
EndChar

StartChar: w
Encoding: 119 119 245
Width: 767
GlyphClass: 1
Flags: W
LayerCount: 2
Fore
SplineSet
60 -12 m 1,0,-1
 61 467 l 1,1,-1
 161 450 l 1,2,-1
 188 125 l 1,3,-1
 333 88 l 1,4,-1
 326 467 l 1,5,-1
 433 450 l 1,6,-1
 453 125 l 1,7,-1
 606 88 l 1,8,-1
 592 467 l 1,9,-1
 706 450 l 1,10,-1
 718 74 l 1,11,-1
 616 78 l 1,12,-1
 631 -11 l 1,13,-1
 423 -12 l 1,14,-1
 414 74 l 1,15,-1
 343 78 l 1,16,-1
 365 -11 l 1,17,-1
 60 -12 l 1,0,-1
EndSplineSet
EndChar

StartChar: x
Encoding: 120 120 250
Width: 586
GlyphClass: 1
Flags: W
LayerCount: 2
Fore
SplineSet
60 -12 m 1,0,-1
 61 125 l 1,1,-1
 151 88 l 1,2,-1
 151 179 l 1,3,-1
 237 211 l 1,4,-1
 241 260 l 1,5,-1
 149 246 l 1,6,-1
 151 350 l 1,7,-1
 61 331 l 1,8,-1
 60 450 l 1,9,-1
 188 467 l 1,10,-1
 161 359 l 1,11,-1
 251 359 l 1,12,-1
 276 297 l 1,13,-1
 333 270 l 1,14,-1
 326 381 l 1,15,-1
 423 359 l 1,16,-1
 414 467 l 1,17,-1
 525 450 l 1,18,-1
 542 331 l 1,19,-1
 433 350 l 1,20,-1
 433 260 l 1,21,-1
 365 246 l 1,22,-1
 343 179 l 1,23,-1
 453 211 l 1,24,-1
 433 88 l 1,25,-1
 542 125 l 1,26,-1
 525 -12 l 1,27,-1
 414 -11 l 1,28,-1
 423 78 l 1,29,-1
 333 78 l 1,30,-1
 326 160 l 1,31,-1
 251 169 l 1,32,-1
 276 74 l 1,33,-1
 161 78 l 1,34,-1
 188 -11 l 1,35,-1
 60 -12 l 1,0,-1
EndSplineSet
EndChar

StartChar: y
Encoding: 121 121 251
Width: 586
GlyphClass: 1
Flags: W
LayerCount: 2
Fore
SplineSet
149 -182 m 1,0,-1
 151 -103 l 1,1,-1
 61 -97 l 1,2,-1
 60 -3 l 1,3,-1
 188 39 l 1,4,-1
 161 -93 l 1,5,-1
 415 -46 l 1,6,-1
 424 78 l 1,7,-1
 149 74 l 1,8,-1
 151 169 l 1,9,-1
 61 160 l 1,10,-1
 60 450 l 1,11,-1
 188 467 l 1,12,-1
 161 179 l 1,13,-1
 415 211 l 1,14,-1
 424 450 l 1,15,-1
 542 467 l 1,16,-1
 525 -103 l 1,17,-1
 454 -97 l 1,18,-1
 434 -193 l 1,19,-1
 149 -182 l 1,0,-1
EndSplineSet
EndChar

StartChar: z
Encoding: 122 122 256
Width: 586
GlyphClass: 1
Flags: W
LayerCount: 2
Fore
SplineSet
61 -11 m 1,0,-1
 60 88 l 1,1,-1
 149 125 l 1,2,-1
 151 179 l 1,3,-1
 241 179 l 1,4,-1
 241 270 l 1,5,-1
 326 297 l 1,6,-1
 333 350 l 1,7,-1
 61 331 l 1,8,-1
 60 450 l 1,9,-1
 542 467 l 1,10,-1
 525 350 l 1,11,-1
 453 331 l 1,12,-1
 433 260 l 1,13,-1
 343 260 l 1,14,-1
 343 169 l 1,15,-1
 276 160 l 1,16,-1
 251 88 l 1,17,-1
 542 125 l 1,18,-1
 525 -12 l 1,19,-1
 61 -11 l 1,0,-1
EndSplineSet
EndChar

StartChar: f_f
Encoding: 64256 64256 260
Width: 949
GlyphClass: 1
Flags: W
LayerCount: 2
Fore
SplineSet
60 -12 m 1,0,-1
 61 552 l 1,1,-1
 151 540 l 1,2,-1
 149 638 l 1,3,-1
 433 631 l 1,4,-1
 453 552 l 1,5,-1
 515 540 l 1,6,-1
 503 638 l 1,7,-1
 797 631 l 1,8,-1
 807 552 l 1,9,-1
 888 540 l 1,10,-1
 895 416 l 1,11,-1
 787 440 l 1,12,-1
 768 501 l 1,13,-1
 525 530 l 1,14,-1
 542 381 l 1,15,-1
 706 359 l 1,16,-1
 718 246 l 1,17,-1
 525 260 l 1,18,-1
 542 -11 l 1,19,-1
 423 -12 l 1,20,-1
 414 501 l 1,21,-1
 161 530 l 1,22,-1
 188 381 l 1,23,-1
 343 359 l 1,24,-1
 365 246 l 1,25,-1
 161 260 l 1,26,-1
 188 -11 l 1,27,-1
 60 -12 l 1,0,-1
EndSplineSet
EndChar

StartChar: f_f_i
Encoding: 64259 64259 261
Width: 949
GlyphClass: 1
Flags: W
LayerCount: 2
Fore
SplineSet
60 -12 m 1,0,-1
 61 552 l 1,1,-1
 151 540 l 1,2,-1
 149 638 l 1,3,-1
 433 631 l 1,4,-1
 453 552 l 1,5,-1
 515 540 l 1,6,-1
 503 638 l 1,7,-1
 797 631 l 1,8,-1
 807 552 l 1,9,-1
 888 540 l 1,10,-1
 895 416 l 1,11,-1
 787 440 l 1,12,-1
 768 501 l 1,13,-1
 525 530 l 1,14,-1
 542 381 l 1,15,-1
 888 359 l 1,16,-1
 895 -11 l 1,17,-1
 786 -12 l 1,18,-1
 767 246 l 1,19,-1
 525 260 l 1,20,-1
 542 -11 l 1,21,-1
 423 -12 l 1,22,-1
 414 501 l 1,23,-1
 161 530 l 1,24,-1
 188 381 l 1,25,-1
 343 359 l 1,26,-1
 365 246 l 1,27,-1
 161 260 l 1,28,-1
 188 -11 l 1,29,-1
 60 -12 l 1,0,-1
EndSplineSet
EndChar

StartChar: f_f_l
Encoding: 64260 64260 262
Width: 949
GlyphClass: 1
Flags: W
LayerCount: 2
Fore
SplineSet
60 -12 m 1,0,-1
 61 552 l 1,1,-1
 151 540 l 1,2,-1
 149 638 l 1,3,-1
 433 631 l 1,4,-1
 453 552 l 1,5,-1
 515 540 l 1,6,-1
 503 638 l 1,7,-1
 797 631 l 1,8,-1
 807 552 l 1,9,-1
 888 540 l 1,10,-1
 895 -11 l 1,11,-1
 787 -12 l 1,12,-1
 768 501 l 1,13,-1
 525 530 l 1,14,-1
 542 381 l 1,15,-1
 706 359 l 1,16,-1
 718 246 l 1,17,-1
 525 260 l 1,18,-1
 542 -11 l 1,19,-1
 423 -12 l 1,20,-1
 414 501 l 1,21,-1
 161 530 l 1,22,-1
 188 381 l 1,23,-1
 343 359 l 1,24,-1
 365 246 l 1,25,-1
 161 260 l 1,26,-1
 188 -11 l 1,27,-1
 60 -12 l 1,0,-1
EndSplineSet
EndChar

StartChar: fi
Encoding: 64257 64257 263
Width: 586
GlyphClass: 1
Flags: W
LayerCount: 2
Fore
SplineSet
60 -12 m 1,0,-1
 61 552 l 1,1,-1
 151 540 l 1,2,-1
 149 638 l 1,3,-1
 433 631 l 1,4,-1
 453 552 l 1,5,-1
 525 540 l 1,6,-1
 542 416 l 1,7,-1
 423 440 l 1,8,-1
 414 501 l 1,9,-1
 161 530 l 1,10,-1
 188 381 l 1,11,-1
 525 359 l 1,12,-1
 542 -11 l 1,13,-1
 423 -12 l 1,14,-1
 414 246 l 1,15,-1
 161 260 l 1,16,-1
 188 -11 l 1,17,-1
 60 -12 l 1,0,-1
EndSplineSet
EndChar

StartChar: fl
Encoding: 64258 64258 264
Width: 586
GlyphClass: 1
Flags: W
LayerCount: 2
Fore
SplineSet
60 -12 m 1,0,-1
 61 552 l 1,1,-1
 151 540 l 1,2,-1
 149 638 l 1,3,-1
 433 631 l 1,4,-1
 453 552 l 1,5,-1
 525 540 l 1,6,-1
 542 -11 l 1,7,-1
 423 -12 l 1,8,-1
 414 501 l 1,9,-1
 161 530 l 1,10,-1
 188 381 l 1,11,-1
 343 359 l 1,12,-1
 365 246 l 1,13,-1
 161 260 l 1,14,-1
 188 -11 l 1,15,-1
 60 -12 l 1,0,-1
EndSplineSet
EndChar

StartChar: s_t
Encoding: 64262 64262 265
Width: 1124
GlyphClass: 1
Flags: W
LayerCount: 2
Fore
SplineSet
61 -11 m 1,0,-1
 60 88 l 1,1,-1
 414 125 l 1,2,-1
 423 169 l 1,3,-1
 149 160 l 1,4,-1
 151 260 l 1,5,-1
 61 246 l 1,6,-1
 60 359 l 1,7,-1
 149 381 l 1,8,-1
 151 450 l 1,9,-1
 598 450 l 1,10,-1
 584 638 l 1,11,-1
 699 631 l 1,12,-1
 711 467 l 1,13,-1
 972 450 l 1,14,-1
 977 331 l 1,15,-1
 699 350 l 1,16,-1
 711 125 l 1,17,-1
 962 88 l 1,18,-1
 938 211 l 1,19,-1
 1063 179 l 1,20,-1
 1065 74 l 1,21,-1
 972 78 l 1,22,-1
 977 -11 l 1,23,-1
 689 -12 l 1,24,-1
 672 74 l 1,25,-1
 598 78 l 1,26,-1
 584 331 l 1,27,-1
 161 350 l 1,28,-1
 188 297 l 1,29,-1
 433 270 l 1,30,-1
 433 179 l 1,31,-1
 542 211 l 1,32,-1
 525 78 l 1,33,-1
 453 74 l 1,34,-1
 433 -12 l 1,35,-1
 61 -11 l 1,0,-1
EndSplineSet
EndChar

StartChar: ordfeminine
Encoding: 170 170 266
Width: 398
GlyphClass: 1
Flags: W
LayerCount: 2
Fore
SplineSet
106 401 m 1,0,-1
 106 441 l 1,1,-1
 62 443 l 1,2,-1
 60 582 l 1,3,-1
 106 597 l 1,4,-1
 106 627 l 1,5,-1
 258 640 l 1,6,-1
 247 582 l 1,7,-1
 293 582 l 1,8,-1
 302 469 l 1,9,-1
 338 446 l 1,10,-1
 338 396 l 1,11,-1
 283 401 l 1,12,-1
 288 441 l 1,13,-1
 258 443 l 1,14,-1
 247 396 l 1,15,-1
 106 401 l 1,0,-1
111 446 m 1,16,-1
 238 469 l 1,17,-1
 242 577 l 1,18,-1
 125 572 l 1,19,-1
 111 446 l 1,16,-1
247 319 m 1,20,-1
 258 369 l 1,21,-1
 106 370 l 1,22,-1
 106 300 l 1,23,-1
 247 319 l 1,20,-1
EndSplineSet
EndChar

StartChar: ordmasculine
Encoding: 186 186 267
Width: 353
GlyphClass: 1
Flags: W
LayerCount: 2
Fore
SplineSet
106 445 m 1,0,-1
 106 400 l 1,1,-1
 247 400 l 1,2,-1
 258 442 l 1,3,-1
 293 445 l 1,4,-1
 302 596 l 1,5,-1
 247 586 l 1,6,-1
 258 639 l 1,7,-1
 106 631 l 1,8,-1
 106 596 l 1,9,-1
 60 586 l 1,10,-1
 62 442 l 1,11,-1
 106 445 l 1,0,-1
111 581 m 1,12,-1
 238 571 l 1,13,-1
 242 450 l 1,14,-1
 125 468 l 1,15,-1
 111 581 l 1,12,-1
247 319 m 1,16,-1
 258 369 l 1,17,-1
 106 370 l 1,18,-1
 106 300 l 1,19,-1
 247 319 l 1,16,-1
EndSplineSet
EndChar

StartChar: uni0410
Encoding: 1040 1040 268
Width: 586
GlyphClass: 1
Flags: W
LayerCount: 2
Fore
SplineSet
61 -11 m 1,0,-1
 60 450 l 1,1,-1
 149 467 l 1,2,-1
 151 540 l 1,3,-1
 241 540 l 1,4,-1
 237 638 l 1,5,-1
 343 631 l 1,6,-1
 365 552 l 1,7,-1
 433 540 l 1,8,-1
 433 450 l 1,9,-1
 542 467 l 1,10,-1
 525 -12 l 1,11,-1
 414 -11 l 1,12,-1
 423 169 l 1,13,-1
 188 160 l 1,14,-1
 161 -12 l 1,15,-1
 61 -11 l 1,0,-1
161 270 m 1,16,-1
 414 297 l 1,17,-1
 423 440 l 1,18,-1
 326 416 l 1,19,-1
 333 530 l 1,20,-1
 276 501 l 1,21,-1
 251 440 l 1,22,-1
 188 416 l 1,23,-1
 161 270 l 1,16,-1
EndSplineSet
EndChar

StartChar: uni0411
Encoding: 1041 1041 269
Width: 586
GlyphClass: 1
Flags: W
LayerCount: 2
Fore
SplineSet
149 -11 m 1,0,-1
 151 78 l 1,1,-1
 61 74 l 1,2,-1
 60 631 l 1,3,-1
 453 638 l 1,4,-1
 433 540 l 1,5,-1
 542 552 l 1,6,-1
 525 440 l 1,7,-1
 414 416 l 1,8,-1
 423 530 l 1,9,-1
 188 501 l 1,10,-1
 161 359 l 1,11,-1
 453 381 l 1,12,-1
 433 270 l 1,13,-1
 542 297 l 1,14,-1
 525 78 l 1,15,-1
 453 74 l 1,16,-1
 433 -12 l 1,17,-1
 149 -11 l 1,0,-1
161 88 m 1,18,-1
 414 125 l 1,19,-1
 423 260 l 1,20,-1
 188 246 l 1,21,-1
 161 88 l 1,18,-1
EndSplineSet
EndChar

StartChar: uni0412
Encoding: 1042 1042 270
Width: 586
GlyphClass: 1
Flags: W
LayerCount: 2
Fore
SplineSet
151 -12 m 1,0,-1
 149 74 l 1,1,-1
 60 78 l 1,2,-1
 61 552 l 1,3,-1
 151 540 l 1,4,-1
 149 638 l 1,5,-1
 433 631 l 1,6,-1
 453 552 l 1,7,-1
 525 540 l 1,8,-1
 542 331 l 1,9,-1
 433 350 l 1,10,-1
 453 297 l 1,11,-1
 525 270 l 1,12,-1
 542 74 l 1,13,-1
 433 78 l 1,14,-1
 453 -11 l 1,15,-1
 151 -12 l 1,0,-1
161 88 m 1,16,-1
 414 125 l 1,17,-1
 423 260 l 1,18,-1
 237 246 l 1,19,-1
 241 359 l 1,20,-1
 414 381 l 1,21,-1
 423 530 l 1,22,-1
 188 501 l 1,23,-1
 161 88 l 1,16,-1
EndSplineSet
EndChar

StartChar: uni0413
Encoding: 1043 1043 271
Width: 494
GlyphClass: 1
Flags: W
LayerCount: 2
Fore
SplineSet
60 -12 m 1,0,-1
 61 636 l 1,1,-1
 433 629 l 1,2,-1
 453 499 l 1,3,-1
 161 528 l 1,4,-1
 188 -11 l 1,5,-1
 60 -12 l 1,0,-1
EndSplineSet
EndChar

StartChar: uni0403
Encoding: 1027 1027 272
Width: 494
GlyphClass: 1
Flags: W
LayerCount: 2
Fore
SplineSet
60 -12 m 1,0,-1
 61 636 l 1,1,-1
 433 629 l 1,2,-1
 453 499 l 1,3,-1
 161 528 l 1,4,-1
 188 -11 l 1,5,-1
 60 -12 l 1,0,-1
EndSplineSet
EndChar

StartChar: Geupturncy
Encoding: 1168 1168 273
Width: 494
GlyphClass: 1
Flags: W
LayerCount: 2
Fore
SplineSet
60 -12 m 1,0,-1
 61 636 l 1,1,-1
 333 629 l 1,2,-1
 326 704 l 1,3,-1
 433 701 l 1,4,-1
 453 499 l 1,5,-1
 161 528 l 1,6,-1
 188 -11 l 1,7,-1
 60 -12 l 1,0,-1
EndSplineSet
EndChar

StartChar: uni0414
Encoding: 1044 1044 274
Width: 676
GlyphClass: 1
Flags: W
LayerCount: 2
Fore
SplineSet
60 -12 m 1,0,-1
 61 298 l 1,1,-1
 150 271 l 1,2,-1
 148 636 l 1,3,-1
 615 629 l 1,4,-1
 630 -11 l 1,5,-1
 514 -12 l 1,6,-1
 502 75 l 1,7,-1
 161 79 l 1,8,-1
 188 -11 l 1,9,-1
 60 -12 l 1,0,-1
251 180 m 1,10,-1
 502 212 l 1,11,-1
 514 528 l 1,12,-1
 276 499 l 1,13,-1
 251 180 l 1,10,-1
EndSplineSet
EndChar

StartChar: uni0415
Encoding: 1045 1045 275
Width: 586
GlyphClass: 1
Flags: W
LayerCount: 2
Fore
SplineSet
151 -12 m 1,0,-1
 149 74 l 1,1,-1
 60 78 l 1,2,-1
 61 552 l 1,3,-1
 151 540 l 1,4,-1
 149 638 l 1,5,-1
 433 631 l 1,6,-1
 453 552 l 1,7,-1
 525 540 l 1,8,-1
 542 416 l 1,9,-1
 423 440 l 1,10,-1
 414 501 l 1,11,-1
 161 530 l 1,12,-1
 188 381 l 1,13,-1
 343 359 l 1,14,-1
 365 246 l 1,15,-1
 161 260 l 1,16,-1
 188 125 l 1,17,-1
 423 88 l 1,18,-1
 414 211 l 1,19,-1
 525 179 l 1,20,-1
 542 74 l 1,21,-1
 433 78 l 1,22,-1
 453 -11 l 1,23,-1
 151 -12 l 1,0,-1
EndSplineSet
EndChar

StartChar: uni0401
Encoding: 1025 1025 276
Width: 586
GlyphClass: 1
Flags: W
LayerCount: 2
Fore
SplineSet
151 -12 m 1,0,-1
 149 74 l 1,1,-1
 60 78 l 1,2,-1
 61 552 l 1,3,-1
 151 540 l 1,4,-1
 149 638 l 1,5,-1
 433 631 l 1,6,-1
 453 552 l 1,7,-1
 525 540 l 1,8,-1
 542 416 l 1,9,-1
 423 440 l 1,10,-1
 414 501 l 1,11,-1
 161 530 l 1,12,-1
 188 381 l 1,13,-1
 343 359 l 1,14,-1
 365 246 l 1,15,-1
 161 260 l 1,16,-1
 188 125 l 1,17,-1
 423 88 l 1,18,-1
 414 211 l 1,19,-1
 525 179 l 1,20,-1
 542 74 l 1,21,-1
 433 78 l 1,22,-1
 453 -11 l 1,23,-1
 151 -12 l 1,0,-1
166 676 m 1,24,-1
 164 776 l 1,25,-1
 221 777 l 1,26,-1
 246 639 l 1,27,-1
 166 676 l 1,24,-1
365 676 m 1,28,-1
 357 776 l 1,29,-1
 419 777 l 1,30,-1
 439 639 l 1,31,-1
 365 676 l 1,28,-1
EndSplineSet
EndChar

StartChar: uni0416
Encoding: 1046 1046 277
Width: 949
GlyphClass: 1
Flags: W
LayerCount: 2
Fore
SplineSet
60 -12 m 1,0,-1
 61 126 l 1,1,-1
 151 89 l 1,2,-1
 151 179 l 1,3,-1
 241 179 l 1,4,-1
 241 270 l 1,5,-1
 326 297 l 1,6,-1
 333 350 l 1,7,-1
 237 331 l 1,8,-1
 241 440 l 1,9,-1
 151 440 l 1,10,-1
 151 530 l 1,11,-1
 61 501 l 1,12,-1
 60 631 l 1,13,-1
 188 638 l 1,14,-1
 161 540 l 1,15,-1
 251 540 l 1,16,-1
 251 450 l 1,17,-1
 343 450 l 1,18,-1
 365 381 l 1,19,-1
 423 359 l 1,20,-1
 414 638 l 1,21,-1
 525 631 l 1,22,-1
 542 381 l 1,23,-1
 605 359 l 1,24,-1
 591 467 l 1,25,-1
 697 450 l 1,26,-1
 697 540 l 1,27,-1
 787 540 l 1,28,-1
 768 638 l 1,29,-1
 888 631 l 1,30,-1
 895 501 l 1,31,-1
 797 530 l 1,32,-1
 797 440 l 1,33,-1
 706 440 l 1,34,-1
 706 350 l 1,35,-1
 630 331 l 1,36,-1
 630 297 l 1,37,-1
 706 270 l 1,38,-1
 706 179 l 1,39,-1
 797 179 l 1,40,-1
 797 89 l 1,41,-1
 895 126 l 1,42,-1
 888 -12 l 1,43,-1
 768 -11 l 1,44,-1
 787 79 l 1,45,-1
 697 79 l 1,46,-1
 697 169 l 1,47,-1
 605 169 l 1,48,-1
 591 246 l 1,49,-1
 525 260 l 1,50,-1
 542 -11 l 1,51,-1
 423 -12 l 1,52,-1
 414 246 l 1,53,-1
 343 260 l 1,54,-1
 365 160 l 1,55,-1
 251 169 l 1,56,-1
 251 79 l 1,57,-1
 161 79 l 1,58,-1
 188 -11 l 1,59,-1
 60 -12 l 1,0,-1
EndSplineSet
EndChar

StartChar: uni0417
Encoding: 1047 1047 278
Width: 586
GlyphClass: 1
Flags: W
LayerCount: 2
Fore
SplineSet
151 -12 m 1,0,-1
 149 74 l 1,1,-1
 60 78 l 1,2,-1
 61 211 l 1,3,-1
 161 179 l 1,4,-1
 188 125 l 1,5,-1
 423 88 l 1,6,-1
 414 246 l 1,7,-1
 151 260 l 1,8,-1
 149 381 l 1,9,-1
 423 359 l 1,10,-1
 414 501 l 1,11,-1
 161 530 l 1,12,-1
 188 416 l 1,13,-1
 60 440 l 1,14,-1
 61 552 l 1,15,-1
 151 540 l 1,16,-1
 149 638 l 1,17,-1
 433 631 l 1,18,-1
 453 552 l 1,19,-1
 525 540 l 1,20,-1
 542 331 l 1,21,-1
 433 350 l 1,22,-1
 453 297 l 1,23,-1
 525 270 l 1,24,-1
 542 74 l 1,25,-1
 433 78 l 1,26,-1
 453 -11 l 1,27,-1
 151 -12 l 1,0,-1
EndSplineSet
EndChar

StartChar: uni0418
Encoding: 1048 1048 279
Width: 586
GlyphClass: 1
Flags: W
LayerCount: 2
Fore
SplineSet
60 -12 m 1,0,-1
 61 638 l 1,1,-1
 161 631 l 1,2,-1
 188 211 l 1,3,-1
 241 179 l 1,4,-1
 237 467 l 1,5,-1
 333 450 l 1,6,-1
 333 540 l 1,7,-1
 423 540 l 1,8,-1
 414 638 l 1,9,-1
 525 631 l 1,10,-1
 542 -11 l 1,11,-1
 423 -12 l 1,12,-1
 414 416 l 1,13,-1
 343 440 l 1,14,-1
 365 160 l 1,15,-1
 251 169 l 1,16,-1
 251 78 l 1,17,-1
 161 78 l 1,18,-1
 188 -11 l 1,19,-1
 60 -12 l 1,0,-1
EndSplineSet
EndChar

StartChar: uni0419
Encoding: 1049 1049 280
Width: 586
GlyphClass: 1
Flags: W
LayerCount: 2
Fore
SplineSet
60 -12 m 1,0,-1
 61 638 l 1,1,-1
 161 631 l 1,2,-1
 188 211 l 1,3,-1
 241 179 l 1,4,-1
 237 467 l 1,5,-1
 333 450 l 1,6,-1
 333 540 l 1,7,-1
 423 540 l 1,8,-1
 414 638 l 1,9,-1
 525 631 l 1,10,-1
 542 -11 l 1,11,-1
 423 -12 l 1,12,-1
 414 416 l 1,13,-1
 343 440 l 1,14,-1
 365 160 l 1,15,-1
 251 169 l 1,16,-1
 251 78 l 1,17,-1
 161 78 l 1,18,-1
 188 -11 l 1,19,-1
 60 -12 l 1,0,-1
169 691 m 1,20,-1
 167 790 l 1,21,-1
 224 792 l 1,22,-1
 249 747 l 1,23,-1
 358 746 l 1,24,-1
 351 790 l 1,25,-1
 412 792 l 1,26,-1
 432 653 l 1,27,-1
 169 691 l 1,20,-1
EndSplineSet
EndChar

StartChar: uni041A
Encoding: 1050 1050 281
Width: 586
GlyphClass: 1
Flags: W
LayerCount: 2
Fore
SplineSet
60 -12 m 1,0,-1
 61 552 l 1,1,-1
 151 540 l 1,2,-1
 149 638 l 1,3,-1
 251 631 l 1,4,-1
 276 501 l 1,5,-1
 161 530 l 1,6,-1
 188 381 l 1,7,-1
 241 359 l 1,8,-1
 237 467 l 1,9,-1
 333 450 l 1,10,-1
 333 540 l 1,11,-1
 423 540 l 1,12,-1
 414 638 l 1,13,-1
 525 631 l 1,14,-1
 542 501 l 1,15,-1
 433 530 l 1,16,-1
 433 440 l 1,17,-1
 343 440 l 1,18,-1
 343 350 l 1,19,-1
 276 331 l 1,20,-1
 251 270 l 1,21,-1
 365 297 l 1,22,-1
 343 179 l 1,23,-1
 433 179 l 1,24,-1
 433 88 l 1,25,-1
 542 125 l 1,26,-1
 525 -12 l 1,27,-1
 414 -11 l 1,28,-1
 423 78 l 1,29,-1
 333 78 l 1,30,-1
 333 169 l 1,31,-1
 241 169 l 1,32,-1
 237 246 l 1,33,-1
 161 260 l 1,34,-1
 188 -11 l 1,35,-1
 60 -12 l 1,0,-1
263 691 m 1,36,-1
 258 747 l 1,37,-1
 308 746 l 1,38,-1
 308 792 l 1,39,-1
 353 792 l 1,40,-1
 346 833 l 1,41,-1
 407 837 l 1,42,-1
 427 739 l 1,43,-1
 363 782 l 1,44,-1
 385 696 l 1,45,-1
 318 737 l 1,46,-1
 341 653 l 1,47,-1
 263 691 l 1,36,-1
EndSplineSet
EndChar

StartChar: uni040C
Encoding: 1036 1036 282
Width: 586
GlyphClass: 1
Flags: W
LayerCount: 2
Fore
SplineSet
60 -12 m 1,0,-1
 61 552 l 1,1,-1
 151 540 l 1,2,-1
 149 638 l 1,3,-1
 251 631 l 1,4,-1
 276 501 l 1,5,-1
 161 530 l 1,6,-1
 188 381 l 1,7,-1
 241 359 l 1,8,-1
 237 467 l 1,9,-1
 333 450 l 1,10,-1
 333 540 l 1,11,-1
 423 540 l 1,12,-1
 414 638 l 1,13,-1
 525 631 l 1,14,-1
 542 501 l 1,15,-1
 433 530 l 1,16,-1
 433 440 l 1,17,-1
 343 440 l 1,18,-1
 343 350 l 1,19,-1
 276 331 l 1,20,-1
 251 270 l 1,21,-1
 365 297 l 1,22,-1
 343 179 l 1,23,-1
 433 179 l 1,24,-1
 433 88 l 1,25,-1
 542 125 l 1,26,-1
 525 -12 l 1,27,-1
 414 -11 l 1,28,-1
 423 78 l 1,29,-1
 333 78 l 1,30,-1
 333 169 l 1,31,-1
 241 169 l 1,32,-1
 237 246 l 1,33,-1
 161 260 l 1,34,-1
 188 -11 l 1,35,-1
 60 -12 l 1,0,-1
EndSplineSet
EndChar

StartChar: uni041B
Encoding: 1051 1051 283
Width: 676
GlyphClass: 1
Flags: W
LayerCount: 2
Fore
SplineSet
60 -12 m 1,0,-1
 61 126 l 1,1,-1
 150 89 l 1,2,-1
 148 636 l 1,3,-1
 615 629 l 1,4,-1
 630 -11 l 1,5,-1
 514 -12 l 1,6,-1
 502 499 l 1,7,-1
 251 528 l 1,8,-1
 276 -11 l 1,9,-1
 60 -12 l 1,0,-1
EndSplineSet
EndChar

StartChar: uni041C
Encoding: 1052 1052 284
Width: 767
GlyphClass: 1
Flags: W
LayerCount: 2
Fore
SplineSet
60 -12 m 1,0,-1
 61 552 l 1,1,-1
 151 540 l 1,2,-1
 149 638 l 1,3,-1
 251 631 l 1,4,-1
 276 552 l 1,5,-1
 343 540 l 1,6,-1
 365 381 l 1,7,-1
 423 359 l 1,8,-1
 414 552 l 1,9,-1
 515 540 l 1,10,-1
 503 638 l 1,11,-1
 616 631 l 1,12,-1
 631 552 l 1,13,-1
 706 540 l 1,14,-1
 718 -11 l 1,15,-1
 606 -12 l 1,16,-1
 592 501 l 1,17,-1
 525 530 l 1,18,-1
 542 331 l 1,19,-1
 433 350 l 1,20,-1
 453 74 l 1,21,-1
 333 78 l 1,22,-1
 326 331 l 1,23,-1
 241 350 l 1,24,-1
 237 501 l 1,25,-1
 161 530 l 1,26,-1
 188 -11 l 1,27,-1
 60 -12 l 1,0,-1
EndSplineSet
EndChar

StartChar: uni041D
Encoding: 1053 1053 285
Width: 586
GlyphClass: 1
Flags: W
LayerCount: 2
Fore
SplineSet
60 -12 m 1,0,-1
 61 638 l 1,1,-1
 161 631 l 1,2,-1
 188 381 l 1,3,-1
 423 359 l 1,4,-1
 414 638 l 1,5,-1
 525 631 l 1,6,-1
 542 -11 l 1,7,-1
 423 -12 l 1,8,-1
 414 246 l 1,9,-1
 161 260 l 1,10,-1
 188 -11 l 1,11,-1
 60 -12 l 1,0,-1
EndSplineSet
EndChar

StartChar: uni0420
Encoding: 1056 1056 286
Width: 586
GlyphClass: 1
Flags: W
LayerCount: 2
Fore
SplineSet
60 -12 m 1,0,-1
 61 552 l 1,1,-1
 151 540 l 1,2,-1
 149 638 l 1,3,-1
 433 631 l 1,4,-1
 453 552 l 1,5,-1
 525 540 l 1,6,-1
 542 246 l 1,7,-1
 433 260 l 1,8,-1
 433 169 l 1,9,-1
 161 169 l 1,10,-1
 188 -11 l 1,11,-1
 60 -12 l 1,0,-1
161 270 m 1,12,-1
 414 297 l 1,13,-1
 423 530 l 1,14,-1
 188 501 l 1,15,-1
 161 270 l 1,12,-1
EndSplineSet
EndChar

StartChar: uni0421
Encoding: 1057 1057 287
Width: 586
GlyphClass: 1
Flags: W
LayerCount: 2
Fore
SplineSet
151 -12 m 1,0,-1
 149 74 l 1,1,-1
 60 78 l 1,2,-1
 61 552 l 1,3,-1
 151 540 l 1,4,-1
 149 638 l 1,5,-1
 433 631 l 1,6,-1
 453 552 l 1,7,-1
 525 540 l 1,8,-1
 542 331 l 1,9,-1
 423 350 l 1,10,-1
 414 501 l 1,11,-1
 161 530 l 1,12,-1
 188 125 l 1,13,-1
 423 88 l 1,14,-1
 414 297 l 1,15,-1
 525 270 l 1,16,-1
 542 74 l 1,17,-1
 433 78 l 1,18,-1
 453 -11 l 1,19,-1
 151 -12 l 1,0,-1
EndSplineSet
EndChar

StartChar: uni0422
Encoding: 1058 1058 288
Width: 586
GlyphClass: 1
Flags: W
LayerCount: 2
Fore
SplineSet
241 -12 m 1,0,-1
 237 501 l 1,1,-1
 161 530 l 1,2,-1
 188 416 l 1,3,-1
 60 440 l 1,4,-1
 61 552 l 1,5,-1
 151 540 l 1,6,-1
 149 638 l 1,7,-1
 433 631 l 1,8,-1
 453 552 l 1,9,-1
 525 540 l 1,10,-1
 542 416 l 1,11,-1
 423 440 l 1,12,-1
 414 501 l 1,13,-1
 343 530 l 1,14,-1
 365 -11 l 1,15,-1
 241 -12 l 1,0,-1
EndSplineSet
EndChar

StartChar: uni0423
Encoding: 1059 1059 289
Width: 586
GlyphClass: 1
Flags: W
LayerCount: 2
Fore
SplineSet
241 -12 m 1,0,-1
 237 331 l 1,1,-1
 151 350 l 1,2,-1
 151 440 l 1,3,-1
 61 416 l 1,4,-1
 60 631 l 1,5,-1
 188 638 l 1,6,-1
 161 450 l 1,7,-1
 251 450 l 1,8,-1
 276 381 l 1,9,-1
 333 359 l 1,10,-1
 326 467 l 1,11,-1
 423 450 l 1,12,-1
 414 638 l 1,13,-1
 525 631 l 1,14,-1
 542 416 l 1,15,-1
 433 440 l 1,16,-1
 433 350 l 1,17,-1
 343 350 l 1,18,-1
 365 -11 l 1,19,-1
 241 -12 l 1,0,-1
EndSplineSet
EndChar

StartChar: uni040E
Encoding: 1038 1038 290
Width: 586
GlyphClass: 1
Flags: W
LayerCount: 2
Fore
SplineSet
241 -12 m 1,0,-1
 237 331 l 1,1,-1
 151 350 l 1,2,-1
 151 440 l 1,3,-1
 61 416 l 1,4,-1
 60 631 l 1,5,-1
 188 638 l 1,6,-1
 161 450 l 1,7,-1
 251 450 l 1,8,-1
 276 381 l 1,9,-1
 333 359 l 1,10,-1
 326 467 l 1,11,-1
 423 450 l 1,12,-1
 414 638 l 1,13,-1
 525 631 l 1,14,-1
 542 416 l 1,15,-1
 433 440 l 1,16,-1
 433 350 l 1,17,-1
 343 350 l 1,18,-1
 365 -11 l 1,19,-1
 241 -12 l 1,0,-1
169 691 m 1,20,-1
 167 790 l 1,21,-1
 224 792 l 1,22,-1
 249 747 l 1,23,-1
 368 746 l 1,24,-1
 360 790 l 1,25,-1
 422 792 l 1,26,-1
 442 653 l 1,27,-1
 169 691 l 1,20,-1
EndSplineSet
EndChar

StartChar: uni0424
Encoding: 1060 1060 291
Width: 586
GlyphClass: 1
Flags: W
LayerCount: 2
Fore
SplineSet
238 -12 m 1,0,-1
 234 73 l 1,1,-1
 151 77 l 1,2,-1
 151 167 l 1,3,-1
 61 158 l 1,4,-1
 60 448 l 1,5,-1
 149 465 l 1,6,-1
 151 539 l 1,7,-1
 238 539 l 1,8,-1
 234 638 l 1,9,-1
 340 631 l 1,10,-1
 362 551 l 1,11,-1
 433 539 l 1,12,-1
 453 465 l 1,13,-1
 525 448 l 1,14,-1
 542 158 l 1,15,-1
 433 167 l 1,16,-1
 453 73 l 1,17,-1
 340 77 l 1,18,-1
 362 -11 l 1,19,-1
 238 -12 l 1,0,-1
161 177 m 1,20,-1
 234 209 l 1,21,-1
 238 438 l 1,22,-1
 188 414 l 1,23,-1
 161 177 l 1,20,-1
340 177 m 1,24,-1
 414 209 l 1,25,-1
 423 438 l 1,26,-1
 362 414 l 1,27,-1
 340 177 l 1,24,-1
EndSplineSet
EndChar

StartChar: uni0425
Encoding: 1061 1061 292
Width: 586
GlyphClass: 1
Flags: W
LayerCount: 2
Fore
SplineSet
60 -12 m 1,0,-1
 61 125 l 1,1,-1
 151 88 l 1,2,-1
 151 270 l 1,3,-1
 237 297 l 1,4,-1
 241 350 l 1,5,-1
 149 331 l 1,6,-1
 151 530 l 1,7,-1
 61 501 l 1,8,-1
 60 631 l 1,9,-1
 188 638 l 1,10,-1
 161 540 l 1,11,-1
 251 540 l 1,12,-1
 276 381 l 1,13,-1
 333 359 l 1,14,-1
 326 552 l 1,15,-1
 423 540 l 1,16,-1
 414 638 l 1,17,-1
 525 631 l 1,18,-1
 542 501 l 1,19,-1
 433 530 l 1,20,-1
 433 350 l 1,21,-1
 365 331 l 1,22,-1
 343 270 l 1,23,-1
 453 297 l 1,24,-1
 433 88 l 1,25,-1
 542 125 l 1,26,-1
 525 -12 l 1,27,-1
 414 -11 l 1,28,-1
 423 78 l 1,29,-1
 333 78 l 1,30,-1
 326 246 l 1,31,-1
 251 260 l 1,32,-1
 276 74 l 1,33,-1
 161 78 l 1,34,-1
 188 -11 l 1,35,-1
 60 -12 l 1,0,-1
EndSplineSet
EndChar

StartChar: uni0427
Encoding: 1063 1063 293
Width: 586
GlyphClass: 1
Flags: W
LayerCount: 2
Fore
SplineSet
415 -12 m 1,0,-1
 424 258 l 1,1,-1
 151 258 l 1,2,-1
 149 330 l 1,3,-1
 60 349 l 1,4,-1
 61 637 l 1,5,-1
 161 630 l 1,6,-1
 188 380 l 1,7,-1
 424 358 l 1,8,-1
 415 637 l 1,9,-1
 542 637 l 1,10,-1
 525 -13 l 1,11,-1
 415 -12 l 1,0,-1
EndSplineSet
EndChar

StartChar: uni0426
Encoding: 1062 1062 294
Width: 586
GlyphClass: 1
Flags: W
LayerCount: 2
Fore
SplineSet
458 -96 m 1,0,-1
 458 -53 l 1,1,-1
 458 -54 l 1,2,-1
 515 -12 l 1,3,-1
 61 -11 l 1,4,-1
 60 629 l 1,5,-1
 188 636 l 1,6,-1
 161 89 l 1,7,-1
 414 126 l 1,8,-1
 423 629 l 1,9,-1
 542 636 l 1,10,-1
 525 -2 l 1,11,-1
 585 40 l 1,12,-1
 569 -56 l 1,13,-1
 542 -53 l 1,14,-1
 525 -102 l 1,15,-1
 458 -96 l 1,0,-1
EndSplineSet
EndChar

StartChar: uni0428
Encoding: 1064 1064 295
Width: 767
GlyphClass: 1
Flags: W
LayerCount: 2
Fore
SplineSet
151 -12 m 1,0,-1
 149 74 l 1,1,-1
 60 78 l 1,2,-1
 61 638 l 1,3,-1
 161 631 l 1,4,-1
 188 125 l 1,5,-1
 241 88 l 1,6,-1
 237 297 l 1,7,-1
 333 270 l 1,8,-1
 326 552 l 1,9,-1
 433 540 l 1,10,-1
 453 297 l 1,11,-1
 525 270 l 1,12,-1
 542 125 l 1,13,-1
 606 88 l 1,14,-1
 592 638 l 1,15,-1
 706 631 l 1,16,-1
 718 74 l 1,17,-1
 616 78 l 1,18,-1
 631 -11 l 1,19,-1
 515 -12 l 1,20,-1
 503 74 l 1,21,-1
 423 78 l 1,22,-1
 414 246 l 1,23,-1
 343 260 l 1,24,-1
 365 74 l 1,25,-1
 251 78 l 1,26,-1
 276 -11 l 1,27,-1
 151 -12 l 1,0,-1
EndSplineSet
EndChar

StartChar: uni0429
Encoding: 1065 1065 296
Width: 767
GlyphClass: 1
Flags: W
LayerCount: 2
Fore
SplineSet
651 -102 m 1,0,-1
 635 -53 l 1,1,-1
 635 -54 l 1,2,-1
 697 -12 l 1,3,-1
 503 -11 l 1,4,-1
 515 78 l 1,5,-1
 423 78 l 1,6,-1
 414 246 l 1,7,-1
 343 260 l 1,8,-1
 365 74 l 1,9,-1
 251 78 l 1,10,-1
 276 -11 l 1,11,-1
 151 -12 l 1,12,-1
 149 74 l 1,13,-1
 60 78 l 1,14,-1
 61 638 l 1,15,-1
 161 631 l 1,16,-1
 188 125 l 1,17,-1
 241 88 l 1,18,-1
 237 297 l 1,19,-1
 333 270 l 1,20,-1
 326 552 l 1,21,-1
 433 540 l 1,22,-1
 453 297 l 1,23,-1
 525 270 l 1,24,-1
 542 125 l 1,25,-1
 606 88 l 1,26,-1
 592 638 l 1,27,-1
 706 631 l 1,28,-1
 718 40 l 1,29,-1
 751 -2 l 1,30,-1
 762 -53 l 1,31,-1
 706 -56 l 1,32,-1
 718 -96 l 1,33,-1
 651 -102 l 1,0,-1
EndSplineSet
EndChar

StartChar: uni040F
Encoding: 1039 1039 297
Width: 586
GlyphClass: 1
Flags: W
LayerCount: 2
Fore
SplineSet
240 -103 m 1,0,-1
 236 -11 l 1,1,-1
 60 -12 l 1,2,-1
 61 637 l 1,3,-1
 161 630 l 1,4,-1
 188 126 l 1,5,-1
 423 89 l 1,6,-1
 414 637 l 1,7,-1
 525 630 l 1,8,-1
 542 -11 l 1,9,-1
 341 -12 l 1,10,-1
 363 -97 l 1,11,-1
 240 -103 l 1,0,-1
EndSplineSet
EndChar

StartChar: uni042C
Encoding: 1068 1068 298
Width: 586
GlyphClass: 1
Flags: W
LayerCount: 2
Fore
SplineSet
149 -11 m 1,0,-1
 151 78 l 1,1,-1
 61 74 l 1,2,-1
 60 631 l 1,3,-1
 188 638 l 1,4,-1
 161 450 l 1,5,-1
 433 450 l 1,6,-1
 433 359 l 1,7,-1
 542 381 l 1,8,-1
 525 78 l 1,9,-1
 453 74 l 1,10,-1
 433 -12 l 1,11,-1
 149 -11 l 1,0,-1
161 88 m 1,12,-1
 414 125 l 1,13,-1
 423 350 l 1,14,-1
 188 331 l 1,15,-1
 161 88 l 1,12,-1
EndSplineSet
EndChar

StartChar: uni042B
Encoding: 1067 1067 299
Width: 767
GlyphClass: 1
Flags: W
LayerCount: 2
Fore
SplineSet
149 -11 m 1,0,-1
 151 78 l 1,1,-1
 61 74 l 1,2,-1
 60 631 l 1,3,-1
 188 638 l 1,4,-1
 161 358 l 1,5,-1
 433 358 l 1,6,-1
 433 268 l 1,7,-1
 542 295 l 1,8,-1
 525 78 l 1,9,-1
 453 74 l 1,10,-1
 433 -12 l 1,11,-1
 149 -11 l 1,0,-1
161 88 m 1,12,-1
 414 125 l 1,13,-1
 423 258 l 1,14,-1
 188 244 l 1,15,-1
 161 88 l 1,12,-1
605 -12 m 1,16,-1
 591 467 l 1,17,-1
 706 450 l 1,18,-1
 718 -11 l 1,19,-1
 605 -12 l 1,16,-1
EndSplineSet
EndChar

StartChar: uni042A
Encoding: 1066 1066 300
Width: 585
GlyphClass: 1
Flags: W
LayerCount: 2
Fore
SplineSet
146 -11 m 1,0,-1
 151 78 l 1,1,-1
 60 78 l 1,2,-1
 60 530 l 1,3,-1
 -39 501 l 1,4,-1
 -40 631 l 1,5,-1
 283 638 l 1,6,-1
 262 530 l 1,7,-1
 185 501 l 1,8,-1
 161 450 l 1,9,-1
 450 467 l 1,10,-1
 433 359 l 1,11,-1
 539 381 l 1,12,-1
 525 78 l 1,13,-1
 450 74 l 1,14,-1
 433 -12 l 1,15,-1
 146 -11 l 1,0,-1
161 88 m 1,16,-1
 411 125 l 1,17,-1
 423 350 l 1,18,-1
 185 331 l 1,19,-1
 161 88 l 1,16,-1
EndSplineSet
EndChar

StartChar: uni0409
Encoding: 1033 1033 301
Width: 676
GlyphClass: 1
Flags: W
LayerCount: 2
Fore
SplineSet
60 -12 m 1,0,-1
 61 126 l 1,1,-1
 150 89 l 1,2,-1
 148 636 l 1,3,-1
 615 629 l 1,4,-1
 630 -11 l 1,5,-1
 514 -12 l 1,6,-1
 502 499 l 1,7,-1
 251 528 l 1,8,-1
 276 -11 l 1,9,-1
 60 -12 l 1,0,-1
EndSplineSet
EndChar

StartChar: uni040A
Encoding: 1034 1034 302
Width: 949
GlyphClass: 1
Flags: W
LayerCount: 2
Fore
SplineSet
61 -11 m 1,0,-1
 60 631 l 1,1,-1
 188 638 l 1,2,-1
 161 359 l 1,3,-1
 414 381 l 1,4,-1
 423 631 l 1,5,-1
 542 638 l 1,6,-1
 525 450 l 1,7,-1
 797 450 l 1,8,-1
 797 359 l 1,9,-1
 895 381 l 1,10,-1
 888 78 l 1,11,-1
 807 74 l 1,12,-1
 797 -12 l 1,13,-1
 414 -11 l 1,14,-1
 423 260 l 1,15,-1
 188 246 l 1,16,-1
 161 -12 l 1,17,-1
 61 -11 l 1,0,-1
525 88 m 1,18,-1
 768 125 l 1,19,-1
 787 350 l 1,20,-1
 542 331 l 1,21,-1
 525 88 l 1,18,-1
EndSplineSet
EndChar

StartChar: uni0405
Encoding: 1029 1029 303
Width: 586
GlyphClass: 1
Flags: W
LayerCount: 2
Fore
SplineSet
61 -11 m 1,0,-1
 60 88 l 1,1,-1
 414 125 l 1,2,-1
 423 169 l 1,3,-1
 149 160 l 1,4,-1
 151 260 l 1,5,-1
 61 246 l 1,6,-1
 60 359 l 1,7,-1
 149 381 l 1,8,-1
 151 450 l 1,9,-1
 542 467 l 1,10,-1
 525 350 l 1,11,-1
 188 331 l 1,12,-1
 161 270 l 1,13,-1
 453 297 l 1,14,-1
 433 179 l 1,15,-1
 542 211 l 1,16,-1
 525 78 l 1,17,-1
 453 74 l 1,18,-1
 433 -12 l 1,19,-1
 61 -11 l 1,0,-1
EndSplineSet
EndChar

StartChar: uni0404
Encoding: 1028 1028 304
Width: 586
GlyphClass: 1
Flags: W
LayerCount: 2
Fore
SplineSet
151 -12 m 1,0,-1
 149 74 l 1,1,-1
 60 78 l 1,2,-1
 61 297 l 1,3,-1
 151 270 l 1,4,-1
 149 331 l 1,5,-1
 60 350 l 1,6,-1
 61 552 l 1,7,-1
 151 540 l 1,8,-1
 149 638 l 1,9,-1
 433 631 l 1,10,-1
 453 552 l 1,11,-1
 525 540 l 1,12,-1
 542 416 l 1,13,-1
 423 440 l 1,14,-1
 414 501 l 1,15,-1
 161 530 l 1,16,-1
 188 381 l 1,17,-1
 433 359 l 1,18,-1
 453 246 l 1,19,-1
 161 260 l 1,20,-1
 188 125 l 1,21,-1
 423 88 l 1,22,-1
 414 211 l 1,23,-1
 525 179 l 1,24,-1
 542 74 l 1,25,-1
 433 78 l 1,26,-1
 453 -11 l 1,27,-1
 151 -12 l 1,0,-1
EndSplineSet
EndChar

StartChar: uni042D
Encoding: 1069 1069 305
Width: 586
GlyphClass: 1
Flags: W
LayerCount: 2
Fore
SplineSet
151 -12 m 1,0,-1
 149 74 l 1,1,-1
 60 78 l 1,2,-1
 61 211 l 1,3,-1
 161 179 l 1,4,-1
 188 125 l 1,5,-1
 423 88 l 1,6,-1
 414 246 l 1,7,-1
 151 260 l 1,8,-1
 149 381 l 1,9,-1
 423 359 l 1,10,-1
 414 501 l 1,11,-1
 161 530 l 1,12,-1
 188 416 l 1,13,-1
 60 440 l 1,14,-1
 61 552 l 1,15,-1
 151 540 l 1,16,-1
 149 638 l 1,17,-1
 433 631 l 1,18,-1
 453 552 l 1,19,-1
 525 540 l 1,20,-1
 542 331 l 1,21,-1
 433 350 l 1,22,-1
 453 297 l 1,23,-1
 525 270 l 1,24,-1
 542 74 l 1,25,-1
 433 78 l 1,26,-1
 453 -11 l 1,27,-1
 151 -12 l 1,0,-1
EndSplineSet
EndChar

StartChar: uni0407
Encoding: 1031 1031 306
Width: 280
GlyphClass: 1
Flags: W
LayerCount: 2
Fore
SplineSet
89 -12 m 1,0,-1
 86 466 l 1,1,-1
 191 449 l 1,2,-1
 214 -11 l 1,3,-1
 89 -12 l 1,0,-1
-20 529 m 1,4,-1
 -20 637 l 1,5,-1
 82 630 l 1,6,-1
 108 500 l 1,7,-1
 -20 529 l 1,4,-1
199 529 m 1,8,-1
 193 637 l 1,9,-1
 300 630 l 1,10,-1
 320 500 l 1,11,-1
 199 529 l 1,8,-1
EndSplineSet
EndChar

StartChar: uni0408
Encoding: 1032 1032 307
Width: 586
GlyphClass: 1
Flags: W
LayerCount: 2
Fore
SplineSet
151 -12 m 1,0,-1
 149 74 l 1,1,-1
 60 78 l 1,2,-1
 61 297 l 1,3,-1
 161 270 l 1,4,-1
 188 125 l 1,5,-1
 423 88 l 1,6,-1
 414 501 l 1,7,-1
 151 530 l 1,8,-1
 149 638 l 1,9,-1
 433 631 l 1,10,-1
 453 552 l 1,11,-1
 525 540 l 1,12,-1
 542 74 l 1,13,-1
 433 78 l 1,14,-1
 453 -11 l 1,15,-1
 151 -12 l 1,0,-1
EndSplineSet
EndChar

StartChar: uni040B
Encoding: 1035 1035 308
Width: 585
GlyphClass: 1
Flags: W
LayerCount: 2
Fore
SplineSet
60 -12 m 1,0,-1
 58 499 l 1,1,-1
 -40 528 l 1,2,-1
 -39 636 l 1,3,-1
 262 629 l 1,4,-1
 283 499 l 1,5,-1
 161 528 l 1,6,-1
 185 381 l 1,7,-1
 241 359 l 1,8,-1
 234 467 l 1,9,-1
 433 450 l 1,10,-1
 450 381 l 1,11,-1
 525 359 l 1,12,-1
 539 -11 l 1,13,-1
 423 -12 l 1,14,-1
 411 331 l 1,15,-1
 251 350 l 1,16,-1
 273 246 l 1,17,-1
 161 260 l 1,18,-1
 185 -11 l 1,19,-1
 60 -12 l 1,0,-1
EndSplineSet
EndChar

StartChar: Yucy
Encoding: 1070 1070 309
Width: 850
GlyphClass: 1
Flags: W
LayerCount: 2
Fore
SplineSet
60 -12 m 1,0,-1
 61 638 l 1,1,-1
 161 631 l 1,2,-1
 188 381 l 1,3,-1
 324 359 l 1,4,-1
 317 552 l 1,5,-1
 415 540 l 1,6,-1
 406 638 l 1,7,-1
 698 631 l 1,8,-1
 710 552 l 1,9,-1
 789 540 l 1,10,-1
 799 74 l 1,11,-1
 698 78 l 1,12,-1
 710 -11 l 1,13,-1
 415 -12 l 1,14,-1
 406 74 l 1,15,-1
 324 78 l 1,16,-1
 317 246 l 1,17,-1
 161 260 l 1,18,-1
 188 -11 l 1,19,-1
 60 -12 l 1,0,-1
425 88 m 1,20,-1
 671 125 l 1,21,-1
 688 530 l 1,22,-1
 445 501 l 1,23,-1
 425 88 l 1,20,-1
EndSplineSet
EndChar

StartChar: Yacy
Encoding: 1071 1071 310
Width: 586
GlyphClass: 1
Flags: W
LayerCount: 2
Fore
SplineSet
105 -12 m 1,0,-1
 105 125 l 1,1,-1
 196 88 l 1,2,-1
 193 160 l 1,3,-1
 151 169 l 1,4,-1
 151 260 l 1,5,-1
 61 246 l 1,6,-1
 60 540 l 1,7,-1
 149 552 l 1,8,-1
 151 631 l 1,9,-1
 453 638 l 1,10,-1
 433 540 l 1,11,-1
 542 552 l 1,12,-1
 525 -12 l 1,13,-1
 414 -11 l 1,14,-1
 423 169 l 1,15,-1
 320 160 l 1,16,-1
 297 78 l 1,17,-1
 206 78 l 1,18,-1
 232 -11 l 1,19,-1
 105 -12 l 1,0,-1
161 270 m 1,20,-1
 414 297 l 1,21,-1
 423 530 l 1,22,-1
 188 501 l 1,23,-1
 161 270 l 1,20,-1
EndSplineSet
EndChar

StartChar: uni0402
Encoding: 1026 1026 311
Width: 585
GlyphClass: 1
Flags: W
LayerCount: 2
Fore
SplineSet
146 -11 m 1,0,-1
 151 78 l 1,1,-1
 60 78 l 1,2,-1
 60 530 l 1,3,-1
 -39 501 l 1,4,-1
 -40 631 l 1,5,-1
 283 638 l 1,6,-1
 262 530 l 1,7,-1
 185 501 l 1,8,-1
 161 450 l 1,9,-1
 450 467 l 1,10,-1
 433 359 l 1,11,-1
 539 381 l 1,12,-1
 525 78 l 1,13,-1
 450 74 l 1,14,-1
 433 -12 l 1,15,-1
 146 -11 l 1,0,-1
161 88 m 1,16,-1
 411 125 l 1,17,-1
 423 350 l 1,18,-1
 185 331 l 1,19,-1
 161 88 l 1,16,-1
EndSplineSet
EndChar

StartChar: uni0430
Encoding: 1072 1072 312
Width: 677
GlyphClass: 1
Flags: W
LayerCount: 2
Fore
SplineSet
151 -12 m 1,0,-1
 150 75 l 1,1,-1
 60 78 l 1,2,-1
 60 318 l 1,3,-1
 423 306 l 1,4,-1
 417 337 l 1,5,-1
 60 350 l 1,6,-1
 60 457 l 1,7,-1
 433 450 l 1,8,-1
 456 369 l 1,9,-1
 525 359 l 1,10,-1
 547 108 l 1,11,-1
 616 88 l 1,12,-1
 636 -12 l 1,13,-1
 515 -12 l 1,14,-1
 507 75 l 1,15,-1
 433 78 l 1,16,-1
 456 -12 l 1,17,-1
 151 -12 l 1,0,-1
161 88 m 1,18,-1
 417 108 l 1,19,-1
 423 205 l 1,20,-1
 189 197 l 1,21,-1
 161 88 l 1,18,-1
EndSplineSet
EndChar

StartChar: uni0431
Encoding: 1073 1073 313
Width: 586
GlyphClass: 1
Flags: W
LayerCount: 2
Fore
SplineSet
149 -11 m 1,0,-1
 151 78 l 1,1,-1
 61 74 l 1,2,-1
 60 540 l 1,3,-1
 149 552 l 1,4,-1
 151 631 l 1,5,-1
 453 638 l 1,6,-1
 433 540 l 1,7,-1
 542 552 l 1,8,-1
 525 440 l 1,9,-1
 414 416 l 1,10,-1
 423 530 l 1,11,-1
 188 501 l 1,12,-1
 161 359 l 1,13,-1
 453 381 l 1,14,-1
 433 270 l 1,15,-1
 542 297 l 1,16,-1
 525 78 l 1,17,-1
 453 74 l 1,18,-1
 433 -12 l 1,19,-1
 149 -11 l 1,0,-1
161 88 m 1,20,-1
 414 125 l 1,21,-1
 423 260 l 1,22,-1
 188 246 l 1,23,-1
 161 88 l 1,20,-1
EndSplineSet
EndChar

StartChar: uni0432
Encoding: 1074 1074 314
Width: 586
GlyphClass: 1
Flags: W
LayerCount: 2
Fore
SplineSet
151 -12 m 1,0,-1
 149 74 l 1,1,-1
 60 78 l 1,2,-1
 61 381 l 1,3,-1
 151 359 l 1,4,-1
 149 467 l 1,5,-1
 433 450 l 1,6,-1
 453 381 l 1,7,-1
 525 359 l 1,8,-1
 542 244 l 1,9,-1
 433 258 l 1,10,-1
 453 210 l 1,11,-1
 525 178 l 1,12,-1
 542 74 l 1,13,-1
 433 78 l 1,14,-1
 453 -11 l 1,15,-1
 151 -12 l 1,0,-1
161 88 m 1,16,-1
 414 125 l 1,17,-1
 423 168 l 1,18,-1
 237 159 l 1,19,-1
 241 268 l 1,20,-1
 414 295 l 1,21,-1
 423 350 l 1,22,-1
 188 331 l 1,23,-1
 161 88 l 1,16,-1
EndSplineSet
EndChar

StartChar: uni0433
Encoding: 1075 1075 315
Width: 494
GlyphClass: 1
Flags: W
LayerCount: 2
Fore
SplineSet
60 -12 m 1,0,-1
 61 467 l 1,1,-1
 433 450 l 1,2,-1
 453 331 l 1,3,-1
 161 350 l 1,4,-1
 188 -11 l 1,5,-1
 60 -12 l 1,0,-1
EndSplineSet
EndChar

StartChar: uni0453
Encoding: 1107 1107 316
Width: 586
GlyphClass: 1
Flags: W
LayerCount: 2
Fore
SplineSet
60 -12 m 1,0,-1
 61 381 l 1,1,-1
 151 359 l 1,2,-1
 149 467 l 1,3,-1
 433 450 l 1,4,-1
 453 381 l 1,5,-1
 525 359 l 1,6,-1
 542 246 l 1,7,-1
 423 260 l 1,8,-1
 414 331 l 1,9,-1
 161 350 l 1,10,-1
 188 -11 l 1,11,-1
 60 -12 l 1,0,-1
217 510 m 1,12,-1
 221 595 l 1,13,-1
 260 604 l 1,14,-1
 265 641 l 1,15,-1
 310 641 l 1,16,-1
 304 690 l 1,17,-1
 365 686 l 1,18,-1
 386 596 l 1,19,-1
 320 631 l 1,20,-1
 320 585 l 1,21,-1
 299 553 l 1,22,-1
 275 540 l 1,23,-1
 217 510 l 1,12,-1
EndSplineSet
EndChar

StartChar: geupturncy
Encoding: 1169 1169 317
Width: 586
GlyphClass: 1
Flags: W
LayerCount: 2
Fore
SplineSet
241 -12 m 1,0,-1
 237 331 l 1,1,-1
 151 350 l 1,2,-1
 151 440 l 1,3,-1
 61 416 l 1,4,-1
 60 631 l 1,5,-1
 188 638 l 1,6,-1
 161 450 l 1,7,-1
 251 450 l 1,8,-1
 276 381 l 1,9,-1
 333 359 l 1,10,-1
 326 467 l 1,11,-1
 423 450 l 1,12,-1
 414 638 l 1,13,-1
 525 631 l 1,14,-1
 542 416 l 1,15,-1
 433 440 l 1,16,-1
 433 350 l 1,17,-1
 343 350 l 1,18,-1
 365 -11 l 1,19,-1
 241 -12 l 1,0,-1
EndSplineSet
EndChar

StartChar: uni0434
Encoding: 1076 1076 318
Width: 676
GlyphClass: 1
Flags: W
LayerCount: 2
Fore
SplineSet
60 -12 m 1,0,-1
 61 298 l 1,1,-1
 150 271 l 1,2,-1
 148 467 l 1,3,-1
 615 450 l 1,4,-1
 630 -11 l 1,5,-1
 514 -12 l 1,6,-1
 502 75 l 1,7,-1
 161 79 l 1,8,-1
 188 -11 l 1,9,-1
 60 -12 l 1,0,-1
251 180 m 1,10,-1
 502 212 l 1,11,-1
 514 350 l 1,12,-1
 276 331 l 1,13,-1
 251 180 l 1,10,-1
EndSplineSet
EndChar

StartChar: uni0435
Encoding: 1077 1077 319
Width: 586
GlyphClass: 1
Flags: W
LayerCount: 2
Fore
SplineSet
151 -12 m 1,0,-1
 149 74 l 1,1,-1
 60 78 l 1,2,-1
 61 381 l 1,3,-1
 151 359 l 1,4,-1
 149 467 l 1,5,-1
 433 450 l 1,6,-1
 453 381 l 1,7,-1
 525 359 l 1,8,-1
 542 246 l 1,9,-1
 423 260 l 1,10,-1
 414 331 l 1,11,-1
 161 350 l 1,12,-1
 188 297 l 1,13,-1
 343 270 l 1,14,-1
 365 160 l 1,15,-1
 161 169 l 1,16,-1
 188 125 l 1,17,-1
 423 88 l 1,18,-1
 414 212 l 1,19,-1
 525 180 l 1,20,-1
 542 75 l 1,21,-1
 433 79 l 1,22,-1
 453 -11 l 1,23,-1
 151 -12 l 1,0,-1
EndSplineSet
EndChar

StartChar: uni0451
Encoding: 1105 1105 320
Width: 586
GlyphClass: 1
Flags: W
LayerCount: 2
Fore
SplineSet
151 -12 m 1,0,-1
 149 74 l 1,1,-1
 60 78 l 1,2,-1
 61 381 l 1,3,-1
 151 359 l 1,4,-1
 149 467 l 1,5,-1
 433 450 l 1,6,-1
 453 381 l 1,7,-1
 525 359 l 1,8,-1
 542 246 l 1,9,-1
 423 260 l 1,10,-1
 414 331 l 1,11,-1
 161 350 l 1,12,-1
 188 297 l 1,13,-1
 343 270 l 1,14,-1
 365 160 l 1,15,-1
 161 169 l 1,16,-1
 188 125 l 1,17,-1
 423 88 l 1,18,-1
 414 212 l 1,19,-1
 525 180 l 1,20,-1
 542 75 l 1,21,-1
 433 79 l 1,22,-1
 453 -11 l 1,23,-1
 151 -12 l 1,0,-1
134 552 m 1,24,-1
 133 659 l 1,25,-1
 236 653 l 1,26,-1
 261 522 l 1,27,-1
 134 552 l 1,24,-1
347 552 m 1,28,-1
 340 659 l 1,29,-1
 448 653 l 1,30,-1
 467 522 l 1,31,-1
 347 552 l 1,28,-1
EndSplineSet
EndChar

StartChar: uni0436
Encoding: 1078 1078 321
Width: 760
GlyphClass: 1
Flags: W
LayerCount: 2
Fore
SplineSet
61 -11 m 1,0,-1
 60 57 l 1,1,-1
 118 96 l 1,2,-1
 119 117 l 1,3,-1
 180 117 l 1,4,-1
 177 202 l 1,5,-1
 238 170 l 1,6,-1
 234 254 l 1,7,-1
 179 269 l 1,8,-1
 179 328 l 1,9,-1
 118 328 l 1,10,-1
 117 366 l 1,11,-1
 60 387 l 1,12,-1
 61 467 l 1,13,-1
 128 450 l 1,14,-1
 156 417 l 1,15,-1
 189 397 l 1,16,-1
 189 338 l 1,17,-1
 248 338 l 1,18,-1
 273 304 l 1,19,-1
 329 278 l 1,20,-1
 322 467 l 1,21,-1
 430 450 l 1,22,-1
 450 304 l 1,23,-1
 511 278 l 1,24,-1
 499 361 l 1,25,-1
 570 338 l 1,26,-1
 570 397 l 1,27,-1
 616 417 l 1,28,-1
 631 450 l 1,29,-1
 712 467 l 1,30,-1
 700 387 l 1,31,-1
 655 366 l 1,32,-1
 641 328 l 1,33,-1
 580 328 l 1,34,-1
 580 269 l 1,35,-1
 538 254 l 1,36,-1
 521 170 l 1,37,-1
 595 202 l 1,38,-1
 579 117 l 1,39,-1
 640 117 l 1,40,-1
 640 57 l 1,41,-1
 712 96 l 1,42,-1
 700 -12 l 1,43,-1
 615 -11 l 1,44,-1
 630 47 l 1,45,-1
 569 47 l 1,46,-1
 556 101 l 1,47,-1
 511 107 l 1,48,-1
 499 151 l 1,49,-1
 430 160 l 1,50,-1
 450 -11 l 1,51,-1
 329 -12 l 1,52,-1
 322 151 l 1,53,-1
 248 160 l 1,54,-1
 273 101 l 1,55,-1
 190 107 l 1,56,-1
 190 47 l 1,57,-1
 157 45 l 1,58,-1
 129 -12 l 1,59,-1
 61 -11 l 1,0,-1
EndSplineSet
EndChar

StartChar: uni0437
Encoding: 1079 1079 322
Width: 586
GlyphClass: 1
Flags: W
LayerCount: 2
Fore
SplineSet
151 -12 m 1,0,-1
 149 75 l 1,1,-1
 60 79 l 1,2,-1
 61 212 l 1,3,-1
 161 180 l 1,4,-1
 188 125 l 1,5,-1
 423 88 l 1,6,-1
 414 160 l 1,7,-1
 241 169 l 1,8,-1
 237 297 l 1,9,-1
 423 270 l 1,10,-1
 414 331 l 1,11,-1
 161 350 l 1,12,-1
 188 246 l 1,13,-1
 60 260 l 1,14,-1
 61 381 l 1,15,-1
 151 359 l 1,16,-1
 149 467 l 1,17,-1
 433 450 l 1,18,-1
 453 381 l 1,19,-1
 525 359 l 1,20,-1
 542 74 l 1,21,-1
 433 78 l 1,22,-1
 453 -11 l 1,23,-1
 151 -12 l 1,0,-1
EndSplineSet
EndChar

StartChar: uni0438
Encoding: 1080 1080 323
Width: 556
GlyphClass: 1
Flags: W
LayerCount: 2
Fore
SplineSet
60 -12 m 1,0,-1
 61 467 l 1,1,-1
 161 450 l 1,2,-1
 188 211 l 1,3,-1
 241 179 l 1,4,-1
 237 297 l 1,5,-1
 333 270 l 1,6,-1
 333 359 l 1,7,-1
 423 359 l 1,8,-1
 414 467 l 1,9,-1
 525 450 l 1,10,-1
 542 -11 l 1,11,-1
 423 -12 l 1,12,-1
 414 246 l 1,13,-1
 343 260 l 1,14,-1
 365 160 l 1,15,-1
 251 169 l 1,16,-1
 251 78 l 1,17,-1
 161 78 l 1,18,-1
 188 -11 l 1,19,-1
 60 -12 l 1,0,-1
EndSplineSet
EndChar

StartChar: uni0439
Encoding: 1081 1081 324
Width: 586
GlyphClass: 1
Flags: W
LayerCount: 2
Fore
SplineSet
60 -12 m 1,0,-1
 61 468 l 1,1,-1
 161 451 l 1,2,-1
 188 211 l 1,3,-1
 241 179 l 1,4,-1
 237 298 l 1,5,-1
 333 271 l 1,6,-1
 333 360 l 1,7,-1
 423 360 l 1,8,-1
 414 468 l 1,9,-1
 525 451 l 1,10,-1
 542 -11 l 1,11,-1
 423 -12 l 1,12,-1
 414 247 l 1,13,-1
 343 261 l 1,14,-1
 365 160 l 1,15,-1
 251 169 l 1,16,-1
 251 78 l 1,17,-1
 161 78 l 1,18,-1
 188 -11 l 1,19,-1
 60 -12 l 1,0,-1
179 511 m 1,20,-1
 176 620 l 1,21,-1
 234 612 l 1,22,-1
 259 577 l 1,23,-1
 358 567 l 1,24,-1
 351 620 l 1,25,-1
 412 612 l 1,26,-1
 432 483 l 1,27,-1
 179 511 l 1,20,-1
EndSplineSet
EndChar

StartChar: uni043A
Encoding: 1082 1082 325
Width: 586
GlyphClass: 1
Flags: W
LayerCount: 2
Fore
SplineSet
60 -12 m 1,0,-1
 61 467 l 1,1,-1
 161 450 l 1,2,-1
 188 297 l 1,3,-1
 241 270 l 1,4,-1
 237 381 l 1,5,-1
 423 359 l 1,6,-1
 414 467 l 1,7,-1
 525 450 l 1,8,-1
 542 331 l 1,9,-1
 433 350 l 1,10,-1
 433 260 l 1,11,-1
 276 246 l 1,12,-1
 251 179 l 1,13,-1
 453 211 l 1,14,-1
 433 88 l 1,15,-1
 542 125 l 1,16,-1
 525 -12 l 1,17,-1
 414 -11 l 1,18,-1
 423 78 l 1,19,-1
 241 78 l 1,20,-1
 237 160 l 1,21,-1
 161 169 l 1,22,-1
 188 -11 l 1,23,-1
 60 -12 l 1,0,-1
EndSplineSet
EndChar

StartChar: uni045C
Encoding: 1116 1116 326
Width: 586
GlyphClass: 1
Flags: W
LayerCount: 2
Fore
SplineSet
60 -12 m 1,0,-1
 61 467 l 1,1,-1
 161 450 l 1,2,-1
 188 297 l 1,3,-1
 241 270 l 1,4,-1
 237 381 l 1,5,-1
 423 359 l 1,6,-1
 414 467 l 1,7,-1
 525 450 l 1,8,-1
 542 331 l 1,9,-1
 433 350 l 1,10,-1
 433 260 l 1,11,-1
 276 246 l 1,12,-1
 251 179 l 1,13,-1
 453 211 l 1,14,-1
 433 88 l 1,15,-1
 542 125 l 1,16,-1
 525 -12 l 1,17,-1
 414 -11 l 1,18,-1
 423 78 l 1,19,-1
 241 78 l 1,20,-1
 237 160 l 1,21,-1
 161 169 l 1,22,-1
 188 -11 l 1,23,-1
 60 -12 l 1,0,-1
217 510 m 1,24,-1
 221 595 l 1,25,-1
 260 604 l 1,26,-1
 265 641 l 1,27,-1
 310 641 l 1,28,-1
 304 690 l 1,29,-1
 365 686 l 1,30,-1
 386 596 l 1,31,-1
 320 631 l 1,32,-1
 320 585 l 1,33,-1
 299 553 l 1,34,-1
 275 540 l 1,35,-1
 217 510 l 1,24,-1
EndSplineSet
EndChar

StartChar: uni043B
Encoding: 1083 1083 327
Width: 676
GlyphClass: 1
Flags: W
LayerCount: 2
Fore
SplineSet
60 -12 m 1,0,-1
 61 126 l 1,1,-1
 150 89 l 1,2,-1
 148 466 l 1,3,-1
 615 449 l 1,4,-1
 630 -11 l 1,5,-1
 514 -12 l 1,6,-1
 502 330 l 1,7,-1
 251 349 l 1,8,-1
 276 -11 l 1,9,-1
 60 -12 l 1,0,-1
EndSplineSet
EndChar

StartChar: uni043C
Encoding: 1084 1084 328
Width: 767
GlyphClass: 1
Flags: W
LayerCount: 2
Fore
SplineSet
60 -12 m 1,0,-1
 61 381 l 1,1,-1
 151 359 l 1,2,-1
 149 467 l 1,3,-1
 251 450 l 1,4,-1
 276 381 l 1,5,-1
 343 359 l 1,6,-1
 365 211 l 1,7,-1
 423 179 l 1,8,-1
 414 381 l 1,9,-1
 515 359 l 1,10,-1
 503 467 l 1,11,-1
 616 450 l 1,12,-1
 631 381 l 1,13,-1
 706 359 l 1,14,-1
 718 -11 l 1,15,-1
 606 -12 l 1,16,-1
 592 331 l 1,17,-1
 525 350 l 1,18,-1
 542 160 l 1,19,-1
 433 169 l 1,20,-1
 453 74 l 1,21,-1
 333 78 l 1,22,-1
 326 160 l 1,23,-1
 241 169 l 1,24,-1
 237 331 l 1,25,-1
 161 350 l 1,26,-1
 188 -11 l 1,27,-1
 60 -12 l 1,0,-1
EndSplineSet
EndChar

StartChar: uni043D
Encoding: 1085 1085 329
Width: 586
GlyphClass: 1
Flags: W
LayerCount: 2
Fore
SplineSet
60 -12 m 1,0,-1
 61 468 l 1,1,-1
 161 451 l 1,2,-1
 188 286 l 1,3,-1
 423 259 l 1,4,-1
 414 468 l 1,5,-1
 525 451 l 1,6,-1
 542 -11 l 1,7,-1
 423 -12 l 1,8,-1
 414 150 l 1,9,-1
 161 159 l 1,10,-1
 188 -11 l 1,11,-1
 60 -12 l 1,0,-1
EndSplineSet
EndChar

StartChar: uni043E
Encoding: 1086 1086 330
Width: 586
GlyphClass: 1
Flags: W
LayerCount: 2
Fore
SplineSet
151 -12 m 1,0,-1
 149 74 l 1,1,-1
 60 78 l 1,2,-1
 61 381 l 1,3,-1
 151 359 l 1,4,-1
 149 467 l 1,5,-1
 433 450 l 1,6,-1
 453 381 l 1,7,-1
 525 359 l 1,8,-1
 542 74 l 1,9,-1
 433 78 l 1,10,-1
 453 -11 l 1,11,-1
 151 -12 l 1,0,-1
161 88 m 1,12,-1
 414 125 l 1,13,-1
 423 350 l 1,14,-1
 188 331 l 1,15,-1
 161 88 l 1,12,-1
EndSplineSet
EndChar

StartChar: uni043F
Encoding: 1087 1087 331
Width: 586
GlyphClass: 1
Flags: W
LayerCount: 2
Fore
SplineSet
60 -12 m 1,0,-1
 61 467 l 1,1,-1
 525 450 l 1,2,-1
 542 -11 l 1,3,-1
 423 -12 l 1,4,-1
 414 331 l 1,5,-1
 161 350 l 1,6,-1
 188 -11 l 1,7,-1
 60 -12 l 1,0,-1
EndSplineSet
EndChar

StartChar: uni0440
Encoding: 1088 1088 332
Width: 586
GlyphClass: 1
Flags: W
LayerCount: 2
Fore
SplineSet
60 -188 m 1,0,-1
 61 381 l 1,1,-1
 151 359 l 1,2,-1
 149 467 l 1,3,-1
 433 450 l 1,4,-1
 453 381 l 1,5,-1
 525 359 l 1,6,-1
 542 74 l 1,7,-1
 433 78 l 1,8,-1
 433 -12 l 1,9,-1
 161 -12 l 1,10,-1
 188 -177 l 1,11,-1
 60 -188 l 1,0,-1
161 88 m 1,12,-1
 414 125 l 1,13,-1
 423 350 l 1,14,-1
 188 331 l 1,15,-1
 161 88 l 1,12,-1
EndSplineSet
EndChar

StartChar: uni0441
Encoding: 1089 1089 333
Width: 586
GlyphClass: 1
Flags: W
LayerCount: 2
Fore
SplineSet
151 -12 m 1,0,-1
 149 74 l 1,1,-1
 60 78 l 1,2,-1
 61 381 l 1,3,-1
 151 359 l 1,4,-1
 149 467 l 1,5,-1
 433 450 l 1,6,-1
 453 381 l 1,7,-1
 525 359 l 1,8,-1
 542 246 l 1,9,-1
 423 260 l 1,10,-1
 414 331 l 1,11,-1
 161 350 l 1,12,-1
 188 125 l 1,13,-1
 423 88 l 1,14,-1
 414 211 l 1,15,-1
 525 179 l 1,16,-1
 542 74 l 1,17,-1
 433 78 l 1,18,-1
 453 -11 l 1,19,-1
 151 -12 l 1,0,-1
EndSplineSet
EndChar

StartChar: uni0442
Encoding: 1090 1090 334
Width: 586
GlyphClass: 1
Flags: W
LayerCount: 2
Fore
SplineSet
241 -12 m 1,0,-1
 237 332 l 1,1,-1
 161 351 l 1,2,-1
 188 247 l 1,3,-1
 60 261 l 1,4,-1
 61 382 l 1,5,-1
 151 360 l 1,6,-1
 149 468 l 1,7,-1
 433 451 l 1,8,-1
 453 382 l 1,9,-1
 525 360 l 1,10,-1
 542 247 l 1,11,-1
 423 261 l 1,12,-1
 414 332 l 1,13,-1
 343 351 l 1,14,-1
 365 -11 l 1,15,-1
 241 -12 l 1,0,-1
EndSplineSet
EndChar

StartChar: uni0443
Encoding: 1091 1091 335
Width: 586
GlyphClass: 1
Flags: W
LayerCount: 2
Fore
SplineSet
149 -182 m 1,0,-1
 151 -103 l 1,1,-1
 61 -97 l 1,2,-1
 60 -3 l 1,3,-1
 188 39 l 1,4,-1
 161 -93 l 1,5,-1
 415 -46 l 1,6,-1
 424 78 l 1,7,-1
 149 74 l 1,8,-1
 151 169 l 1,9,-1
 61 160 l 1,10,-1
 60 450 l 1,11,-1
 188 467 l 1,12,-1
 161 179 l 1,13,-1
 415 211 l 1,14,-1
 424 450 l 1,15,-1
 542 467 l 1,16,-1
 525 -103 l 1,17,-1
 454 -97 l 1,18,-1
 434 -193 l 1,19,-1
 149 -182 l 1,0,-1
EndSplineSet
EndChar

StartChar: uni045E
Encoding: 1118 1118 336
Width: 586
GlyphClass: 1
Flags: W
LayerCount: 2
Fore
SplineSet
149 -182 m 1,0,-1
 151 -103 l 1,1,-1
 61 -97 l 1,2,-1
 60 -3 l 1,3,-1
 188 39 l 1,4,-1
 161 -93 l 1,5,-1
 415 -46 l 1,6,-1
 424 78 l 1,7,-1
 149 74 l 1,8,-1
 151 169 l 1,9,-1
 61 160 l 1,10,-1
 60 450 l 1,11,-1
 188 467 l 1,12,-1
 161 179 l 1,13,-1
 415 211 l 1,14,-1
 424 450 l 1,15,-1
 542 467 l 1,16,-1
 525 -103 l 1,17,-1
 454 -97 l 1,18,-1
 434 -193 l 1,19,-1
 149 -182 l 1,0,-1
169 540 m 1,20,-1
 167 647 l 1,21,-1
 224 641 l 1,22,-1
 249 604 l 1,23,-1
 368 595 l 1,24,-1
 360 647 l 1,25,-1
 422 641 l 1,26,-1
 442 510 l 1,27,-1
 169 540 l 1,20,-1
EndSplineSet
EndChar

StartChar: uni0444
Encoding: 1092 1092 337
Width: 504
GlyphClass: 1
Flags: W
LayerCount: 2
Fore
SplineSet
183 -12 m 1,0,-1
 179 98 l 1,1,-1
 111 103 l 1,2,-1
 111 183 l 1,3,-1
 31 173 l 1,4,-1
 30 432 l 1,5,-1
 109 450 l 1,6,-1
 111 513 l 1,7,-1
 179 526 l 1,8,-1
 183 631 l 1,9,-1
 307 638 l 1,10,-1
 284 513 l 1,11,-1
 383 526 l 1,12,-1
 362 432 l 1,13,-1
 461 450 l 1,14,-1
 443 183 l 1,15,-1
 383 173 l 1,16,-1
 362 103 l 1,17,-1
 284 103 l 1,18,-1
 307 -11 l 1,19,-1
 183 -12 l 1,0,-1
121 193 m 1,20,-1
 179 224 l 1,21,-1
 183 423 l 1,22,-1
 148 400 l 1,23,-1
 121 193 l 1,20,-1
284 193 m 1,24,-1
 344 224 l 1,25,-1
 352 423 l 1,26,-1
 307 400 l 1,27,-1
 284 193 l 1,24,-1
EndSplineSet
EndChar

StartChar: uni0445
Encoding: 1093 1093 338
Width: 586
GlyphClass: 1
Flags: W
LayerCount: 2
Fore
SplineSet
60 -12 m 1,0,-1
 61 125 l 1,1,-1
 151 88 l 1,2,-1
 151 179 l 1,3,-1
 237 211 l 1,4,-1
 241 260 l 1,5,-1
 149 246 l 1,6,-1
 151 350 l 1,7,-1
 61 331 l 1,8,-1
 60 450 l 1,9,-1
 188 467 l 1,10,-1
 161 359 l 1,11,-1
 251 359 l 1,12,-1
 276 297 l 1,13,-1
 333 270 l 1,14,-1
 326 381 l 1,15,-1
 423 359 l 1,16,-1
 414 467 l 1,17,-1
 525 450 l 1,18,-1
 542 331 l 1,19,-1
 433 350 l 1,20,-1
 433 260 l 1,21,-1
 365 246 l 1,22,-1
 343 179 l 1,23,-1
 453 211 l 1,24,-1
 433 88 l 1,25,-1
 542 125 l 1,26,-1
 525 -12 l 1,27,-1
 414 -11 l 1,28,-1
 423 78 l 1,29,-1
 333 78 l 1,30,-1
 326 160 l 1,31,-1
 251 169 l 1,32,-1
 276 74 l 1,33,-1
 161 78 l 1,34,-1
 188 -11 l 1,35,-1
 60 -12 l 1,0,-1
EndSplineSet
EndChar

StartChar: uni0447
Encoding: 1095 1095 339
Width: 586
GlyphClass: 1
Flags: W
LayerCount: 2
Fore
SplineSet
415 -12 m 1,0,-1
 424 78 l 1,1,-1
 151 78 l 1,2,-1
 151 169 l 1,3,-1
 61 160 l 1,4,-1
 60 450 l 1,5,-1
 188 467 l 1,6,-1
 161 179 l 1,7,-1
 415 211 l 1,8,-1
 424 450 l 1,9,-1
 542 467 l 1,10,-1
 525 -13 l 1,11,-1
 415 -12 l 1,0,-1
EndSplineSet
EndChar

StartChar: uni0446
Encoding: 1094 1094 340
Width: 599
GlyphClass: 1
Flags: W
LayerCount: 2
Fore
SplineSet
457 -96 m 1,0,-1
 457 -53 l 1,1,-1
 457 -54 l 1,2,-1
 514 -12 l 1,3,-1
 61 -11 l 1,4,-1
 60 450 l 1,5,-1
 188 467 l 1,6,-1
 161 89 l 1,7,-1
 414 126 l 1,8,-1
 423 450 l 1,9,-1
 542 467 l 1,10,-1
 525 -2 l 1,11,-1
 584 40 l 1,12,-1
 568 -56 l 1,13,-1
 541 -53 l 1,14,-1
 524 -102 l 1,15,-1
 457 -96 l 1,0,-1
EndSplineSet
EndChar

StartChar: uni0448
Encoding: 1096 1096 341
Width: 767
GlyphClass: 1
Flags: W
LayerCount: 2
Fore
SplineSet
60 -12 m 1,0,-1
 61 467 l 1,1,-1
 161 450 l 1,2,-1
 188 125 l 1,3,-1
 333 88 l 1,4,-1
 326 467 l 1,5,-1
 433 450 l 1,6,-1
 453 125 l 1,7,-1
 606 88 l 1,8,-1
 592 467 l 1,9,-1
 706 450 l 1,10,-1
 718 -11 l 1,11,-1
 423 -12 l 1,12,-1
 414 74 l 1,13,-1
 343 78 l 1,14,-1
 365 -11 l 1,15,-1
 60 -12 l 1,0,-1
EndSplineSet
EndChar

StartChar: uni0449
Encoding: 1097 1097 342
Width: 767
GlyphClass: 1
Flags: W
LayerCount: 2
Fore
SplineSet
635 -96 m 1,0,-1
 635 -53 l 1,1,-1
 635 -54 l 1,2,-1
 697 -12 l 1,3,-1
 414 -11 l 1,4,-1
 423 78 l 1,5,-1
 365 74 l 1,6,-1
 343 -12 l 1,7,-1
 61 -11 l 1,8,-1
 60 450 l 1,9,-1
 188 467 l 1,10,-1
 161 88 l 1,11,-1
 326 125 l 1,12,-1
 333 450 l 1,13,-1
 453 467 l 1,14,-1
 433 88 l 1,15,-1
 592 125 l 1,16,-1
 606 450 l 1,17,-1
 718 467 l 1,18,-1
 706 -2 l 1,19,-1
 762 40 l 1,20,-1
 751 -56 l 1,21,-1
 718 -53 l 1,22,-1
 706 -102 l 1,23,-1
 635 -96 l 1,0,-1
EndSplineSet
EndChar

StartChar: uni045F
Encoding: 1119 1119 343
Width: 586
GlyphClass: 1
Flags: W
LayerCount: 2
Fore
SplineSet
240 -103 m 1,0,-1
 236 -11 l 1,1,-1
 60 -12 l 1,2,-1
 61 466 l 1,3,-1
 161 449 l 1,4,-1
 188 126 l 1,5,-1
 423 89 l 1,6,-1
 414 466 l 1,7,-1
 525 449 l 1,8,-1
 542 -11 l 1,9,-1
 341 -12 l 1,10,-1
 363 -97 l 1,11,-1
 240 -103 l 1,0,-1
EndSplineSet
EndChar

StartChar: uni044C
Encoding: 1100 1100 344
Width: 585
GlyphClass: 1
Flags: W
LayerCount: 2
Fore
SplineSet
91 -12 m 1,0,-1
 89 74 l 1,1,-1
 0 78 l 1,2,-1
 0 638 l 1,3,-1
 101 631 l 1,4,-1
 128 467 l 1,5,-1
 373 450 l 1,6,-1
 392 381 l 1,7,-1
 465 359 l 1,8,-1
 482 74 l 1,9,-1
 373 78 l 1,10,-1
 392 -11 l 1,11,-1
 91 -12 l 1,0,-1
101 88 m 1,12,-1
 353 125 l 1,13,-1
 363 350 l 1,14,-1
 128 331 l 1,15,-1
 101 88 l 1,12,-1
EndSplineSet
EndChar

StartChar: uni044B
Encoding: 1099 1099 345
Width: 767
GlyphClass: 1
Flags: W
LayerCount: 2
Fore
SplineSet
149 -11 m 1,0,-1
 151 78 l 1,1,-1
 61 74 l 1,2,-1
 60 631 l 1,3,-1
 188 638 l 1,4,-1
 161 450 l 1,5,-1
 433 450 l 1,6,-1
 433 359 l 1,7,-1
 542 381 l 1,8,-1
 525 78 l 1,9,-1
 453 74 l 1,10,-1
 433 -12 l 1,11,-1
 149 -11 l 1,0,-1
161 88 m 1,12,-1
 414 125 l 1,13,-1
 423 350 l 1,14,-1
 188 331 l 1,15,-1
 161 88 l 1,12,-1
605 -12 m 1,16,-1
 591 638 l 1,17,-1
 706 631 l 1,18,-1
 718 -11 l 1,19,-1
 605 -12 l 1,16,-1
EndSplineSet
EndChar

StartChar: uni044A
Encoding: 1098 1098 346
Width: 585
GlyphClass: 1
Flags: W
LayerCount: 2
Fore
SplineSet
147 -11 m 1,0,-1
 151 78 l 1,1,-1
 60 78 l 1,2,-1
 59 501 l 1,3,-1
 0 530 l 1,4,-1
 0 638 l 1,5,-1
 161 631 l 1,6,-1
 186 467 l 1,7,-1
 433 450 l 1,8,-1
 433 359 l 1,9,-1
 540 381 l 1,10,-1
 525 78 l 1,11,-1
 451 74 l 1,12,-1
 433 -12 l 1,13,-1
 147 -11 l 1,0,-1
161 88 m 1,14,-1
 412 125 l 1,15,-1
 423 350 l 1,16,-1
 186 331 l 1,17,-1
 161 88 l 1,14,-1
EndSplineSet
EndChar

StartChar: uni0459
Encoding: 1113 1113 347
Width: 939
GlyphClass: 1
Flags: W
LayerCount: 2
Fore
SplineSet
61 -11 m 1,0,-1
 60 89 l 1,1,-1
 148 126 l 1,2,-1
 150 449 l 1,3,-1
 532 466 l 1,4,-1
 515 358 l 1,5,-1
 787 358 l 1,6,-1
 787 268 l 1,7,-1
 885 295 l 1,8,-1
 878 78 l 1,9,-1
 797 74 l 1,10,-1
 787 -12 l 1,11,-1
 404 -11 l 1,12,-1
 413 349 l 1,13,-1
 276 330 l 1,14,-1
 251 -12 l 1,15,-1
 61 -11 l 1,0,-1
515 88 m 1,16,-1
 758 125 l 1,17,-1
 777 258 l 1,18,-1
 532 244 l 1,19,-1
 515 88 l 1,16,-1
EndSplineSet
EndChar

StartChar: uni045A
Encoding: 1114 1114 348
Width: 850
GlyphClass: 1
Flags: W
LayerCount: 2
Fore
SplineSet
61 -11 m 1,0,-1
 60 451 l 1,1,-1
 188 468 l 1,2,-1
 161 259 l 1,3,-1
 317 286 l 1,4,-1
 324 451 l 1,5,-1
 445 468 l 1,6,-1
 425 358 l 1,7,-1
 698 358 l 1,8,-1
 710 295 l 1,9,-1
 789 268 l 1,10,-1
 799 74 l 1,11,-1
 698 78 l 1,12,-1
 710 -11 l 1,13,-1
 324 -12 l 1,14,-1
 317 150 l 1,15,-1
 188 150 l 1,16,-1
 161 -12 l 1,17,-1
 61 -11 l 1,0,-1
425 88 m 1,18,-1
 671 125 l 1,19,-1
 688 258 l 1,20,-1
 445 244 l 1,21,-1
 425 88 l 1,18,-1
EndSplineSet
EndChar

StartChar: uni0455
Encoding: 1109 1109 349
Width: 586
GlyphClass: 1
Flags: W
LayerCount: 2
Fore
SplineSet
61 -11 m 1,0,-1
 60 88 l 1,1,-1
 414 125 l 1,2,-1
 423 169 l 1,3,-1
 149 160 l 1,4,-1
 151 260 l 1,5,-1
 61 246 l 1,6,-1
 60 359 l 1,7,-1
 149 381 l 1,8,-1
 151 450 l 1,9,-1
 542 467 l 1,10,-1
 525 350 l 1,11,-1
 188 331 l 1,12,-1
 161 270 l 1,13,-1
 453 297 l 1,14,-1
 433 179 l 1,15,-1
 542 211 l 1,16,-1
 525 78 l 1,17,-1
 453 74 l 1,18,-1
 433 -12 l 1,19,-1
 61 -11 l 1,0,-1
EndSplineSet
EndChar

StartChar: uni0454
Encoding: 1108 1108 350
Width: 586
GlyphClass: 1
Flags: W
LayerCount: 2
Fore
SplineSet
151 -12 m 1,0,-1
 149 74 l 1,1,-1
 60 78 l 1,2,-1
 61 381 l 1,3,-1
 151 359 l 1,4,-1
 149 467 l 1,5,-1
 433 450 l 1,6,-1
 453 381 l 1,7,-1
 525 359 l 1,8,-1
 542 246 l 1,9,-1
 423 260 l 1,10,-1
 414 331 l 1,11,-1
 161 350 l 1,12,-1
 188 297 l 1,13,-1
 343 270 l 1,14,-1
 365 160 l 1,15,-1
 161 169 l 1,16,-1
 188 125 l 1,17,-1
 423 88 l 1,18,-1
 414 212 l 1,19,-1
 525 180 l 1,20,-1
 542 75 l 1,21,-1
 433 79 l 1,22,-1
 453 -11 l 1,23,-1
 151 -12 l 1,0,-1
EndSplineSet
EndChar

StartChar: uni044D
Encoding: 1101 1101 351
Width: 586
GlyphClass: 1
Flags: W
LayerCount: 2
Fore
SplineSet
151 -12 m 1,0,-1
 149 75 l 1,1,-1
 60 79 l 1,2,-1
 61 212 l 1,3,-1
 161 180 l 1,4,-1
 188 125 l 1,5,-1
 423 88 l 1,6,-1
 414 160 l 1,7,-1
 241 169 l 1,8,-1
 237 297 l 1,9,-1
 423 270 l 1,10,-1
 414 331 l 1,11,-1
 161 350 l 1,12,-1
 188 246 l 1,13,-1
 60 260 l 1,14,-1
 61 381 l 1,15,-1
 151 359 l 1,16,-1
 149 467 l 1,17,-1
 433 450 l 1,18,-1
 453 381 l 1,19,-1
 525 359 l 1,20,-1
 542 74 l 1,21,-1
 433 78 l 1,22,-1
 453 -11 l 1,23,-1
 151 -12 l 1,0,-1
EndSplineSet
EndChar

StartChar: uni0456
Encoding: 1110 1110 352
Width: 222
GlyphClass: 1
Flags: W
LayerCount: 2
Fore
SplineSet
60 -12 m 1,0,-1
 61 467 l 1,1,-1
 161 450 l 1,2,-1
 188 -11 l 1,3,-1
 60 -12 l 1,0,-1
60 530 m 1,4,-1
 61 638 l 1,5,-1
 161 631 l 1,6,-1
 188 501 l 1,7,-1
 60 530 l 1,4,-1
EndSplineSet
EndChar

StartChar: uni0457
Encoding: 1111 1111 353
Width: 340
GlyphClass: 1
Flags: W
LayerCount: 2
Fore
SplineSet
119 -12 m 1,0,-1
 116 297 l 1,1,-1
 221 270 l 1,2,-1
 244 -11 l 1,3,-1
 119 -12 l 1,0,-1
10 350 m 1,4,-1
 10 467 l 1,5,-1
 111 450 l 1,6,-1
 138 331 l 1,7,-1
 10 350 l 1,4,-1
229 350 m 1,8,-1
 223 467 l 1,9,-1
 330 450 l 1,10,-1
 350 331 l 1,11,-1
 229 350 l 1,8,-1
EndSplineSet
EndChar

StartChar: uni0458
Encoding: 1112 1112 354
Width: 495
GlyphClass: 1
Flags: W
LayerCount: 2
Fore
SplineSet
151 -13 m 1,0,-1
 149 74 l 1,1,-1
 60 78 l 1,2,-1
 61 211 l 1,3,-1
 161 179 l 1,4,-1
 188 125 l 1,5,-1
 333 88 l 1,6,-1
 326 467 l 1,7,-1
 434 450 l 1,8,-1
 454 74 l 1,9,-1
 343 78 l 1,10,-1
 365 -12 l 1,11,-1
 151 -13 l 1,0,-1
EndSplineSet
EndChar

StartChar: uni045B
Encoding: 1115 1115 355
Width: 586
GlyphClass: 1
Flags: W
LayerCount: 2
Fore
SplineSet
60 -12 m 1,0,-1
 60 636 l 1,1,-1
 262 629 l 1,2,-1
 285 499 l 1,3,-1
 161 528 l 1,4,-1
 187 381 l 1,5,-1
 241 359 l 1,6,-1
 236 467 l 1,7,-1
 433 450 l 1,8,-1
 452 381 l 1,9,-1
 525 359 l 1,10,-1
 541 -11 l 1,11,-1
 423 -12 l 1,12,-1
 413 331 l 1,13,-1
 251 350 l 1,14,-1
 275 246 l 1,15,-1
 161 260 l 1,16,-1
 187 -11 l 1,17,-1
 60 -12 l 1,0,-1
EndSplineSet
EndChar

StartChar: yucy
Encoding: 1102 1102 356
Width: 849
GlyphClass: 1
Flags: W
LayerCount: 2
Fore
SplineSet
60 -12 m 1,0,-1
 61 468 l 1,1,-1
 161 451 l 1,2,-1
 188 286 l 1,3,-1
 323 259 l 1,4,-1
 316 381 l 1,5,-1
 414 359 l 1,6,-1
 405 467 l 1,7,-1
 697 450 l 1,8,-1
 709 381 l 1,9,-1
 788 359 l 1,10,-1
 798 74 l 1,11,-1
 697 78 l 1,12,-1
 709 -11 l 1,13,-1
 414 -12 l 1,14,-1
 405 74 l 1,15,-1
 323 78 l 1,16,-1
 316 150 l 1,17,-1
 161 159 l 1,18,-1
 188 -11 l 1,19,-1
 60 -12 l 1,0,-1
424 88 m 1,20,-1
 670 125 l 1,21,-1
 687 350 l 1,22,-1
 444 331 l 1,23,-1
 424 88 l 1,20,-1
EndSplineSet
EndChar

StartChar: yacy
Encoding: 1103 1103 357
Width: 586
GlyphClass: 1
Flags: W
LayerCount: 2
Fore
SplineSet
105 -12 m 1,0,-1
 105 125 l 1,1,-1
 196 88 l 1,2,-1
 193 161 l 1,3,-1
 151 170 l 1,4,-1
 151 261 l 1,5,-1
 61 247 l 1,6,-1
 60 359 l 1,7,-1
 149 381 l 1,8,-1
 151 450 l 1,9,-1
 453 467 l 1,10,-1
 433 359 l 1,11,-1
 542 381 l 1,12,-1
 525 -12 l 1,13,-1
 414 -11 l 1,14,-1
 423 170 l 1,15,-1
 320 161 l 1,16,-1
 297 78 l 1,17,-1
 206 78 l 1,18,-1
 232 -11 l 1,19,-1
 105 -12 l 1,0,-1
161 271 m 1,20,-1
 414 298 l 1,21,-1
 423 350 l 1,22,-1
 188 331 l 1,23,-1
 161 271 l 1,20,-1
EndSplineSet
EndChar

StartChar: uni0452
Encoding: 1106 1106 358
Width: 615
GlyphClass: 1
Flags: W
LayerCount: 2
Fore
SplineSet
268 -289 m 1,0,-1
 271 -156 l 1,1,-1
 179 -200 l 1,2,-1
 180 -55 l 1,3,-1
 308 -79 l 1,4,-1
 281 -146 l 1,5,-1
 447 -168 l 1,6,-1
 453 350 l 1,7,-1
 308 339 l 1,8,-1
 281 260 l 1,9,-1
 191 260 l 1,10,-1
 219 -12 l 1,11,-1
 89 -12 l 1,12,-1
 89 482 l 1,13,-1
 60 498 l 1,14,-1
 60 598 l 1,15,-1
 89 603 l 1,16,-1
 89 631 l 1,17,-1
 219 635 l 1,18,-1
 191 598 l 1,19,-1
 318 603 l 1,20,-1
 292 498 l 1,21,-1
 219 482 l 1,22,-1
 191 359 l 1,23,-1
 268 371 l 1,24,-1
 271 450 l 1,25,-1
 487 459 l 1,26,-1
 463 359 l 1,27,-1
 576 371 l 1,28,-1
 554 -156 l 1,29,-1
 487 -200 l 1,30,-1
 463 -247 l 1,31,-1
 268 -289 l 1,0,-1
EndSplineSet
EndChar

StartChar: Alpha
Encoding: 913 913 359
Width: 586
GlyphClass: 1
Flags: W
LayerCount: 2
Fore
SplineSet
61 -11 m 1,0,-1
 60 450 l 1,1,-1
 149 467 l 1,2,-1
 151 540 l 1,3,-1
 241 540 l 1,4,-1
 237 638 l 1,5,-1
 343 631 l 1,6,-1
 365 552 l 1,7,-1
 433 540 l 1,8,-1
 433 450 l 1,9,-1
 542 467 l 1,10,-1
 525 -12 l 1,11,-1
 414 -11 l 1,12,-1
 423 169 l 1,13,-1
 188 160 l 1,14,-1
 161 -12 l 1,15,-1
 61 -11 l 1,0,-1
161 270 m 1,16,-1
 414 297 l 1,17,-1
 423 440 l 1,18,-1
 326 416 l 1,19,-1
 333 530 l 1,20,-1
 276 501 l 1,21,-1
 251 440 l 1,22,-1
 188 416 l 1,23,-1
 161 270 l 1,16,-1
EndSplineSet
EndChar

StartChar: Beta
Encoding: 914 914 360
Width: 586
GlyphClass: 1
Flags: W
LayerCount: 2
Fore
SplineSet
151 -12 m 1,0,-1
 149 74 l 1,1,-1
 60 78 l 1,2,-1
 61 552 l 1,3,-1
 151 540 l 1,4,-1
 149 638 l 1,5,-1
 433 631 l 1,6,-1
 453 552 l 1,7,-1
 525 540 l 1,8,-1
 542 331 l 1,9,-1
 433 350 l 1,10,-1
 453 297 l 1,11,-1
 525 270 l 1,12,-1
 542 74 l 1,13,-1
 433 78 l 1,14,-1
 453 -11 l 1,15,-1
 151 -12 l 1,0,-1
161 88 m 1,16,-1
 414 125 l 1,17,-1
 423 260 l 1,18,-1
 237 246 l 1,19,-1
 241 359 l 1,20,-1
 414 381 l 1,21,-1
 423 530 l 1,22,-1
 188 501 l 1,23,-1
 161 88 l 1,16,-1
EndSplineSet
EndChar

StartChar: Gamma
Encoding: 915 915 361
Width: 494
GlyphClass: 1
Flags: W
LayerCount: 2
Fore
SplineSet
60 -12 m 1,0,-1
 61 638 l 1,1,-1
 433 631 l 1,2,-1
 453 501 l 1,3,-1
 161 530 l 1,4,-1
 188 -11 l 1,5,-1
 60 -12 l 1,0,-1
EndSplineSet
EndChar

StartChar: Epsilon
Encoding: 917 917 362
Width: 586
GlyphClass: 1
Flags: W
LayerCount: 2
Fore
SplineSet
151 -12 m 1,0,-1
 149 74 l 1,1,-1
 60 78 l 1,2,-1
 61 552 l 1,3,-1
 151 540 l 1,4,-1
 149 638 l 1,5,-1
 433 631 l 1,6,-1
 453 552 l 1,7,-1
 525 540 l 1,8,-1
 542 416 l 1,9,-1
 423 440 l 1,10,-1
 414 501 l 1,11,-1
 161 530 l 1,12,-1
 188 381 l 1,13,-1
 343 359 l 1,14,-1
 365 246 l 1,15,-1
 161 260 l 1,16,-1
 188 125 l 1,17,-1
 423 88 l 1,18,-1
 414 211 l 1,19,-1
 525 179 l 1,20,-1
 542 74 l 1,21,-1
 433 78 l 1,22,-1
 453 -11 l 1,23,-1
 151 -12 l 1,0,-1
EndSplineSet
EndChar

StartChar: Zeta
Encoding: 918 918 363
Width: 586
GlyphClass: 1
Flags: W
LayerCount: 2
Fore
SplineSet
149 -11 m 1,0,-1
 151 78 l 1,1,-1
 61 74 l 1,2,-1
 60 270 l 1,3,-1
 149 297 l 1,4,-1
 151 359 l 1,5,-1
 414 381 l 1,6,-1
 423 530 l 1,7,-1
 188 501 l 1,8,-1
 161 440 l 1,9,-1
 61 416 l 1,10,-1
 60 631 l 1,11,-1
 453 638 l 1,12,-1
 433 540 l 1,13,-1
 542 552 l 1,14,-1
 525 350 l 1,15,-1
 453 331 l 1,16,-1
 433 260 l 1,17,-1
 188 246 l 1,18,-1
 161 88 l 1,19,-1
 414 125 l 1,20,-1
 423 179 l 1,21,-1
 542 211 l 1,22,-1
 525 -12 l 1,23,-1
 149 -11 l 1,0,-1
EndSplineSet
EndChar

StartChar: Eta
Encoding: 919 919 364
Width: 586
GlyphClass: 1
Flags: W
LayerCount: 2
Fore
SplineSet
60 -12 m 1,0,-1
 61 638 l 1,1,-1
 161 631 l 1,2,-1
 188 381 l 1,3,-1
 241 359 l 1,4,-1
 237 467 l 1,5,-1
 343 450 l 1,6,-1
 365 381 l 1,7,-1
 423 359 l 1,8,-1
 414 638 l 1,9,-1
 525 631 l 1,10,-1
 542 -11 l 1,11,-1
 423 -12 l 1,12,-1
 414 246 l 1,13,-1
 161 260 l 1,14,-1
 188 -11 l 1,15,-1
 60 -12 l 1,0,-1
EndSplineSet
EndChar

StartChar: Theta
Encoding: 920 920 365
Width: 586
GlyphClass: 1
Flags: W
LayerCount: 2
Fore
SplineSet
151 -12 m 1,0,-1
 149 74 l 1,1,-1
 60 78 l 1,2,-1
 61 552 l 1,3,-1
 151 540 l 1,4,-1
 149 638 l 1,5,-1
 433 631 l 1,6,-1
 453 552 l 1,7,-1
 525 540 l 1,8,-1
 542 74 l 1,9,-1
 433 78 l 1,10,-1
 453 -11 l 1,11,-1
 151 -12 l 1,0,-1
161 88 m 1,12,-1
 414 125 l 1,13,-1
 423 530 l 1,14,-1
 188 501 l 1,15,-1
 161 88 l 1,12,-1
223 269 m 1,16,-1
 219 357 l 1,17,-1
 362 334 l 1,18,-1
 384 254 l 1,19,-1
 223 269 l 1,16,-1
EndSplineSet
EndChar

StartChar: Iota
Encoding: 921 921 366
Width: 404
GlyphClass: 1
Flags: W
LayerCount: 2
Fore
SplineSet
60 -12 m 1,0,-1
 61 125 l 1,1,-1
 151 88 l 1,2,-1
 149 501 l 1,3,-1
 60 530 l 1,4,-1
 61 638 l 1,5,-1
 343 631 l 1,6,-1
 365 501 l 1,7,-1
 251 530 l 1,8,-1
 276 125 l 1,9,-1
 343 88 l 1,10,-1
 365 -11 l 1,11,-1
 60 -12 l 1,0,-1
EndSplineSet
EndChar

StartChar: Kappa
Encoding: 922 922 367
Width: 586
GlyphClass: 1
Flags: W
LayerCount: 2
Fore
SplineSet
60 -12 m 1,0,-1
 61 552 l 1,1,-1
 151 540 l 1,2,-1
 149 638 l 1,3,-1
 251 631 l 1,4,-1
 276 501 l 1,5,-1
 161 530 l 1,6,-1
 188 381 l 1,7,-1
 241 359 l 1,8,-1
 237 467 l 1,9,-1
 333 450 l 1,10,-1
 333 540 l 1,11,-1
 423 540 l 1,12,-1
 414 638 l 1,13,-1
 525 631 l 1,14,-1
 542 501 l 1,15,-1
 433 530 l 1,16,-1
 433 440 l 1,17,-1
 343 440 l 1,18,-1
 343 350 l 1,19,-1
 276 331 l 1,20,-1
 251 270 l 1,21,-1
 365 297 l 1,22,-1
 343 179 l 1,23,-1
 433 179 l 1,24,-1
 433 88 l 1,25,-1
 542 125 l 1,26,-1
 525 -12 l 1,27,-1
 414 -11 l 1,28,-1
 423 78 l 1,29,-1
 333 78 l 1,30,-1
 333 169 l 1,31,-1
 241 169 l 1,32,-1
 237 246 l 1,33,-1
 161 260 l 1,34,-1
 188 -11 l 1,35,-1
 60 -12 l 1,0,-1
EndSplineSet
EndChar

StartChar: Lambda
Encoding: 923 923 368
Width: 586
GlyphClass: 1
Flags: W
LayerCount: 2
Fore
SplineSet
60 -12 m 1,0,-1
 61 381 l 1,1,-1
 151 359 l 1,2,-1
 151 541 l 1,3,-1
 241 541 l 1,4,-1
 237 638 l 1,5,-1
 343 631 l 1,6,-1
 365 553 l 1,7,-1
 433 541 l 1,8,-1
 433 359 l 1,9,-1
 542 381 l 1,10,-1
 525 -12 l 1,11,-1
 414 -11 l 1,12,-1
 423 350 l 1,13,-1
 333 350 l 1,14,-1
 326 502 l 1,15,-1
 251 531 l 1,16,-1
 276 331 l 1,17,-1
 161 350 l 1,18,-1
 188 -11 l 1,19,-1
 60 -12 l 1,0,-1
EndSplineSet
EndChar

StartChar: Mu
Encoding: 924 924 369
AltUni2: 0003bc.ffffffff.0
Width: 767
GlyphClass: 1
Flags: W
LayerCount: 2
Fore
SplineSet
60 -12 m 1,0,-1
 61 552 l 1,1,-1
 151 540 l 1,2,-1
 149 638 l 1,3,-1
 251 631 l 1,4,-1
 276 552 l 1,5,-1
 343 540 l 1,6,-1
 365 381 l 1,7,-1
 423 359 l 1,8,-1
 414 552 l 1,9,-1
 515 540 l 1,10,-1
 503 638 l 1,11,-1
 616 631 l 1,12,-1
 631 552 l 1,13,-1
 706 540 l 1,14,-1
 718 -11 l 1,15,-1
 606 -12 l 1,16,-1
 592 501 l 1,17,-1
 525 530 l 1,18,-1
 542 331 l 1,19,-1
 433 350 l 1,20,-1
 453 74 l 1,21,-1
 333 78 l 1,22,-1
 326 331 l 1,23,-1
 241 350 l 1,24,-1
 237 501 l 1,25,-1
 161 530 l 1,26,-1
 188 -11 l 1,27,-1
 60 -12 l 1,0,-1
EndSplineSet
EndChar

StartChar: Nu
Encoding: 925 925 370
Width: 586
GlyphClass: 1
Flags: W
LayerCount: 2
Fore
SplineSet
60 -12 m 1,0,-1
 61 638 l 1,1,-1
 161 631 l 1,2,-1
 188 552 l 1,3,-1
 251 540 l 1,4,-1
 251 450 l 1,5,-1
 343 450 l 1,6,-1
 365 211 l 1,7,-1
 423 179 l 1,8,-1
 414 638 l 1,9,-1
 525 631 l 1,10,-1
 542 -11 l 1,11,-1
 423 -12 l 1,12,-1
 414 74 l 1,13,-1
 333 78 l 1,14,-1
 333 169 l 1,15,-1
 241 169 l 1,16,-1
 237 416 l 1,17,-1
 161 440 l 1,18,-1
 188 -11 l 1,19,-1
 60 -12 l 1,0,-1
EndSplineSet
EndChar

StartChar: Xi
Encoding: 926 926 371
Width: 403
GlyphClass: 1
Flags: W
LayerCount: 2
Fore
SplineSet
60 530 m 1,0,-1
 61 638 l 1,1,-1
 342 631 l 1,2,-1
 364 501 l 1,3,-1
 60 530 l 1,0,-1
60 -12 m 1,4,-1
 61 126 l 1,5,-1
 342 89 l 1,6,-1
 364 -11 l 1,7,-1
 60 -12 l 1,4,-1
60 259 m 1,8,-1
 61 381 l 1,9,-1
 342 359 l 1,10,-1
 364 245 l 1,11,-1
 60 259 l 1,8,-1
EndSplineSet
EndChar

StartChar: Omicron
Encoding: 927 927 372
Width: 586
GlyphClass: 1
Flags: W
LayerCount: 2
Fore
SplineSet
151 -12 m 1,0,-1
 149 74 l 1,1,-1
 60 78 l 1,2,-1
 61 552 l 1,3,-1
 151 540 l 1,4,-1
 149 638 l 1,5,-1
 433 631 l 1,6,-1
 453 552 l 1,7,-1
 525 540 l 1,8,-1
 542 74 l 1,9,-1
 433 78 l 1,10,-1
 453 -11 l 1,11,-1
 151 -12 l 1,0,-1
161 88 m 1,12,-1
 414 125 l 1,13,-1
 423 530 l 1,14,-1
 188 501 l 1,15,-1
 161 88 l 1,12,-1
EndSplineSet
EndChar

StartChar: Pi
Encoding: 928 928 373
Width: 586
GlyphClass: 1
Flags: W
LayerCount: 2
Fore
SplineSet
60 -12 m 1,0,-1
 61 636 l 1,1,-1
 525 629 l 1,2,-1
 542 -11 l 1,3,-1
 423 -12 l 1,4,-1
 414 499 l 1,5,-1
 161 528 l 1,6,-1
 188 -11 l 1,7,-1
 60 -12 l 1,0,-1
EndSplineSet
EndChar

StartChar: Rho
Encoding: 929 929 374
Width: 586
GlyphClass: 1
Flags: W
LayerCount: 2
Fore
SplineSet
60 -12 m 1,0,-1
 61 552 l 1,1,-1
 151 540 l 1,2,-1
 149 638 l 1,3,-1
 433 631 l 1,4,-1
 453 552 l 1,5,-1
 525 540 l 1,6,-1
 542 246 l 1,7,-1
 433 260 l 1,8,-1
 433 169 l 1,9,-1
 161 169 l 1,10,-1
 188 -11 l 1,11,-1
 60 -12 l 1,0,-1
161 270 m 1,12,-1
 414 297 l 1,13,-1
 423 530 l 1,14,-1
 188 501 l 1,15,-1
 161 270 l 1,12,-1
EndSplineSet
EndChar

StartChar: Sigma
Encoding: 931 931 375
Width: 767
GlyphClass: 1
Flags: W
LayerCount: 2
Fore
SplineSet
149 -12 m 1,0,-1
 151 78 l 1,1,-1
 61 74 l 1,2,-1
 60 178 l 1,3,-1
 149 210 l 1,4,-1
 151 269 l 1,5,-1
 326 296 l 1,6,-1
 333 349 l 1,7,-1
 149 330 l 1,8,-1
 151 439 l 1,9,-1
 61 415 l 1,10,-1
 60 540 l 1,11,-1
 149 552 l 1,12,-1
 151 630 l 1,13,-1
 718 637 l 1,14,-1
 706 530 l 1,15,-1
 188 501 l 1,16,-1
 161 449 l 1,17,-1
 365 466 l 1,18,-1
 343 358 l 1,19,-1
 631 380 l 1,20,-1
 616 259 l 1,21,-1
 365 245 l 1,22,-1
 343 168 l 1,23,-1
 188 159 l 1,24,-1
 161 88 l 1,25,-1
 718 125 l 1,26,-1
 706 -13 l 1,27,-1
 149 -12 l 1,0,-1
EndSplineSet
EndChar

StartChar: Tau
Encoding: 932 932 376
Width: 586
GlyphClass: 1
Flags: W
LayerCount: 2
Fore
SplineSet
241 -12 m 1,0,-1
 237 501 l 1,1,-1
 161 530 l 1,2,-1
 188 416 l 1,3,-1
 60 440 l 1,4,-1
 61 552 l 1,5,-1
 151 540 l 1,6,-1
 149 638 l 1,7,-1
 433 631 l 1,8,-1
 453 552 l 1,9,-1
 525 540 l 1,10,-1
 542 416 l 1,11,-1
 423 440 l 1,12,-1
 414 501 l 1,13,-1
 343 530 l 1,14,-1
 365 -11 l 1,15,-1
 241 -12 l 1,0,-1
EndSplineSet
EndChar

StartChar: Upsilon
Encoding: 933 933 377
Width: 586
GlyphClass: 1
Flags: W
LayerCount: 2
Fore
SplineSet
241 -12 m 1,0,-1
 237 331 l 1,1,-1
 151 350 l 1,2,-1
 151 440 l 1,3,-1
 61 416 l 1,4,-1
 60 631 l 1,5,-1
 188 638 l 1,6,-1
 161 450 l 1,7,-1
 251 450 l 1,8,-1
 276 381 l 1,9,-1
 333 359 l 1,10,-1
 326 467 l 1,11,-1
 423 450 l 1,12,-1
 414 638 l 1,13,-1
 525 631 l 1,14,-1
 542 416 l 1,15,-1
 433 440 l 1,16,-1
 433 350 l 1,17,-1
 343 350 l 1,18,-1
 365 -11 l 1,19,-1
 241 -12 l 1,0,-1
EndSplineSet
EndChar

StartChar: Phi
Encoding: 934 934 378
Width: 586
GlyphClass: 1
Flags: W
LayerCount: 2
Fore
SplineSet
238 -11 m 1,0,-1
 234 64 l 1,1,-1
 151 68 l 1,2,-1
 151 158 l 1,3,-1
 61 149 l 1,4,-1
 60 439 l 1,5,-1
 149 457 l 1,6,-1
 151 530 l 1,7,-1
 234 542 l 1,8,-1
 238 632 l 1,9,-1
 362 639 l 1,10,-1
 340 530 l 1,11,-1
 453 542 l 1,12,-1
 433 439 l 1,13,-1
 542 457 l 1,14,-1
 525 158 l 1,15,-1
 453 149 l 1,16,-1
 433 68 l 1,17,-1
 340 68 l 1,18,-1
 362 -10 l 1,19,-1
 238 -11 l 1,0,-1
248 78 m 1,20,-1
 323 115 l 1,21,-1
 330 158 l 1,22,-1
 273 149 l 1,23,-1
 248 78 l 1,20,-1
161 168 m 1,24,-1
 234 200 l 1,25,-1
 238 430 l 1,26,-1
 188 406 l 1,27,-1
 161 168 l 1,24,-1
340 168 m 1,28,-1
 414 200 l 1,29,-1
 423 430 l 1,30,-1
 362 406 l 1,31,-1
 340 168 l 1,28,-1
248 439 m 1,32,-1
 323 457 l 1,33,-1
 330 520 l 1,34,-1
 273 491 l 1,35,-1
 248 439 l 1,32,-1
EndSplineSet
EndChar

StartChar: Chi
Encoding: 935 935 379
Width: 586
GlyphClass: 1
Flags: W
LayerCount: 2
Fore
SplineSet
60 -12 m 1,0,-1
 61 125 l 1,1,-1
 151 88 l 1,2,-1
 151 270 l 1,3,-1
 237 297 l 1,4,-1
 241 350 l 1,5,-1
 149 331 l 1,6,-1
 151 530 l 1,7,-1
 61 501 l 1,8,-1
 60 631 l 1,9,-1
 188 638 l 1,10,-1
 161 540 l 1,11,-1
 251 540 l 1,12,-1
 276 381 l 1,13,-1
 333 359 l 1,14,-1
 326 552 l 1,15,-1
 423 540 l 1,16,-1
 414 638 l 1,17,-1
 525 631 l 1,18,-1
 542 501 l 1,19,-1
 433 530 l 1,20,-1
 433 350 l 1,21,-1
 365 331 l 1,22,-1
 343 270 l 1,23,-1
 453 297 l 1,24,-1
 433 88 l 1,25,-1
 542 125 l 1,26,-1
 525 -12 l 1,27,-1
 414 -11 l 1,28,-1
 423 78 l 1,29,-1
 333 78 l 1,30,-1
 326 246 l 1,31,-1
 251 260 l 1,32,-1
 276 74 l 1,33,-1
 161 78 l 1,34,-1
 188 -11 l 1,35,-1
 60 -12 l 1,0,-1
EndSplineSet
EndChar

StartChar: Psi
Encoding: 936 936 380
Width: 586
GlyphClass: 1
Flags: W
LayerCount: 2
Fore
SplineSet
238 -12 m 1,0,-1
 234 195 l 1,1,-1
 151 206 l 1,2,-1
 151 296 l 1,3,-1
 61 280 l 1,4,-1
 60 629 l 1,5,-1
 188 636 l 1,6,-1
 161 306 l 1,7,-1
 234 331 l 1,8,-1
 238 631 l 1,9,-1
 362 638 l 1,10,-1
 340 306 l 1,11,-1
 414 331 l 1,12,-1
 423 629 l 1,13,-1
 542 636 l 1,14,-1
 525 296 l 1,15,-1
 453 280 l 1,16,-1
 433 206 l 1,17,-1
 340 206 l 1,18,-1
 362 -11 l 1,19,-1
 238 -12 l 1,0,-1
EndSplineSet
EndChar

StartChar: Alphatonos
Encoding: 902 902 381
Width: 586
GlyphClass: 1
Flags: W
LayerCount: 2
Fore
SplineSet
61 -11 m 1,0,-1
 60 450 l 1,1,-1
 149 467 l 1,2,-1
 151 540 l 1,3,-1
 241 540 l 1,4,-1
 237 638 l 1,5,-1
 343 631 l 1,6,-1
 365 552 l 1,7,-1
 433 540 l 1,8,-1
 433 450 l 1,9,-1
 542 467 l 1,10,-1
 525 -12 l 1,11,-1
 414 -11 l 1,12,-1
 423 169 l 1,13,-1
 188 160 l 1,14,-1
 161 -12 l 1,15,-1
 61 -11 l 1,0,-1
161 270 m 1,16,-1
 414 297 l 1,17,-1
 423 440 l 1,18,-1
 326 416 l 1,19,-1
 333 530 l 1,20,-1
 276 501 l 1,21,-1
 251 440 l 1,22,-1
 188 416 l 1,23,-1
 161 270 l 1,16,-1
263 691 m 1,24,-1
 258 734 l 1,25,-1
 358 833 l 1,26,-1
 407 837 l 1,27,-1
 427 752 l 1,28,-1
 328 653 l 1,29,-1
 263 691 l 1,24,-1
EndSplineSet
EndChar

StartChar: Epsilontonos
Encoding: 904 904 382
Width: 586
GlyphClass: 1
Flags: W
LayerCount: 2
Fore
SplineSet
151 -12 m 1,0,-1
 149 74 l 1,1,-1
 60 78 l 1,2,-1
 61 552 l 1,3,-1
 151 540 l 1,4,-1
 149 638 l 1,5,-1
 433 631 l 1,6,-1
 453 552 l 1,7,-1
 525 540 l 1,8,-1
 542 416 l 1,9,-1
 423 440 l 1,10,-1
 414 501 l 1,11,-1
 161 530 l 1,12,-1
 188 381 l 1,13,-1
 343 359 l 1,14,-1
 365 246 l 1,15,-1
 161 260 l 1,16,-1
 188 125 l 1,17,-1
 423 88 l 1,18,-1
 414 211 l 1,19,-1
 525 179 l 1,20,-1
 542 74 l 1,21,-1
 433 78 l 1,22,-1
 453 -11 l 1,23,-1
 151 -12 l 1,0,-1
263 691 m 1,24,-1
 258 734 l 1,25,-1
 358 833 l 1,26,-1
 407 837 l 1,27,-1
 427 752 l 1,28,-1
 328 653 l 1,29,-1
 263 691 l 1,24,-1
EndSplineSet
EndChar

StartChar: Etatonos
Encoding: 905 905 383
Width: 586
GlyphClass: 1
Flags: W
LayerCount: 2
Fore
SplineSet
60 -12 m 1,0,-1
 61 638 l 1,1,-1
 161 631 l 1,2,-1
 188 381 l 1,3,-1
 241 359 l 1,4,-1
 237 467 l 1,5,-1
 343 450 l 1,6,-1
 365 381 l 1,7,-1
 423 359 l 1,8,-1
 414 638 l 1,9,-1
 525 631 l 1,10,-1
 542 -11 l 1,11,-1
 423 -12 l 1,12,-1
 414 246 l 1,13,-1
 161 260 l 1,14,-1
 188 -11 l 1,15,-1
 60 -12 l 1,0,-1
265 691 m 1,16,-1
 260 790 l 1,17,-1
 320 792 l 1,18,-1
 343 653 l 1,19,-1
 265 691 l 1,16,-1
EndSplineSet
EndChar

StartChar: Iotatonos
Encoding: 906 906 384
AltUni2: 0003af.ffffffff.0
Width: 404
GlyphClass: 1
Flags: W
LayerCount: 2
Fore
SplineSet
60 -12 m 1,0,-1
 61 125 l 1,1,-1
 151 88 l 1,2,-1
 149 501 l 1,3,-1
 60 530 l 1,4,-1
 61 638 l 1,5,-1
 343 631 l 1,6,-1
 365 501 l 1,7,-1
 251 530 l 1,8,-1
 276 125 l 1,9,-1
 343 88 l 1,10,-1
 365 -11 l 1,11,-1
 60 -12 l 1,0,-1
176 691 m 1,12,-1
 174 790 l 1,13,-1
 231 792 l 1,14,-1
 256 653 l 1,15,-1
 176 691 l 1,12,-1
EndSplineSet
EndChar

StartChar: Omicrontonos
Encoding: 908 908 385
Width: 586
GlyphClass: 1
Flags: W
LayerCount: 2
Fore
SplineSet
151 -12 m 1,0,-1
 149 74 l 1,1,-1
 60 78 l 1,2,-1
 61 552 l 1,3,-1
 151 540 l 1,4,-1
 149 638 l 1,5,-1
 433 631 l 1,6,-1
 453 552 l 1,7,-1
 525 540 l 1,8,-1
 542 74 l 1,9,-1
 433 78 l 1,10,-1
 453 -11 l 1,11,-1
 151 -12 l 1,0,-1
161 88 m 1,12,-1
 414 125 l 1,13,-1
 423 530 l 1,14,-1
 188 501 l 1,15,-1
 161 88 l 1,12,-1
265 691 m 1,16,-1
 260 790 l 1,17,-1
 320 792 l 1,18,-1
 343 653 l 1,19,-1
 265 691 l 1,16,-1
EndSplineSet
EndChar

StartChar: Upsilontonos
Encoding: 910 910 386
Width: 586
GlyphClass: 1
Flags: W
LayerCount: 2
Fore
SplineSet
241 -12 m 1,0,-1
 237 331 l 1,1,-1
 151 350 l 1,2,-1
 151 440 l 1,3,-1
 61 416 l 1,4,-1
 60 631 l 1,5,-1
 188 638 l 1,6,-1
 161 450 l 1,7,-1
 251 450 l 1,8,-1
 276 381 l 1,9,-1
 333 359 l 1,10,-1
 326 467 l 1,11,-1
 423 450 l 1,12,-1
 414 638 l 1,13,-1
 525 631 l 1,14,-1
 542 416 l 1,15,-1
 433 440 l 1,16,-1
 433 350 l 1,17,-1
 343 350 l 1,18,-1
 365 -11 l 1,19,-1
 241 -12 l 1,0,-1
265 691 m 1,20,-1
 260 790 l 1,21,-1
 320 792 l 1,22,-1
 343 653 l 1,23,-1
 265 691 l 1,20,-1
EndSplineSet
EndChar

StartChar: Omegatonos
Encoding: 911 911 387
Width: 585
GlyphClass: 1
Flags: W
LayerCount: 2
Fore
SplineSet
0 -12 m 1,0,-1
 0 88 l 1,1,-1
 59 125 l 1,2,-1
 60 540 l 1,3,-1
 151 540 l 1,4,-1
 147 637 l 1,5,-1
 433 630 l 1,6,-1
 451 552 l 1,7,-1
 525 540 l 1,8,-1
 525 88 l 1,9,-1
 597 125 l 1,10,-1
 584 -13 l 1,11,-1
 412 -12 l 1,12,-1
 423 530 l 1,13,-1
 186 501 l 1,14,-1
 161 -13 l 1,15,-1
 0 -12 l 1,0,-1
263 691 m 1,16,-1
 256 734 l 1,17,-1
 356 833 l 1,18,-1
 407 837 l 1,19,-1
 425 752 l 1,20,-1
 326 653 l 1,21,-1
 263 691 l 1,16,-1
EndSplineSet
EndChar

StartChar: Iotadieresis
Encoding: 938 938 388
AltUni2: 0003ca.ffffffff.0
Width: 404
GlyphClass: 1
Flags: W
LayerCount: 2
Fore
SplineSet
60 -12 m 1,0,-1
 60 125 l 1,1,-1
 151 88 l 1,2,-1
 148 501 l 1,3,-1
 60 530 l 1,4,-1
 60 638 l 1,5,-1
 343 631 l 1,6,-1
 364 501 l 1,7,-1
 251 530 l 1,8,-1
 275 125 l 1,9,-1
 343 88 l 1,10,-1
 364 -11 l 1,11,-1
 60 -12 l 1,0,-1
47 703 m 1,12,-1
 47 801 l 1,13,-1
 148 804 l 1,14,-1
 174 664 l 1,15,-1
 47 703 l 1,12,-1
259 703 m 1,16,-1
 253 801 l 1,17,-1
 361 804 l 1,18,-1
 382 664 l 1,19,-1
 259 703 l 1,16,-1
EndSplineSet
EndChar

StartChar: Upsilondieresis
Encoding: 939 939 389
AltUni2: 0003cb.ffffffff.0
Width: 586
GlyphClass: 1
Flags: W
LayerCount: 2
Fore
SplineSet
241 -12 m 1,0,-1
 237 331 l 1,1,-1
 151 350 l 1,2,-1
 151 440 l 1,3,-1
 61 416 l 1,4,-1
 60 631 l 1,5,-1
 188 638 l 1,6,-1
 161 450 l 1,7,-1
 251 450 l 1,8,-1
 276 381 l 1,9,-1
 333 359 l 1,10,-1
 326 467 l 1,11,-1
 423 450 l 1,12,-1
 414 638 l 1,13,-1
 525 631 l 1,14,-1
 542 416 l 1,15,-1
 433 440 l 1,16,-1
 433 350 l 1,17,-1
 343 350 l 1,18,-1
 365 -11 l 1,19,-1
 241 -12 l 1,0,-1
166 691 m 1,20,-1
 164 790 l 1,21,-1
 221 792 l 1,22,-1
 246 653 l 1,23,-1
 166 691 l 1,20,-1
365 691 m 1,24,-1
 357 790 l 1,25,-1
 419 792 l 1,26,-1
 439 653 l 1,27,-1
 365 691 l 1,24,-1
EndSplineSet
EndChar

StartChar: alpha
Encoding: 945 945 390
Width: 586
GlyphClass: 1
Flags: W
LayerCount: 2
Fore
SplineSet
414 -74 m 1,0,-1
 423 -12 l 1,1,-1
 151 -12 l 1,2,-1
 149 74 l 1,3,-1
 60 78 l 1,4,-1
 61 381 l 1,5,-1
 151 359 l 1,6,-1
 149 467 l 1,7,-1
 433 450 l 1,8,-1
 453 381 l 1,9,-1
 542 381 l 1,10,-1
 525 -79 l 1,11,-1
 414 -74 l 1,0,-1
161 88 m 1,12,-1
 414 125 l 1,13,-1
 423 350 l 1,14,-1
 188 331 l 1,15,-1
 161 88 l 1,12,-1
EndSplineSet
EndChar

StartChar: beta
Encoding: 946 946 391
Width: 586
GlyphClass: 1
Flags: W
LayerCount: 2
Fore
SplineSet
60 -193 m 1,0,-1
 61 638 l 1,1,-1
 433 631 l 1,2,-1
 453 552 l 1,3,-1
 525 540 l 1,4,-1
 542 331 l 1,5,-1
 433 350 l 1,6,-1
 453 297 l 1,7,-1
 525 270 l 1,8,-1
 542 74 l 1,9,-1
 433 78 l 1,10,-1
 453 -11 l 1,11,-1
 241 -12 l 1,12,-1
 237 125 l 1,13,-1
 423 88 l 1,14,-1
 414 246 l 1,15,-1
 241 260 l 1,16,-1
 237 381 l 1,17,-1
 423 359 l 1,18,-1
 414 501 l 1,19,-1
 161 530 l 1,20,-1
 188 -182 l 1,21,-1
 60 -193 l 1,0,-1
EndSplineSet
EndChar

StartChar: gamma
Encoding: 947 947 392
Width: 576
GlyphClass: 1
Flags: W
LayerCount: 2
Fore
SplineSet
232 -12 m 1,0,-1
 227 195 l 1,1,-1
 141 206 l 1,2,-1
 141 388 l 1,3,-1
 50 367 l 1,4,-1
 50 450 l 1,5,-1
 177 467 l 1,6,-1
 151 398 l 1,7,-1
 241 398 l 1,8,-1
 265 246 l 1,9,-1
 323 216 l 1,10,-1
 315 418 l 1,11,-1
 413 398 l 1,12,-1
 403 467 l 1,13,-1
 515 450 l 1,14,-1
 531 367 l 1,15,-1
 423 388 l 1,16,-1
 423 206 l 1,17,-1
 333 206 l 1,18,-1
 354 -11 l 1,19,-1
 232 -12 l 1,0,-1
EndSplineSet
EndChar

StartChar: delta
Encoding: 948 948 393
Width: 586
GlyphClass: 1
Flags: W
LayerCount: 2
Fore
SplineSet
151 -12 m 1,0,-1
 149 74 l 1,1,-1
 60 78 l 1,2,-1
 61 381 l 1,3,-1
 151 359 l 1,4,-1
 151 450 l 1,5,-1
 238 450 l 1,6,-1
 238 540 l 1,7,-1
 330 540 l 1,8,-1
 323 638 l 1,9,-1
 430 631 l 1,10,-1
 450 501 l 1,11,-1
 340 530 l 1,12,-1
 362 467 l 1,13,-1
 433 450 l 1,14,-1
 453 381 l 1,15,-1
 525 359 l 1,16,-1
 542 74 l 1,17,-1
 433 78 l 1,18,-1
 453 -11 l 1,19,-1
 151 -12 l 1,0,-1
161 88 m 1,20,-1
 414 125 l 1,21,-1
 423 350 l 1,22,-1
 188 331 l 1,23,-1
 161 88 l 1,20,-1
EndSplineSet
EndChar

StartChar: epsilon
Encoding: 949 949 394
Width: 586
GlyphClass: 1
Flags: W
LayerCount: 2
Fore
SplineSet
151 -12 m 1,0,-1
 149 74 l 1,1,-1
 60 78 l 1,2,-1
 61 381 l 1,3,-1
 151 359 l 1,4,-1
 149 467 l 1,5,-1
 433 450 l 1,6,-1
 453 381 l 1,7,-1
 525 359 l 1,8,-1
 542 246 l 1,9,-1
 423 260 l 1,10,-1
 414 331 l 1,11,-1
 161 350 l 1,12,-1
 188 297 l 1,13,-1
 343 270 l 1,14,-1
 365 160 l 1,15,-1
 161 169 l 1,16,-1
 188 125 l 1,17,-1
 423 88 l 1,18,-1
 414 212 l 1,19,-1
 525 180 l 1,20,-1
 542 75 l 1,21,-1
 433 79 l 1,22,-1
 453 -11 l 1,23,-1
 151 -12 l 1,0,-1
EndSplineSet
EndChar

StartChar: zeta
Encoding: 950 950 395
Width: 586
GlyphClass: 1
Flags: W
LayerCount: 2
Fore
SplineSet
325 -178 m 1,0,-1
 332 -90 l 1,1,-1
 414 -43 l 1,2,-1
 423 -12 l 1,3,-1
 149 -11 l 1,4,-1
 151 79 l 1,5,-1
 61 75 l 1,6,-1
 60 270 l 1,7,-1
 149 297 l 1,8,-1
 151 359 l 1,9,-1
 414 381 l 1,10,-1
 423 531 l 1,11,-1
 149 502 l 1,12,-1
 151 631 l 1,13,-1
 453 638 l 1,14,-1
 433 541 l 1,15,-1
 542 553 l 1,16,-1
 525 350 l 1,17,-1
 453 331 l 1,18,-1
 433 260 l 1,19,-1
 188 246 l 1,20,-1
 161 89 l 1,21,-1
 414 126 l 1,22,-1
 423 179 l 1,23,-1
 542 211 l 1,24,-1
 525 -189 l 1,25,-1
 325 -178 l 1,0,-1
EndSplineSet
EndChar

StartChar: eta
Encoding: 951 951 396
Width: 586
GlyphClass: 1
Flags: W
LayerCount: 2
Fore
SplineSet
423 -193 m 1,0,-1
 414 331 l 1,1,-1
 161 350 l 1,2,-1
 188 -11 l 1,3,-1
 60 -12 l 1,4,-1
 61 467 l 1,5,-1
 433 450 l 1,6,-1
 453 381 l 1,7,-1
 525 359 l 1,8,-1
 542 -182 l 1,9,-1
 423 -193 l 1,0,-1
EndSplineSet
EndChar

StartChar: theta
Encoding: 952 952 397
Width: 586
GlyphClass: 1
Flags: W
LayerCount: 2
Fore
SplineSet
151 -12 m 1,0,-1
 149 74 l 1,1,-1
 60 78 l 1,2,-1
 61 381 l 1,3,-1
 151 359 l 1,4,-1
 149 467 l 1,5,-1
 433 450 l 1,6,-1
 453 381 l 1,7,-1
 525 359 l 1,8,-1
 542 74 l 1,9,-1
 433 78 l 1,10,-1
 453 -11 l 1,11,-1
 151 -12 l 1,0,-1
161 88 m 1,12,-1
 414 125 l 1,13,-1
 423 350 l 1,14,-1
 188 331 l 1,15,-1
 161 88 l 1,12,-1
225 181 m 1,16,-1
 221 272 l 1,17,-1
 360 244 l 1,18,-1
 382 171 l 1,19,-1
 225 181 l 1,16,-1
EndSplineSet
EndChar

StartChar: iota
Encoding: 953 953 398
Width: 222
GlyphClass: 1
Flags: W
LayerCount: 2
Fore
SplineSet
60 -12 m 1,0,-1
 61 467 l 1,1,-1
 161 450 l 1,2,-1
 188 -11 l 1,3,-1
 60 -12 l 1,0,-1
60 530 m 1,4,-1
 61 638 l 1,5,-1
 161 631 l 1,6,-1
 188 501 l 1,7,-1
 60 530 l 1,4,-1
EndSplineSet
EndChar

StartChar: kappa
Encoding: 954 954 399
Width: 586
GlyphClass: 1
Flags: W
LayerCount: 2
Fore
SplineSet
60 -12 m 1,0,-1
 61 638 l 1,1,-1
 161 631 l 1,2,-1
 188 297 l 1,3,-1
 241 270 l 1,4,-1
 237 381 l 1,5,-1
 423 359 l 1,6,-1
 414 467 l 1,7,-1
 525 450 l 1,8,-1
 542 331 l 1,9,-1
 433 350 l 1,10,-1
 433 260 l 1,11,-1
 276 246 l 1,12,-1
 251 179 l 1,13,-1
 453 211 l 1,14,-1
 433 88 l 1,15,-1
 542 125 l 1,16,-1
 525 -12 l 1,17,-1
 414 -11 l 1,18,-1
 423 78 l 1,19,-1
 241 78 l 1,20,-1
 237 160 l 1,21,-1
 161 169 l 1,22,-1
 188 -11 l 1,23,-1
 60 -12 l 1,0,-1
EndSplineSet
EndChar

StartChar: lambda
Encoding: 955 955 400
Width: 586
GlyphClass: 1
Flags: W
LayerCount: 2
Fore
SplineSet
60 -12 m 1,0,-1
 61 211 l 1,1,-1
 151 179 l 1,2,-1
 151 270 l 1,3,-1
 241 270 l 1,4,-1
 237 638 l 1,5,-1
 343 631 l 1,6,-1
 365 297 l 1,7,-1
 433 270 l 1,8,-1
 433 179 l 1,9,-1
 542 211 l 1,10,-1
 525 -12 l 1,11,-1
 414 -11 l 1,12,-1
 423 169 l 1,13,-1
 333 169 l 1,14,-1
 326 246 l 1,15,-1
 251 260 l 1,16,-1
 276 160 l 1,17,-1
 161 169 l 1,18,-1
 188 -11 l 1,19,-1
 60 -12 l 1,0,-1
EndSplineSet
EndChar

StartChar: nu
Encoding: 957 957 401
Width: 576
GlyphClass: 1
Flags: W
LayerCount: 2
Fore
SplineSet
232 -12 m 1,0,-1
 227 74 l 1,1,-1
 141 78 l 1,2,-1
 141 260 l 1,3,-1
 50 246 l 1,4,-1
 50 450 l 1,5,-1
 177 467 l 1,6,-1
 151 270 l 1,7,-1
 241 270 l 1,8,-1
 265 125 l 1,9,-1
 323 88 l 1,10,-1
 315 297 l 1,11,-1
 413 270 l 1,12,-1
 403 467 l 1,13,-1
 515 450 l 1,14,-1
 531 246 l 1,15,-1
 423 260 l 1,16,-1
 423 78 l 1,17,-1
 333 78 l 1,18,-1
 354 -11 l 1,19,-1
 232 -12 l 1,0,-1
EndSplineSet
EndChar

StartChar: xi
Encoding: 958 958 402
Width: 585
GlyphClass: 1
Flags: W
LayerCount: 2
Fore
SplineSet
235 -180 m 1,0,-1
 241 -92 l 1,1,-1
 412 -45 l 1,2,-1
 423 -12 l 1,3,-1
 147 -11 l 1,4,-1
 151 78 l 1,5,-1
 59 74 l 1,6,-1
 60 270 l 1,7,-1
 147 297 l 1,8,-1
 151 350 l 1,9,-1
 59 331 l 1,10,-1
 60 530 l 1,11,-1
 0 501 l 1,12,-1
 0 630 l 1,13,-1
 451 637 l 1,14,-1
 433 540 l 1,15,-1
 540 552 l 1,16,-1
 525 440 l 1,17,-1
 412 416 l 1,18,-1
 423 530 l 1,19,-1
 186 501 l 1,20,-1
 161 359 l 1,21,-1
 451 381 l 1,22,-1
 433 260 l 1,23,-1
 186 246 l 1,24,-1
 161 88 l 1,25,-1
 412 125 l 1,26,-1
 423 179 l 1,27,-1
 540 211 l 1,28,-1
 525 -191 l 1,29,-1
 235 -180 l 1,0,-1
EndSplineSet
EndChar

StartChar: omicron
Encoding: 959 959 403
Width: 586
GlyphClass: 1
Flags: W
LayerCount: 2
Fore
SplineSet
151 -12 m 1,0,-1
 149 74 l 1,1,-1
 60 78 l 1,2,-1
 61 381 l 1,3,-1
 151 359 l 1,4,-1
 149 467 l 1,5,-1
 433 450 l 1,6,-1
 453 381 l 1,7,-1
 525 359 l 1,8,-1
 542 74 l 1,9,-1
 433 78 l 1,10,-1
 453 -11 l 1,11,-1
 151 -12 l 1,0,-1
161 88 m 1,12,-1
 414 125 l 1,13,-1
 423 350 l 1,14,-1
 188 331 l 1,15,-1
 161 88 l 1,12,-1
EndSplineSet
EndChar

StartChar: pi
Encoding: 960 960 404
Width: 949
GlyphClass: 1
Flags: W
LayerCount: 2
Fore
SplineSet
241 -12 m 1,0,-1
 237 330 l 1,1,-1
 161 349 l 1,2,-1
 188 245 l 1,3,-1
 60 259 l 1,4,-1
 61 380 l 1,5,-1
 151 358 l 1,6,-1
 149 466 l 1,7,-1
 433 449 l 1,8,-1
 453 380 l 1,9,-1
 515 358 l 1,10,-1
 503 466 l 1,11,-1
 797 449 l 1,12,-1
 807 380 l 1,13,-1
 888 358 l 1,14,-1
 895 245 l 1,15,-1
 787 259 l 1,16,-1
 768 330 l 1,17,-1
 706 349 l 1,18,-1
 718 -11 l 1,19,-1
 605 -12 l 1,20,-1
 591 330 l 1,21,-1
 525 349 l 1,22,-1
 542 245 l 1,23,-1
 423 259 l 1,24,-1
 414 330 l 1,25,-1
 343 349 l 1,26,-1
 365 -11 l 1,27,-1
 241 -12 l 1,0,-1
EndSplineSet
EndChar

StartChar: rho
Encoding: 961 961 405
Width: 586
GlyphClass: 1
Flags: W
LayerCount: 2
Fore
SplineSet
60 -188 m 1,0,-1
 61 381 l 1,1,-1
 151 359 l 1,2,-1
 149 467 l 1,3,-1
 433 450 l 1,4,-1
 453 381 l 1,5,-1
 525 359 l 1,6,-1
 542 74 l 1,7,-1
 433 78 l 1,8,-1
 433 -12 l 1,9,-1
 161 -12 l 1,10,-1
 188 -177 l 1,11,-1
 60 -188 l 1,0,-1
161 88 m 1,12,-1
 414 125 l 1,13,-1
 423 350 l 1,14,-1
 188 331 l 1,15,-1
 161 88 l 1,12,-1
EndSplineSet
EndChar

StartChar: sigma
Encoding: 963 963 406
Width: 585
GlyphClass: 1
Flags: W
LayerCount: 2
Fore
SplineSet
151 -12 m 1,0,-1
 149 74 l 1,1,-1
 60 78 l 1,2,-1
 61 381 l 1,3,-1
 151 359 l 1,4,-1
 149 467 l 1,5,-1
 583 450 l 1,6,-1
 598 331 l 1,7,-1
 525 350 l 1,8,-1
 525 78 l 1,9,-1
 433 78 l 1,10,-1
 453 -11 l 1,11,-1
 151 -12 l 1,0,-1
161 88 m 1,12,-1
 414 125 l 1,13,-1
 423 350 l 1,14,-1
 188 331 l 1,15,-1
 161 88 l 1,12,-1
EndSplineSet
EndChar

StartChar: tau
Encoding: 964 964 407
Width: 586
GlyphClass: 1
Flags: W
LayerCount: 2
Fore
SplineSet
241 -12 m 1,0,-1
 237 331 l 1,1,-1
 161 350 l 1,2,-1
 188 246 l 1,3,-1
 60 260 l 1,4,-1
 61 381 l 1,5,-1
 151 359 l 1,6,-1
 149 467 l 1,7,-1
 433 450 l 1,8,-1
 453 381 l 1,9,-1
 525 359 l 1,10,-1
 542 246 l 1,11,-1
 423 260 l 1,12,-1
 414 331 l 1,13,-1
 343 350 l 1,14,-1
 365 -11 l 1,15,-1
 241 -12 l 1,0,-1
EndSplineSet
EndChar

StartChar: upsilon
Encoding: 965 965 408
Width: 586
GlyphClass: 1
Flags: W
LayerCount: 2
Fore
SplineSet
151 -12 m 1,0,-1
 149 74 l 1,1,-1
 60 78 l 1,2,-1
 61 467 l 1,3,-1
 161 450 l 1,4,-1
 188 125 l 1,5,-1
 423 88 l 1,6,-1
 414 467 l 1,7,-1
 525 450 l 1,8,-1
 542 74 l 1,9,-1
 433 78 l 1,10,-1
 453 -11 l 1,11,-1
 151 -12 l 1,0,-1
263 513 m 1,12,-1
 258 567 l 1,13,-1
 358 665 l 1,14,-1
 407 660 l 1,15,-1
 427 584 l 1,16,-1
 328 485 l 1,17,-1
 263 513 l 1,12,-1
EndSplineSet
EndChar

StartChar: phi
Encoding: 966 966 409
Width: 586
GlyphClass: 1
Flags: W
LayerCount: 2
Fore
SplineSet
238 -12 m 1,0,-1
 234 75 l 1,1,-1
 151 79 l 1,2,-1
 151 169 l 1,3,-1
 61 160 l 1,4,-1
 60 450 l 1,5,-1
 149 467 l 1,6,-1
 151 541 l 1,7,-1
 238 541 l 1,8,-1
 234 638 l 1,9,-1
 340 631 l 1,10,-1
 362 553 l 1,11,-1
 433 541 l 1,12,-1
 453 467 l 1,13,-1
 525 450 l 1,14,-1
 542 160 l 1,15,-1
 433 169 l 1,16,-1
 453 75 l 1,17,-1
 340 79 l 1,18,-1
 362 -11 l 1,19,-1
 238 -12 l 1,0,-1
161 179 m 1,20,-1
 234 211 l 1,21,-1
 238 440 l 1,22,-1
 188 416 l 1,23,-1
 161 179 l 1,20,-1
340 179 m 1,24,-1
 414 211 l 1,25,-1
 423 440 l 1,26,-1
 362 416 l 1,27,-1
 340 179 l 1,24,-1
EndSplineSet
EndChar

StartChar: chi
Encoding: 967 967 410
Width: 586
GlyphClass: 1
Flags: W
LayerCount: 2
Fore
SplineSet
60 -12 m 1,0,-1
 61 125 l 1,1,-1
 151 88 l 1,2,-1
 151 179 l 1,3,-1
 237 211 l 1,4,-1
 241 260 l 1,5,-1
 149 246 l 1,6,-1
 151 350 l 1,7,-1
 61 331 l 1,8,-1
 60 450 l 1,9,-1
 188 467 l 1,10,-1
 161 359 l 1,11,-1
 251 359 l 1,12,-1
 276 297 l 1,13,-1
 333 270 l 1,14,-1
 326 381 l 1,15,-1
 423 359 l 1,16,-1
 414 467 l 1,17,-1
 525 450 l 1,18,-1
 542 331 l 1,19,-1
 433 350 l 1,20,-1
 433 260 l 1,21,-1
 365 246 l 1,22,-1
 343 179 l 1,23,-1
 453 211 l 1,24,-1
 433 88 l 1,25,-1
 542 125 l 1,26,-1
 525 -12 l 1,27,-1
 414 -11 l 1,28,-1
 423 78 l 1,29,-1
 333 78 l 1,30,-1
 326 160 l 1,31,-1
 251 169 l 1,32,-1
 276 74 l 1,33,-1
 161 78 l 1,34,-1
 188 -11 l 1,35,-1
 60 -12 l 1,0,-1
EndSplineSet
EndChar

StartChar: psi
Encoding: 968 968 411
Width: 586
GlyphClass: 1
Flags: W
LayerCount: 2
Fore
SplineSet
238 -12 m 1,0,-1
 234 74 l 1,1,-1
 151 78 l 1,2,-1
 151 168 l 1,3,-1
 61 159 l 1,4,-1
 60 540 l 1,5,-1
 188 552 l 1,6,-1
 161 178 l 1,7,-1
 234 210 l 1,8,-1
 238 631 l 1,9,-1
 362 638 l 1,10,-1
 340 178 l 1,11,-1
 414 210 l 1,12,-1
 423 540 l 1,13,-1
 542 552 l 1,14,-1
 525 168 l 1,15,-1
 453 159 l 1,16,-1
 433 78 l 1,17,-1
 340 78 l 1,18,-1
 362 -11 l 1,19,-1
 238 -12 l 1,0,-1
EndSplineSet
EndChar

StartChar: omega
Encoding: 969 969 412
Width: 767
GlyphClass: 1
Flags: W
LayerCount: 2
Fore
SplineSet
60 -12 m 1,0,-1
 61 467 l 1,1,-1
 161 450 l 1,2,-1
 188 125 l 1,3,-1
 333 88 l 1,4,-1
 326 467 l 1,5,-1
 433 450 l 1,6,-1
 453 125 l 1,7,-1
 606 88 l 1,8,-1
 592 467 l 1,9,-1
 706 450 l 1,10,-1
 718 74 l 1,11,-1
 616 78 l 1,12,-1
 631 -11 l 1,13,-1
 423 -12 l 1,14,-1
 414 74 l 1,15,-1
 343 78 l 1,16,-1
 365 -11 l 1,17,-1
 60 -12 l 1,0,-1
EndSplineSet
EndChar

StartChar: upsilontonos
Encoding: 973 973 413
Width: 586
GlyphClass: 1
Flags: W
LayerCount: 2
Fore
SplineSet
151 -12 m 1,0,-1
 149 74 l 1,1,-1
 60 78 l 1,2,-1
 61 467 l 1,3,-1
 161 450 l 1,4,-1
 188 125 l 1,5,-1
 423 88 l 1,6,-1
 414 467 l 1,7,-1
 525 450 l 1,8,-1
 542 74 l 1,9,-1
 433 78 l 1,10,-1
 453 -11 l 1,11,-1
 151 -12 l 1,0,-1
265 528 m 1,12,-1
 260 636 l 1,13,-1
 320 629 l 1,14,-1
 343 499 l 1,15,-1
 265 528 l 1,12,-1
EndSplineSet
EndChar

StartChar: omicrontonos
Encoding: 972 972 414
Width: 586
GlyphClass: 1
Flags: W
LayerCount: 2
Fore
SplineSet
151 -12 m 1,0,-1
 149 74 l 1,1,-1
 60 78 l 1,2,-1
 61 381 l 1,3,-1
 151 359 l 1,4,-1
 149 467 l 1,5,-1
 433 450 l 1,6,-1
 453 381 l 1,7,-1
 525 359 l 1,8,-1
 542 74 l 1,9,-1
 433 78 l 1,10,-1
 453 -11 l 1,11,-1
 151 -12 l 1,0,-1
161 88 m 1,12,-1
 414 125 l 1,13,-1
 423 350 l 1,14,-1
 188 331 l 1,15,-1
 161 88 l 1,12,-1
265 528 m 1,16,-1
 260 636 l 1,17,-1
 320 629 l 1,18,-1
 343 499 l 1,19,-1
 265 528 l 1,16,-1
EndSplineSet
EndChar

StartChar: omegatonos
Encoding: 974 974 415
Width: 767
GlyphClass: 1
Flags: W
LayerCount: 2
Fore
SplineSet
60 -12 m 1,0,-1
 61 467 l 1,1,-1
 161 450 l 1,2,-1
 188 125 l 1,3,-1
 333 88 l 1,4,-1
 326 467 l 1,5,-1
 433 450 l 1,6,-1
 453 125 l 1,7,-1
 606 88 l 1,8,-1
 592 467 l 1,9,-1
 706 450 l 1,10,-1
 718 74 l 1,11,-1
 616 78 l 1,12,-1
 631 -11 l 1,13,-1
 423 -12 l 1,14,-1
 414 74 l 1,15,-1
 343 78 l 1,16,-1
 365 -11 l 1,17,-1
 60 -12 l 1,0,-1
355 528 m 1,18,-1
 348 636 l 1,19,-1
 409 629 l 1,20,-1
 429 499 l 1,21,-1
 355 528 l 1,18,-1
EndSplineSet
EndChar

StartChar: alphatonos
Encoding: 940 940 416
Width: 586
GlyphClass: 1
Flags: W
LayerCount: 2
Fore
SplineSet
414 -74 m 1,0,-1
 423 -12 l 1,1,-1
 151 -12 l 1,2,-1
 149 74 l 1,3,-1
 60 78 l 1,4,-1
 61 381 l 1,5,-1
 151 359 l 1,6,-1
 149 467 l 1,7,-1
 433 450 l 1,8,-1
 453 381 l 1,9,-1
 542 381 l 1,10,-1
 525 -79 l 1,11,-1
 414 -74 l 1,0,-1
161 88 m 1,12,-1
 414 125 l 1,13,-1
 423 350 l 1,14,-1
 188 331 l 1,15,-1
 161 88 l 1,12,-1
265 528 m 1,16,-1
 260 636 l 1,17,-1
 320 629 l 1,18,-1
 343 499 l 1,19,-1
 265 528 l 1,16,-1
EndSplineSet
EndChar

StartChar: epsilontonos
Encoding: 941 941 417
Width: 586
GlyphClass: 1
Flags: W
LayerCount: 2
Fore
SplineSet
151 -12 m 1,0,-1
 149 74 l 1,1,-1
 60 78 l 1,2,-1
 61 381 l 1,3,-1
 151 359 l 1,4,-1
 149 467 l 1,5,-1
 433 450 l 1,6,-1
 453 381 l 1,7,-1
 525 359 l 1,8,-1
 542 246 l 1,9,-1
 423 260 l 1,10,-1
 414 331 l 1,11,-1
 161 350 l 1,12,-1
 188 297 l 1,13,-1
 343 270 l 1,14,-1
 365 160 l 1,15,-1
 161 169 l 1,16,-1
 188 125 l 1,17,-1
 423 88 l 1,18,-1
 414 212 l 1,19,-1
 525 180 l 1,20,-1
 542 75 l 1,21,-1
 433 79 l 1,22,-1
 453 -11 l 1,23,-1
 151 -12 l 1,0,-1
265 528 m 1,24,-1
 260 636 l 1,25,-1
 320 629 l 1,26,-1
 343 499 l 1,27,-1
 265 528 l 1,24,-1
EndSplineSet
EndChar

StartChar: etatonos
Encoding: 942 942 418
Width: 586
GlyphClass: 1
Flags: W
LayerCount: 2
Fore
SplineSet
423 -193 m 1,0,-1
 414 331 l 1,1,-1
 161 350 l 1,2,-1
 188 -11 l 1,3,-1
 60 -12 l 1,4,-1
 61 467 l 1,5,-1
 433 450 l 1,6,-1
 453 381 l 1,7,-1
 525 359 l 1,8,-1
 542 -182 l 1,9,-1
 423 -193 l 1,0,-1
265 528 m 1,10,-1
 260 636 l 1,11,-1
 320 629 l 1,12,-1
 343 499 l 1,13,-1
 265 528 l 1,10,-1
EndSplineSet
EndChar

StartChar: zero
Encoding: 48 48 419
Width: 586
GlyphClass: 1
Flags: W
LayerCount: 2
Fore
SplineSet
151 -12 m 1,0,-1
 149 74 l 1,1,-1
 60 78 l 1,2,-1
 61 552 l 1,3,-1
 151 540 l 1,4,-1
 149 638 l 1,5,-1
 433 631 l 1,6,-1
 453 552 l 1,7,-1
 525 540 l 1,8,-1
 542 74 l 1,9,-1
 433 78 l 1,10,-1
 453 -11 l 1,11,-1
 151 -12 l 1,0,-1
161 88 m 1,12,-1
 414 125 l 1,13,-1
 423 530 l 1,14,-1
 188 501 l 1,15,-1
 161 88 l 1,12,-1
EndSplineSet
EndChar

StartChar: one
Encoding: 49 49 420
Width: 404
GlyphClass: 1
Flags: W
LayerCount: 2
Fore
SplineSet
241 -12 m 1,0,-1
 237 501 l 1,1,-1
 161 530 l 1,2,-1
 188 416 l 1,3,-1
 60 440 l 1,4,-1
 61 552 l 1,5,-1
 151 540 l 1,6,-1
 149 638 l 1,7,-1
 251 631 l 1,8,-1
 276 552 l 1,9,-1
 343 540 l 1,10,-1
 365 -11 l 1,11,-1
 241 -12 l 1,0,-1
EndSplineSet
EndChar

StartChar: two
Encoding: 50 50 421
Width: 586
GlyphClass: 1
Flags: W
LayerCount: 2
Fore
SplineSet
149 -11 m 1,0,-1
 151 78 l 1,1,-1
 61 74 l 1,2,-1
 60 270 l 1,3,-1
 149 297 l 1,4,-1
 151 359 l 1,5,-1
 414 381 l 1,6,-1
 423 530 l 1,7,-1
 188 501 l 1,8,-1
 161 440 l 1,9,-1
 61 416 l 1,10,-1
 60 540 l 1,11,-1
 149 552 l 1,12,-1
 151 631 l 1,13,-1
 453 638 l 1,14,-1
 433 540 l 1,15,-1
 542 552 l 1,16,-1
 525 350 l 1,17,-1
 453 331 l 1,18,-1
 433 260 l 1,19,-1
 188 246 l 1,20,-1
 161 88 l 1,21,-1
 414 125 l 1,22,-1
 423 179 l 1,23,-1
 542 211 l 1,24,-1
 525 78 l 1,25,-1
 453 74 l 1,26,-1
 433 -12 l 1,27,-1
 149 -11 l 1,0,-1
EndSplineSet
EndChar

StartChar: three
Encoding: 51 51 422
Width: 586
GlyphClass: 1
Flags: W
LayerCount: 2
Fore
SplineSet
151 -12 m 1,0,-1
 149 74 l 1,1,-1
 60 78 l 1,2,-1
 61 211 l 1,3,-1
 161 179 l 1,4,-1
 188 125 l 1,5,-1
 423 88 l 1,6,-1
 414 246 l 1,7,-1
 151 260 l 1,8,-1
 149 381 l 1,9,-1
 423 359 l 1,10,-1
 414 501 l 1,11,-1
 161 530 l 1,12,-1
 188 416 l 1,13,-1
 60 440 l 1,14,-1
 61 552 l 1,15,-1
 151 540 l 1,16,-1
 149 638 l 1,17,-1
 433 631 l 1,18,-1
 453 552 l 1,19,-1
 525 540 l 1,20,-1
 542 331 l 1,21,-1
 433 350 l 1,22,-1
 453 297 l 1,23,-1
 525 270 l 1,24,-1
 542 74 l 1,25,-1
 433 78 l 1,26,-1
 453 -11 l 1,27,-1
 151 -12 l 1,0,-1
EndSplineSet
EndChar

StartChar: four
Encoding: 52 52 423
Width: 586
GlyphClass: 1
Flags: W
LayerCount: 2
Fore
SplineSet
423 -12 m 1,0,-1
 414 160 l 1,1,-1
 60 169 l 1,2,-1
 61 381 l 1,3,-1
 151 359 l 1,4,-1
 151 450 l 1,5,-1
 241 450 l 1,6,-1
 241 540 l 1,7,-1
 333 540 l 1,8,-1
 326 638 l 1,9,-1
 525 631 l 1,10,-1
 542 -11 l 1,11,-1
 423 -12 l 1,0,-1
161 270 m 1,12,-1
 414 297 l 1,13,-1
 423 530 l 1,14,-1
 365 501 l 1,15,-1
 343 440 l 1,16,-1
 251 440 l 1,17,-1
 251 350 l 1,18,-1
 188 331 l 1,19,-1
 161 270 l 1,12,-1
EndSplineSet
EndChar

StartChar: five
Encoding: 53 53 424
Width: 586
GlyphClass: 1
Flags: W
LayerCount: 2
Fore
SplineSet
149 -11 m 1,0,-1
 151 78 l 1,1,-1
 61 74 l 1,2,-1
 60 179 l 1,3,-1
 188 211 l 1,4,-1
 161 88 l 1,5,-1
 414 125 l 1,6,-1
 423 169 l 1,7,-1
 237 160 l 1,8,-1
 241 260 l 1,9,-1
 151 260 l 1,10,-1
 151 350 l 1,11,-1
 61 331 l 1,12,-1
 60 540 l 1,13,-1
 149 552 l 1,14,-1
 151 631 l 1,15,-1
 453 638 l 1,16,-1
 433 540 l 1,17,-1
 542 552 l 1,18,-1
 525 350 l 1,19,-1
 414 331 l 1,20,-1
 423 530 l 1,21,-1
 188 501 l 1,22,-1
 161 359 l 1,23,-1
 276 381 l 1,24,-1
 251 270 l 1,25,-1
 433 270 l 1,26,-1
 433 179 l 1,27,-1
 542 211 l 1,28,-1
 525 78 l 1,29,-1
 453 74 l 1,30,-1
 433 -12 l 1,31,-1
 149 -11 l 1,0,-1
EndSplineSet
EndChar

StartChar: six
Encoding: 54 54 425
Width: 586
GlyphClass: 1
Flags: W
LayerCount: 2
Fore
SplineSet
149 -11 m 1,0,-1
 151 78 l 1,1,-1
 61 74 l 1,2,-1
 60 540 l 1,3,-1
 149 552 l 1,4,-1
 151 631 l 1,5,-1
 453 638 l 1,6,-1
 433 540 l 1,7,-1
 542 552 l 1,8,-1
 525 440 l 1,9,-1
 414 416 l 1,10,-1
 423 530 l 1,11,-1
 188 501 l 1,12,-1
 161 359 l 1,13,-1
 453 381 l 1,14,-1
 433 270 l 1,15,-1
 542 297 l 1,16,-1
 525 78 l 1,17,-1
 453 74 l 1,18,-1
 433 -12 l 1,19,-1
 149 -11 l 1,0,-1
161 88 m 1,20,-1
 414 125 l 1,21,-1
 423 260 l 1,22,-1
 188 246 l 1,23,-1
 161 88 l 1,20,-1
EndSplineSet
EndChar

StartChar: seven
Encoding: 55 55 426
Width: 586
GlyphClass: 1
Flags: W
LayerCount: 2
Fore
SplineSet
423 -12 m 1,0,-1
 414 501 l 1,1,-1
 161 530 l 1,2,-1
 188 416 l 1,3,-1
 60 440 l 1,4,-1
 61 552 l 1,5,-1
 151 540 l 1,6,-1
 149 638 l 1,7,-1
 433 631 l 1,8,-1
 453 552 l 1,9,-1
 525 540 l 1,10,-1
 542 -11 l 1,11,-1
 423 -12 l 1,0,-1
EndSplineSet
EndChar

StartChar: eight
Encoding: 56 56 427
Width: 586
GlyphClass: 1
Flags: W
LayerCount: 2
Fore
SplineSet
151 -12 m 1,0,-1
 149 74 l 1,1,-1
 60 78 l 1,2,-1
 61 297 l 1,3,-1
 151 270 l 1,4,-1
 149 331 l 1,5,-1
 60 350 l 1,6,-1
 61 552 l 1,7,-1
 151 540 l 1,8,-1
 149 638 l 1,9,-1
 433 631 l 1,10,-1
 453 552 l 1,11,-1
 525 540 l 1,12,-1
 542 331 l 1,13,-1
 433 350 l 1,14,-1
 453 297 l 1,15,-1
 525 270 l 1,16,-1
 542 74 l 1,17,-1
 433 78 l 1,18,-1
 453 -11 l 1,19,-1
 151 -12 l 1,0,-1
161 88 m 1,20,-1
 414 125 l 1,21,-1
 423 260 l 1,22,-1
 188 246 l 1,23,-1
 161 88 l 1,20,-1
161 359 m 1,24,-1
 414 381 l 1,25,-1
 423 530 l 1,26,-1
 188 501 l 1,27,-1
 161 359 l 1,24,-1
EndSplineSet
EndChar

StartChar: nine
Encoding: 57 57 428
Width: 586
GlyphClass: 1
Flags: W
LayerCount: 2
Fore
SplineSet
149 -11 m 1,0,-1
 151 78 l 1,1,-1
 61 74 l 1,2,-1
 60 179 l 1,3,-1
 188 211 l 1,4,-1
 161 88 l 1,5,-1
 414 125 l 1,6,-1
 423 260 l 1,7,-1
 149 246 l 1,8,-1
 151 350 l 1,9,-1
 61 331 l 1,10,-1
 60 540 l 1,11,-1
 149 552 l 1,12,-1
 151 631 l 1,13,-1
 453 638 l 1,14,-1
 433 540 l 1,15,-1
 542 552 l 1,16,-1
 525 78 l 1,17,-1
 453 74 l 1,18,-1
 433 -12 l 1,19,-1
 149 -11 l 1,0,-1
161 359 m 1,20,-1
 414 381 l 1,21,-1
 423 530 l 1,22,-1
 188 501 l 1,23,-1
 161 359 l 1,20,-1
EndSplineSet
EndChar

StartChar: onehalf
Encoding: 189 189 429
Width: 816
GlyphClass: 1
Flags: W
LayerCount: 2
Fore
SplineSet
167 -12 m 1,0,-1
 166 174 l 1,1,-1
 246 156 l 1,2,-1
 246 314 l 1,3,-1
 326 314 l 1,4,-1
 326 393 l 1,5,-1
 405 393 l 1,6,-1
 400 558 l 1,7,-1
 486 552 l 1,8,-1
 480 635 l 1,9,-1
 575 631 l 1,10,-1
 597 449 l 1,11,-1
 496 463 l 1,12,-1
 496 383 l 1,13,-1
 415 383 l 1,14,-1
 415 225 l 1,15,-1
 336 225 l 1,16,-1
 362 141 l 1,17,-1
 256 146 l 1,18,-1
 283 -12 l 1,19,-1
 167 -12 l 1,0,-1
152 287 m 1,20,-1
 153 575 l 1,21,-1
 145 557 l 1,22,-1
 116 528 l 1,23,-1
 60 512 l 1,24,-1
 60 584 l 1,25,-1
 106 589 l 1,26,-1
 106 631 l 1,27,-1
 191 635 l 1,28,-1
 163 584 l 1,29,-1
 238 589 l 1,30,-1
 210 296 l 1,31,-1
 152 287 l 1,20,-1
553 -13 m 1,32,-1
 560 33 l 1,33,-1
 507 31 l 1,34,-1
 513 186 l 1,35,-1
 553 203 l 1,36,-1
 560 233 l 1,37,-1
 691 249 l 1,38,-1
 700 316 l 1,39,-1
 592 306 l 1,40,-1
 570 269 l 1,41,-1
 507 260 l 1,42,-1
 513 325 l 1,43,-1
 553 338 l 1,44,-1
 560 372 l 1,45,-1
 730 384 l 1,46,-1
 710 325 l 1,47,-1
 775 338 l 1,48,-1
 756 223 l 1,49,-1
 730 216 l 1,50,-1
 710 176 l 1,51,-1
 592 170 l 1,52,-1
 570 43 l 1,53,-1
 691 64 l 1,54,-1
 700 140 l 1,55,-1
 775 158 l 1,56,-1
 756 33 l 1,57,-1
 730 31 l 1,58,-1
 710 -13 l 1,59,-1
 553 -13 l 1,32,-1
EndSplineSet
EndChar

StartChar: uni2153
Encoding: 8531 8531 430
Width: 881
GlyphClass: 1
Flags: W
LayerCount: 2
Fore
SplineSet
217 -12 m 1,0,-1
 215 174 l 1,1,-1
 296 156 l 1,2,-1
 293 327 l 1,3,-1
 376 314 l 1,4,-1
 376 393 l 1,5,-1
 455 393 l 1,6,-1
 455 552 l 1,7,-1
 536 552 l 1,8,-1
 529 635 l 1,9,-1
 625 631 l 1,10,-1
 646 449 l 1,11,-1
 546 463 l 1,12,-1
 569 371 l 1,13,-1
 465 383 l 1,14,-1
 465 225 l 1,15,-1
 386 225 l 1,16,-1
 386 146 l 1,17,-1
 306 146 l 1,18,-1
 332 -12 l 1,19,-1
 217 -12 l 1,0,-1
152 287 m 1,20,-1
 153 575 l 1,21,-1
 145 557 l 1,22,-1
 116 528 l 1,23,-1
 60 512 l 1,24,-1
 60 584 l 1,25,-1
 106 589 l 1,26,-1
 106 631 l 1,27,-1
 191 635 l 1,28,-1
 163 584 l 1,29,-1
 238 589 l 1,30,-1
 210 296 l 1,31,-1
 152 287 l 1,20,-1
665 -13 m 1,32,-1
 624 34 l 1,33,-1
 618 32 l 1,34,-1
 576 90 l 1,35,-1
 705 110 l 1,36,-1
 634 44 l 1,37,-1
 801 65 l 1,38,-1
 762 127 l 1,39,-1
 665 171 l 1,40,-1
 624 183 l 1,41,-1
 801 249 l 1,42,-1
 762 265 l 1,43,-1
 705 305 l 1,44,-1
 634 219 l 1,45,-1
 618 260 l 1,46,-1
 576 275 l 1,47,-1
 665 338 l 1,48,-1
 624 322 l 1,49,-1
 840 384 l 1,50,-1
 772 275 l 1,51,-1
 888 338 l 1,52,-1
 820 173 l 1,53,-1
 840 216 l 1,54,-1
 772 137 l 1,55,-1
 888 204 l 1,56,-1
 820 34 l 1,57,-1
 840 32 l 1,58,-1
 772 -13 l 1,59,-1
 665 -13 l 1,32,-1
EndSplineSet
EndChar

StartChar: uni2154
Encoding: 8532 8532 431
Width: 910
GlyphClass: 1
Flags: W
LayerCount: 2
Fore
SplineSet
263 -12 m 1,0,-1
 266 156 l 1,1,-1
 342 174 l 1,2,-1
 346 314 l 1,3,-1
 425 314 l 1,4,-1
 425 393 l 1,5,-1
 505 393 l 1,6,-1
 499 558 l 1,7,-1
 585 552 l 1,8,-1
 577 635 l 1,9,-1
 675 631 l 1,10,-1
 696 449 l 1,11,-1
 595 463 l 1,12,-1
 595 383 l 1,13,-1
 515 383 l 1,14,-1
 515 225 l 1,15,-1
 435 225 l 1,16,-1
 435 146 l 1,17,-1
 381 141 l 1,18,-1
 356 -12 l 1,19,-1
 263 -12 l 1,0,-1
106 285 m 1,20,-1
 106 340 l 1,21,-1
 60 329 l 1,22,-1
 60 443 l 1,23,-1
 106 501 l 1,24,-1
 106 490 l 1,25,-1
 244 547 l 1,26,-1
 246 573 l 1,27,-1
 145 604 l 1,28,-1
 116 526 l 1,29,-1
 60 558 l 1,30,-1
 60 583 l 1,31,-1
 106 637 l 1,32,-1
 106 629 l 1,33,-1
 283 681 l 1,34,-1
 256 583 l 1,35,-1
 329 637 l 1,36,-1
 303 480 l 1,37,-1
 283 514 l 1,38,-1
 256 433 l 1,39,-1
 145 468 l 1,40,-1
 116 350 l 1,41,-1
 244 362 l 1,42,-1
 246 397 l 1,43,-1
 329 408 l 1,44,-1
 303 340 l 1,45,-1
 283 329 l 1,46,-1
 256 294 l 1,47,-1
 106 285 l 1,20,-1
695 -13 m 1,48,-1
 654 34 l 1,49,-1
 647 32 l 1,50,-1
 606 90 l 1,51,-1
 734 110 l 1,52,-1
 664 44 l 1,53,-1
 831 65 l 1,54,-1
 792 127 l 1,55,-1
 695 171 l 1,56,-1
 654 183 l 1,57,-1
 831 249 l 1,58,-1
 792 265 l 1,59,-1
 734 305 l 1,60,-1
 664 219 l 1,61,-1
 647 260 l 1,62,-1
 606 275 l 1,63,-1
 695 338 l 1,64,-1
 654 322 l 1,65,-1
 870 384 l 1,66,-1
 802 275 l 1,67,-1
 917 338 l 1,68,-1
 850 173 l 1,69,-1
 870 216 l 1,70,-1
 802 137 l 1,71,-1
 917 204 l 1,72,-1
 850 34 l 1,73,-1
 870 32 l 1,74,-1
 802 -13 l 1,75,-1
 695 -13 l 1,48,-1
EndSplineSet
EndChar

StartChar: onequarter
Encoding: 188 188 432
Width: 877
GlyphClass: 1
Flags: W
LayerCount: 2
Fore
SplineSet
217 -12 m 1,0,-1
 213 189 l 1,1,-1
 296 156 l 1,2,-1
 296 314 l 1,3,-1
 376 314 l 1,4,-1
 376 393 l 1,5,-1
 455 393 l 1,6,-1
 455 552 l 1,7,-1
 524 563 l 1,8,-1
 536 631 l 1,9,-1
 639 638 l 1,10,-1
 639 438 l 1,11,-1
 546 463 l 1,12,-1
 546 383 l 1,13,-1
 465 383 l 1,14,-1
 465 225 l 1,15,-1
 386 225 l 1,16,-1
 407 138 l 1,17,-1
 306 146 l 1,18,-1
 329 -11 l 1,19,-1
 217 -12 l 1,0,-1
153 296 m 1,20,-1
 151 543 l 1,21,-1
 116 575 l 1,22,-1
 144 499 l 1,23,-1
 60 528 l 1,24,-1
 61 593 l 1,25,-1
 106 584 l 1,26,-1
 105 638 l 1,27,-1
 163 631 l 1,28,-1
 190 593 l 1,29,-1
 210 584 l 1,30,-1
 236 280 l 1,31,-1
 153 296 l 1,20,-1
759 -13 m 1,32,-1
 740 76 l 1,33,-1
 572 80 l 1,34,-1
 559 215 l 1,35,-1
 619 183 l 1,36,-1
 619 229 l 1,37,-1
 650 258 l 1,38,-1
 666 275 l 1,39,-1
 712 275 l 1,40,-1
 695 346 l 1,41,-1
 816 322 l 1,42,-1
 825 -12 l 1,43,-1
 759 -13 l 1,32,-1
689 170 m 1,44,-1
 759 136 l 1,45,-1
 740 252 l 1,46,-1
 722 266 l 1,47,-1
 734 207 l 1,48,-1
 705 207 l 1,49,-1
 704 207 l 1,50,-1
 629 173 l 1,51,-1
 689 170 l 1,44,-1
EndSplineSet
EndChar

StartChar: threequarters
Encoding: 190 190 433
Width: 956
GlyphClass: 1
Flags: W
LayerCount: 2
Fore
SplineSet
296 -12 m 1,0,-1
 293 174 l 1,1,-1
 376 156 l 1,2,-1
 376 314 l 1,3,-1
 455 314 l 1,4,-1
 455 393 l 1,5,-1
 535 393 l 1,6,-1
 528 558 l 1,7,-1
 615 552 l 1,8,-1
 607 635 l 1,9,-1
 705 631 l 1,10,-1
 725 449 l 1,11,-1
 625 463 l 1,12,-1
 625 383 l 1,13,-1
 545 383 l 1,14,-1
 545 225 l 1,15,-1
 465 225 l 1,16,-1
 489 141 l 1,17,-1
 386 146 l 1,18,-1
 411 -12 l 1,19,-1
 296 -12 l 1,0,-1
107 238 m 1,20,-1
 107 343 l 1,21,-1
 60 284 l 1,22,-1
 60 399 l 1,23,-1
 146 361 l 1,24,-1
 117 353 l 1,25,-1
 243 317 l 1,26,-1
 245 436 l 1,27,-1
 107 374 l 1,28,-1
 107 492 l 1,29,-1
 243 451 l 1,30,-1
 245 574 l 1,31,-1
 146 556 l 1,32,-1
 117 528 l 1,33,-1
 60 512 l 1,34,-1
 60 584 l 1,35,-1
 107 589 l 1,36,-1
 107 631 l 1,37,-1
 282 635 l 1,38,-1
 255 584 l 1,39,-1
 329 589 l 1,40,-1
 303 482 l 1,41,-1
 282 418 l 1,42,-1
 255 446 l 1,43,-1
 329 407 l 1,44,-1
 303 343 l 1,45,-1
 282 284 l 1,46,-1
 255 296 l 1,47,-1
 107 238 l 1,20,-1
839 -13 m 1,48,-1
 828 77 l 1,49,-1
 652 80 l 1,50,-1
 652 183 l 1,51,-1
 690 200 l 1,52,-1
 699 229 l 1,53,-1
 745 229 l 1,54,-1
 745 275 l 1,55,-1
 792 275 l 1,56,-1
 781 335 l 1,57,-1
 895 322 l 1,58,-1
 912 -13 l 1,59,-1
 839 -13 l 1,48,-1
728 155 m 1,60,-1
 839 136 l 1,61,-1
 828 257 l 1,62,-1
 802 266 l 1,63,-1
 821 212 l 1,64,-1
 755 219 l 1,65,-1
 774 167 l 1,66,-1
 708 173 l 1,67,-1
 728 155 l 1,60,-1
EndSplineSet
EndChar

StartChar: oneeighth
Encoding: 8539 8539 434
Width: 872
GlyphClass: 1
Flags: W
LayerCount: 2
Fore
SplineSet
217 -12 m 1,0,-1
 215 174 l 1,1,-1
 296 156 l 1,2,-1
 293 327 l 1,3,-1
 376 314 l 1,4,-1
 376 393 l 1,5,-1
 455 393 l 1,6,-1
 455 552 l 1,7,-1
 536 552 l 1,8,-1
 529 635 l 1,9,-1
 625 631 l 1,10,-1
 646 449 l 1,11,-1
 546 463 l 1,12,-1
 569 371 l 1,13,-1
 465 383 l 1,14,-1
 465 225 l 1,15,-1
 386 225 l 1,16,-1
 386 146 l 1,17,-1
 306 146 l 1,18,-1
 332 -12 l 1,19,-1
 217 -12 l 1,0,-1
152 287 m 1,20,-1
 153 575 l 1,21,-1
 145 557 l 1,22,-1
 116 528 l 1,23,-1
 60 512 l 1,24,-1
 60 584 l 1,25,-1
 106 589 l 1,26,-1
 106 631 l 1,27,-1
 191 635 l 1,28,-1
 163 584 l 1,29,-1
 238 589 l 1,30,-1
 210 296 l 1,31,-1
 152 287 l 1,20,-1
613 -13 m 1,32,-1
 654 32 l 1,33,-1
 566 34 l 1,34,-1
 608 194 l 1,35,-1
 613 137 l 1,36,-1
 654 206 l 1,37,-1
 566 173 l 1,38,-1
 608 329 l 1,39,-1
 613 276 l 1,40,-1
 654 375 l 1,41,-1
 763 323 l 1,42,-1
 832 329 l 1,43,-1
 811 276 l 1,44,-1
 879 206 l 1,45,-1
 763 173 l 1,46,-1
 832 194 l 1,47,-1
 811 137 l 1,48,-1
 879 32 l 1,49,-1
 763 34 l 1,50,-1
 832 -13 l 1,51,-1
 613 -13 l 1,32,-1
623 44 m 1,52,-1
 792 65 l 1,53,-1
 753 127 l 1,54,-1
 694 161 l 1,55,-1
 623 44 l 1,52,-1
623 183 m 1,56,-1
 792 239 l 1,57,-1
 753 267 l 1,58,-1
 694 297 l 1,59,-1
 623 183 l 1,56,-1
EndSplineSet
EndChar

StartChar: threeeighths
Encoding: 8540 8540 435
Width: 941
GlyphClass: 1
Flags: W
LayerCount: 2
Fore
SplineSet
286 -12 m 1,0,-1
 283 174 l 1,1,-1
 366 156 l 1,2,-1
 362 327 l 1,3,-1
 445 314 l 1,4,-1
 445 393 l 1,5,-1
 525 393 l 1,6,-1
 525 552 l 1,7,-1
 605 552 l 1,8,-1
 597 635 l 1,9,-1
 695 631 l 1,10,-1
 715 449 l 1,11,-1
 615 463 l 1,12,-1
 615 383 l 1,13,-1
 558 371 l 1,14,-1
 535 225 l 1,15,-1
 455 225 l 1,16,-1
 455 146 l 1,17,-1
 376 146 l 1,18,-1
 401 -12 l 1,19,-1
 286 -12 l 1,0,-1
107 238 m 1,20,-1
 107 343 l 1,21,-1
 60 284 l 1,22,-1
 60 399 l 1,23,-1
 146 361 l 1,24,-1
 117 353 l 1,25,-1
 243 317 l 1,26,-1
 245 436 l 1,27,-1
 107 374 l 1,28,-1
 107 492 l 1,29,-1
 243 451 l 1,30,-1
 245 574 l 1,31,-1
 146 556 l 1,32,-1
 117 528 l 1,33,-1
 60 512 l 1,34,-1
 60 584 l 1,35,-1
 107 589 l 1,36,-1
 107 631 l 1,37,-1
 282 635 l 1,38,-1
 255 584 l 1,39,-1
 329 589 l 1,40,-1
 303 482 l 1,41,-1
 282 418 l 1,42,-1
 255 446 l 1,43,-1
 329 407 l 1,44,-1
 303 343 l 1,45,-1
 282 284 l 1,46,-1
 255 296 l 1,47,-1
 107 238 l 1,20,-1
693 44 m 1,48,-1
 861 65 l 1,49,-1
 823 127 l 1,50,-1
 763 171 l 1,51,-1
 693 44 l 1,48,-1
683 -13 m 1,52,-1
 723 32 l 1,53,-1
 636 34 l 1,54,-1
 677 204 l 1,55,-1
 683 137 l 1,56,-1
 723 216 l 1,57,-1
 636 173 l 1,58,-1
 677 339 l 1,59,-1
 683 276 l 1,60,-1
 723 384 l 1,61,-1
 833 323 l 1,62,-1
 901 339 l 1,63,-1
 880 276 l 1,64,-1
 947 216 l 1,65,-1
 833 173 l 1,66,-1
 901 204 l 1,67,-1
 880 137 l 1,68,-1
 947 32 l 1,69,-1
 833 34 l 1,70,-1
 901 -13 l 1,71,-1
 683 -13 l 1,52,-1
693 183 m 1,72,-1
 861 249 l 1,73,-1
 823 267 l 1,74,-1
 763 307 l 1,75,-1
 693 183 l 1,72,-1
EndSplineSet
EndChar

StartChar: fiveeighths
Encoding: 8541 8541 436
Width: 971
GlyphClass: 1
Flags: W
LayerCount: 2
Fore
SplineSet
316 -12 m 1,0,-1
 313 174 l 1,1,-1
 395 156 l 1,2,-1
 390 327 l 1,3,-1
 475 314 l 1,4,-1
 475 393 l 1,5,-1
 554 393 l 1,6,-1
 554 552 l 1,7,-1
 635 552 l 1,8,-1
 627 635 l 1,9,-1
 724 631 l 1,10,-1
 744 449 l 1,11,-1
 645 463 l 1,12,-1
 666 371 l 1,13,-1
 564 383 l 1,14,-1
 564 225 l 1,15,-1
 485 225 l 1,16,-1
 485 146 l 1,17,-1
 405 146 l 1,18,-1
 430 -12 l 1,19,-1
 316 -12 l 1,0,-1
106 247 m 1,20,-1
 106 342 l 1,21,-1
 60 292 l 1,22,-1
 60 398 l 1,23,-1
 145 370 l 1,24,-1
 116 352 l 1,25,-1
 244 325 l 1,26,-1
 246 388 l 1,27,-1
 152 337 l 1,28,-1
 153 435 l 1,29,-1
 106 383 l 1,30,-1
 106 481 l 1,31,-1
 60 427 l 1,32,-1
 60 584 l 1,33,-1
 106 589 l 1,34,-1
 106 631 l 1,35,-1
 283 635 l 1,36,-1
 256 584 l 1,37,-1
 330 589 l 1,38,-1
 304 481 l 1,39,-1
 244 427 l 1,40,-1
 246 575 l 1,41,-1
 145 557 l 1,42,-1
 116 491 l 1,43,-1
 191 460 l 1,44,-1
 163 445 l 1,45,-1
 283 416 l 1,46,-1
 256 398 l 1,47,-1
 330 370 l 1,48,-1
 304 342 l 1,49,-1
 283 292 l 1,50,-1
 256 295 l 1,51,-1
 106 247 l 1,20,-1
722 44 m 1,52,-1
 881 65 l 1,53,-1
 853 127 l 1,54,-1
 781 171 l 1,55,-1
 722 44 l 1,52,-1
742 -13 m 1,56,-1
 712 34 l 1,57,-1
 697 32 l 1,58,-1
 666 137 l 1,59,-1
 742 204 l 1,60,-1
 712 173 l 1,61,-1
 697 216 l 1,62,-1
 666 276 l 1,63,-1
 742 339 l 1,64,-1
 712 323 l 1,65,-1
 919 384 l 1,66,-1
 862 276 l 1,67,-1
 967 339 l 1,68,-1
 910 173 l 1,69,-1
 919 216 l 1,70,-1
 862 137 l 1,71,-1
 967 204 l 1,72,-1
 910 34 l 1,73,-1
 919 32 l 1,74,-1
 862 -13 l 1,75,-1
 742 -13 l 1,56,-1
722 183 m 1,76,-1
 881 249 l 1,77,-1
 853 267 l 1,78,-1
 781 307 l 1,79,-1
 722 183 l 1,76,-1
EndSplineSet
EndChar

StartChar: seveneighths
Encoding: 8542 8542 437
Width: 991
GlyphClass: 1
Flags: W
LayerCount: 2
Fore
SplineSet
336 -12 m 1,0,-1
 329 189 l 1,1,-1
 415 156 l 1,2,-1
 415 314 l 1,3,-1
 495 314 l 1,4,-1
 495 393 l 1,5,-1
 574 393 l 1,6,-1
 561 563 l 1,7,-1
 655 552 l 1,8,-1
 639 638 l 1,9,-1
 744 631 l 1,10,-1
 755 438 l 1,11,-1
 665 463 l 1,12,-1
 678 362 l 1,13,-1
 584 383 l 1,14,-1
 584 225 l 1,15,-1
 505 225 l 1,16,-1
 505 146 l 1,17,-1
 425 146 l 1,18,-1
 445 -11 l 1,19,-1
 336 -12 l 1,0,-1
246 295 m 1,20,-1
 242 543 l 1,21,-1
 116 575 l 1,22,-1
 144 499 l 1,23,-1
 60 528 l 1,24,-1
 61 593 l 1,25,-1
 106 584 l 1,26,-1
 105 638 l 1,27,-1
 256 631 l 1,28,-1
 281 593 l 1,29,-1
 304 584 l 1,30,-1
 327 279 l 1,31,-1
 246 295 l 1,20,-1
714 -12 m 1,32,-1
 732 34 l 1,33,-1
 669 32 l 1,34,-1
 669 164 l 1,35,-1
 669 172 l 1,36,-1
 669 179 l 1,37,-1
 669 193 l 1,38,-1
 686 276 l 1,39,-1
 714 303 l 1,40,-1
 732 323 l 1,41,-1
 889 347 l 1,42,-1
 882 276 l 1,43,-1
 936 303 l 1,44,-1
 936 171 l 1,45,-1
 936 167 l 1,46,-1
 936 164 l 1,47,-1
 936 142 l 1,48,-1
 930 34 l 1,49,-1
 889 32 l 1,50,-1
 882 -13 l 1,51,-1
 714 -12 l 1,32,-1
742 44 m 1,52,-1
 850 83 l 1,53,-1
 872 127 l 1,54,-1
 753 120 l 1,55,-1
 742 44 l 1,52,-1
742 183 m 1,56,-1
 850 215 l 1,57,-1
 872 267 l 1,58,-1
 753 252 l 1,59,-1
 742 183 l 1,56,-1
EndSplineSet
EndChar

StartChar: uni2080
Encoding: 8320 8320 438
Width: 364
GlyphClass: 1
Flags: W
LayerCount: 2
Fore
SplineSet
106 -13 m 1,0,-1
 105 32 l 1,1,-1
 60 34 l 1,2,-1
 61 302 l 1,3,-1
 106 275 l 1,4,-1
 105 346 l 1,5,-1
 256 322 l 1,6,-1
 281 302 l 1,7,-1
 303 275 l 1,8,-1
 326 32 l 1,9,-1
 256 34 l 1,10,-1
 281 -12 l 1,11,-1
 106 -13 l 1,0,-1
116 44 m 1,12,-1
 242 83 l 1,13,-1
 246 266 l 1,14,-1
 144 252 l 1,15,-1
 116 44 l 1,12,-1
EndSplineSet
EndChar

StartChar: uni2081
Encoding: 8321 8321 439
Width: 271
GlyphClass: 1
Flags: W
LayerCount: 2
Fore
SplineSet
153 -13 m 1,0,-1
 151 252 l 1,1,-1
 116 266 l 1,2,-1
 144 207 l 1,3,-1
 60 219 l 1,4,-1
 61 302 l 1,5,-1
 106 275 l 1,6,-1
 105 346 l 1,7,-1
 163 322 l 1,8,-1
 190 302 l 1,9,-1
 210 275 l 1,10,-1
 236 -12 l 1,11,-1
 153 -13 l 1,0,-1
EndSplineSet
EndChar

StartChar: uni2082
Encoding: 8322 8322 440
Width: 364
GlyphClass: 1
Flags: W
LayerCount: 2
Fore
SplineSet
106 -13 m 1,0,-1
 106 33 l 1,1,-1
 60 31 l 1,2,-1
 60 136 l 1,3,-1
 106 203 l 1,4,-1
 106 183 l 1,5,-1
 244 249 l 1,6,-1
 246 266 l 1,7,-1
 145 306 l 1,8,-1
 116 219 l 1,9,-1
 60 260 l 1,10,-1
 60 275 l 1,11,-1
 106 338 l 1,12,-1
 106 322 l 1,13,-1
 283 384 l 1,14,-1
 256 275 l 1,15,-1
 329 338 l 1,16,-1
 303 173 l 1,17,-1
 283 216 l 1,18,-1
 256 126 l 1,19,-1
 145 170 l 1,20,-1
 116 43 l 1,21,-1
 244 64 l 1,22,-1
 246 90 l 1,23,-1
 329 110 l 1,24,-1
 303 33 l 1,25,-1
 283 31 l 1,26,-1
 256 -13 l 1,27,-1
 106 -13 l 1,0,-1
EndSplineSet
EndChar

StartChar: uni2083
Encoding: 8323 8323 441
Width: 364
GlyphClass: 1
Flags: W
LayerCount: 2
Fore
SplineSet
107 -13 m 1,0,-1
 107 34 l 1,1,-1
 60 32 l 1,2,-1
 60 90 l 1,3,-1
 146 110 l 1,4,-1
 117 44 l 1,5,-1
 243 65 l 1,6,-1
 245 127 l 1,7,-1
 107 171 l 1,8,-1
 107 183 l 1,9,-1
 243 249 l 1,10,-1
 245 265 l 1,11,-1
 146 305 l 1,12,-1
 117 219 l 1,13,-1
 60 260 l 1,14,-1
 60 275 l 1,15,-1
 107 338 l 1,16,-1
 107 322 l 1,17,-1
 282 384 l 1,18,-1
 255 275 l 1,19,-1
 329 338 l 1,20,-1
 303 173 l 1,21,-1
 282 216 l 1,22,-1
 255 137 l 1,23,-1
 329 204 l 1,24,-1
 303 34 l 1,25,-1
 282 32 l 1,26,-1
 255 -13 l 1,27,-1
 107 -13 l 1,0,-1
EndSplineSet
EndChar

StartChar: uni2084
Encoding: 8324 8324 442
Width: 365
GlyphClass: 1
Flags: W
LayerCount: 2
Fore
SplineSet
246 -13 m 1,0,-1
 242 76 l 1,1,-1
 60 80 l 1,2,-1
 61 215 l 1,3,-1
 106 183 l 1,4,-1
 105 259 l 1,5,-1
 153 230 l 1,6,-1
 153 276 l 1,7,-1
 201 276 l 1,8,-1
 198 347 l 1,9,-1
 304 323 l 1,10,-1
 327 -12 l 1,11,-1
 246 -13 l 1,0,-1
190 171 m 1,12,-1
 246 137 l 1,13,-1
 242 252 l 1,14,-1
 211 267 l 1,15,-1
 237 208 l 1,16,-1
 214 208 l 1,17,-1
 202 208 l 1,18,-1
 116 173 l 1,19,-1
 190 171 l 1,12,-1
EndSplineSet
EndChar

StartChar: uni2085
Encoding: 8325 8325 443
Width: 365
GlyphClass: 1
Flags: W
LayerCount: 2
Fore
SplineSet
106 -13 m 1,0,-1
 106 34 l 1,1,-1
 60 32 l 1,2,-1
 60 90 l 1,3,-1
 145 110 l 1,4,-1
 116 44 l 1,5,-1
 244 65 l 1,6,-1
 246 80 l 1,7,-1
 152 125 l 1,8,-1
 153 127 l 1,9,-1
 106 127 l 1,10,-1
 106 173 l 1,11,-1
 60 216 l 1,12,-1
 60 276 l 1,13,-1
 106 339 l 1,14,-1
 106 323 l 1,15,-1
 283 384 l 1,16,-1
 256 276 l 1,17,-1
 330 339 l 1,18,-1
 304 173 l 1,19,-1
 244 216 l 1,20,-1
 246 267 l 1,21,-1
 145 307 l 1,22,-1
 116 183 l 1,23,-1
 191 249 l 1,24,-1
 163 137 l 1,25,-1
 256 137 l 1,26,-1
 256 90 l 1,27,-1
 330 158 l 1,28,-1
 304 34 l 1,29,-1
 283 32 l 1,30,-1
 256 -13 l 1,31,-1
 106 -13 l 1,0,-1
EndSplineSet
EndChar

StartChar: uni2086
Encoding: 8326 8326 444
Width: 365
GlyphClass: 1
Flags: W
LayerCount: 2
Fore
SplineSet
106 -13 m 1,0,-1
 106 34 l 1,1,-1
 60 32 l 1,2,-1
 60 276 l 1,3,-1
 106 339 l 1,4,-1
 106 323 l 1,5,-1
 283 384 l 1,6,-1
 256 276 l 1,7,-1
 330 339 l 1,8,-1
 304 220 l 1,9,-1
 244 261 l 1,10,-1
 246 267 l 1,11,-1
 145 307 l 1,12,-1
 116 183 l 1,13,-1
 283 249 l 1,14,-1
 256 137 l 1,15,-1
 330 204 l 1,16,-1
 304 34 l 1,17,-1
 283 32 l 1,18,-1
 256 -13 l 1,19,-1
 106 -13 l 1,0,-1
116 44 m 1,20,-1
 244 65 l 1,21,-1
 246 127 l 1,22,-1
 145 171 l 1,23,-1
 116 44 l 1,20,-1
EndSplineSet
EndChar

StartChar: uni2087
Encoding: 8327 8327 445
Width: 365
GlyphClass: 1
Flags: W
LayerCount: 2
Fore
SplineSet
246 -13 m 1,0,-1
 242 252 l 1,1,-1
 116 267 l 1,2,-1
 144 208 l 1,3,-1
 60 220 l 1,4,-1
 61 303 l 1,5,-1
 106 276 l 1,6,-1
 105 347 l 1,7,-1
 256 323 l 1,8,-1
 281 303 l 1,9,-1
 304 276 l 1,10,-1
 327 -12 l 1,11,-1
 246 -13 l 1,0,-1
EndSplineSet
EndChar

StartChar: uni2088
Encoding: 8328 8328 446
Width: 365
GlyphClass: 1
Flags: W
LayerCount: 2
Fore
SplineSet
105 -12 m 1,0,-1
 106 34 l 1,1,-1
 61 32 l 1,2,-1
 61 164 l 1,3,-1
 61 168 l 1,4,-1
 61 171 l 1,5,-1
 61 193 l 1,6,-1
 60 276 l 1,7,-1
 105 303 l 1,8,-1
 106 323 l 1,9,-1
 281 347 l 1,10,-1
 256 276 l 1,11,-1
 327 303 l 1,12,-1
 327 171 l 1,13,-1
 327 168 l 1,14,-1
 327 164 l 1,15,-1
 327 142 l 1,16,-1
 304 34 l 1,17,-1
 281 32 l 1,18,-1
 256 -13 l 1,19,-1
 105 -12 l 1,0,-1
116 44 m 1,20,-1
 242 83 l 1,21,-1
 246 127 l 1,22,-1
 144 120 l 1,23,-1
 116 44 l 1,20,-1
116 183 m 1,24,-1
 242 215 l 1,25,-1
 246 267 l 1,26,-1
 144 252 l 1,27,-1
 116 183 l 1,24,-1
EndSplineSet
EndChar

StartChar: uni2089
Encoding: 8329 8329 447
Width: 365
GlyphClass: 1
Flags: W
LayerCount: 2
Fore
SplineSet
106 -13 m 1,0,-1
 106 34 l 1,1,-1
 60 32 l 1,2,-1
 60 90 l 1,3,-1
 145 110 l 1,4,-1
 116 44 l 1,5,-1
 244 65 l 1,6,-1
 246 127 l 1,7,-1
 106 171 l 1,8,-1
 106 173 l 1,9,-1
 60 216 l 1,10,-1
 60 276 l 1,11,-1
 106 339 l 1,12,-1
 106 323 l 1,13,-1
 283 384 l 1,14,-1
 256 276 l 1,15,-1
 330 339 l 1,16,-1
 304 34 l 1,17,-1
 283 32 l 1,18,-1
 256 -13 l 1,19,-1
 106 -13 l 1,0,-1
116 183 m 1,20,-1
 244 249 l 1,21,-1
 246 267 l 1,22,-1
 145 307 l 1,23,-1
 116 183 l 1,20,-1
EndSplineSet
EndChar

StartChar: uni2070
Encoding: 8304 8304 448
Width: 364
GlyphClass: 1
Flags: W
LayerCount: 2
Fore
SplineSet
106 296 m 1,0,-1
 105 324 l 1,1,-1
 60 343 l 1,2,-1
 61 593 l 1,3,-1
 106 584 l 1,4,-1
 105 638 l 1,5,-1
 256 631 l 1,6,-1
 281 593 l 1,7,-1
 303 584 l 1,8,-1
 326 324 l 1,9,-1
 256 343 l 1,10,-1
 281 280 l 1,11,-1
 106 296 l 1,0,-1
116 353 m 1,12,-1
 242 375 l 1,13,-1
 246 575 l 1,14,-1
 144 543 l 1,15,-1
 116 353 l 1,12,-1
EndSplineSet
EndChar

StartChar: uni00B9
Encoding: 185 185 449
Width: 271
GlyphClass: 1
Flags: W
LayerCount: 2
Fore
SplineSet
153 296 m 1,0,-1
 151 543 l 1,1,-1
 116 575 l 1,2,-1
 144 499 l 1,3,-1
 60 528 l 1,4,-1
 61 593 l 1,5,-1
 106 584 l 1,6,-1
 105 638 l 1,7,-1
 163 631 l 1,8,-1
 190 593 l 1,9,-1
 210 584 l 1,10,-1
 236 280 l 1,11,-1
 153 296 l 1,0,-1
EndSplineSet
EndChar

StartChar: uni00B2
Encoding: 178 178 450
Width: 364
GlyphClass: 1
Flags: W
LayerCount: 2
Fore
SplineSet
106 236 m 1,0,-1
 106 340 l 1,1,-1
 60 281 l 1,2,-1
 60 443 l 1,3,-1
 106 404 l 1,4,-1
 106 490 l 1,5,-1
 244 449 l 1,6,-1
 246 573 l 1,7,-1
 145 555 l 1,8,-1
 116 526 l 1,9,-1
 60 510 l 1,10,-1
 60 583 l 1,11,-1
 106 588 l 1,12,-1
 106 629 l 1,13,-1
 283 633 l 1,14,-1
 256 583 l 1,15,-1
 329 588 l 1,16,-1
 303 480 l 1,17,-1
 283 417 l 1,18,-1
 256 433 l 1,19,-1
 145 371 l 1,20,-1
 116 350 l 1,21,-1
 244 314 l 1,22,-1
 246 397 l 1,23,-1
 329 359 l 1,24,-1
 303 340 l 1,25,-1
 283 281 l 1,26,-1
 256 294 l 1,27,-1
 106 236 l 1,0,-1
EndSplineSet
EndChar

StartChar: uni00B3
Encoding: 179 179 451
Width: 364
GlyphClass: 1
Flags: W
LayerCount: 2
Fore
SplineSet
107 238 m 1,0,-1
 107 343 l 1,1,-1
 60 284 l 1,2,-1
 60 399 l 1,3,-1
 146 361 l 1,4,-1
 117 353 l 1,5,-1
 243 317 l 1,6,-1
 245 436 l 1,7,-1
 107 374 l 1,8,-1
 107 492 l 1,9,-1
 243 451 l 1,10,-1
 245 574 l 1,11,-1
 146 556 l 1,12,-1
 117 528 l 1,13,-1
 60 512 l 1,14,-1
 60 584 l 1,15,-1
 107 589 l 1,16,-1
 107 631 l 1,17,-1
 282 635 l 1,18,-1
 255 584 l 1,19,-1
 329 589 l 1,20,-1
 303 482 l 1,21,-1
 282 418 l 1,22,-1
 255 446 l 1,23,-1
 329 407 l 1,24,-1
 303 343 l 1,25,-1
 282 284 l 1,26,-1
 255 296 l 1,27,-1
 107 238 l 1,0,-1
EndSplineSet
EndChar

StartChar: uni2074
Encoding: 8308 8308 452
Width: 365
GlyphClass: 1
Flags: W
LayerCount: 2
Fore
SplineSet
242 279 m 1,0,-1
 246 388 l 1,1,-1
 61 367 l 1,2,-1
 60 491 l 1,3,-1
 105 506 l 1,4,-1
 106 538 l 1,5,-1
 153 538 l 1,6,-1
 153 584 l 1,7,-1
 198 593 l 1,8,-1
 201 631 l 1,9,-1
 327 638 l 1,10,-1
 304 295 l 1,11,-1
 242 279 l 1,0,-1
190 462 m 1,12,-1
 246 445 l 1,13,-1
 242 543 l 1,14,-1
 211 575 l 1,15,-1
 237 499 l 1,16,-1
 214 499 l 1,17,-1
 202 499 l 1,18,-1
 116 481 l 1,19,-1
 190 462 l 1,12,-1
EndSplineSet
EndChar

StartChar: uni2075
Encoding: 8309 8309 453
Width: 365
GlyphClass: 1
Flags: W
LayerCount: 2
Fore
SplineSet
106 237 m 1,0,-1
 106 342 l 1,1,-1
 60 283 l 1,2,-1
 60 398 l 1,3,-1
 145 360 l 1,4,-1
 116 352 l 1,5,-1
 244 316 l 1,6,-1
 246 388 l 1,7,-1
 152 327 l 1,8,-1
 153 435 l 1,9,-1
 106 373 l 1,10,-1
 106 481 l 1,11,-1
 60 417 l 1,12,-1
 60 584 l 1,13,-1
 106 589 l 1,14,-1
 106 631 l 1,15,-1
 283 635 l 1,16,-1
 256 584 l 1,17,-1
 330 589 l 1,18,-1
 304 481 l 1,19,-1
 244 466 l 1,20,-1
 246 575 l 1,21,-1
 145 557 l 1,22,-1
 116 491 l 1,23,-1
 191 450 l 1,24,-1
 163 445 l 1,25,-1
 283 406 l 1,26,-1
 256 398 l 1,27,-1
 330 360 l 1,28,-1
 304 342 l 1,29,-1
 283 283 l 1,30,-1
 256 295 l 1,31,-1
 106 237 l 1,0,-1
EndSplineSet
EndChar

StartChar: uni2076
Encoding: 8310 8310 454
Width: 365
GlyphClass: 1
Flags: W
LayerCount: 2
Fore
SplineSet
106 237 m 1,0,-1
 106 342 l 1,1,-1
 60 283 l 1,2,-1
 60 584 l 1,3,-1
 106 589 l 1,4,-1
 106 631 l 1,5,-1
 283 635 l 1,6,-1
 256 584 l 1,7,-1
 330 589 l 1,8,-1
 304 528 l 1,9,-1
 244 512 l 1,10,-1
 246 575 l 1,11,-1
 145 557 l 1,12,-1
 116 491 l 1,13,-1
 283 450 l 1,14,-1
 256 445 l 1,15,-1
 330 406 l 1,16,-1
 304 342 l 1,17,-1
 283 283 l 1,18,-1
 256 295 l 1,19,-1
 106 237 l 1,0,-1
116 352 m 1,20,-1
 244 316 l 1,21,-1
 246 435 l 1,22,-1
 145 373 l 1,23,-1
 116 352 l 1,20,-1
EndSplineSet
EndChar

StartChar: uni2077
Encoding: 8311 8311 455
Width: 365
GlyphClass: 1
Flags: W
LayerCount: 2
Fore
SplineSet
246 295 m 1,0,-1
 242 543 l 1,1,-1
 116 575 l 1,2,-1
 144 499 l 1,3,-1
 60 528 l 1,4,-1
 61 593 l 1,5,-1
 106 584 l 1,6,-1
 105 638 l 1,7,-1
 256 631 l 1,8,-1
 281 593 l 1,9,-1
 304 584 l 1,10,-1
 327 279 l 1,11,-1
 246 295 l 1,0,-1
EndSplineSet
EndChar

StartChar: uni2078
Encoding: 8312 8312 456
Width: 365
GlyphClass: 1
Flags: W
LayerCount: 2
Fore
SplineSet
106 237 m 1,0,-1
 106 342 l 1,1,-1
 60 283 l 1,2,-1
 60 445 l 1,3,-1
 106 406 l 1,4,-1
 106 481 l 1,5,-1
 60 417 l 1,6,-1
 60 584 l 1,7,-1
 106 589 l 1,8,-1
 106 631 l 1,9,-1
 283 635 l 1,10,-1
 256 584 l 1,11,-1
 330 589 l 1,12,-1
 304 481 l 1,13,-1
 283 417 l 1,14,-1
 256 445 l 1,15,-1
 330 406 l 1,16,-1
 304 342 l 1,17,-1
 283 283 l 1,18,-1
 256 295 l 1,19,-1
 106 237 l 1,0,-1
116 352 m 1,20,-1
 244 316 l 1,21,-1
 246 435 l 1,22,-1
 145 373 l 1,23,-1
 116 352 l 1,20,-1
116 491 m 1,24,-1
 244 450 l 1,25,-1
 246 575 l 1,26,-1
 145 557 l 1,27,-1
 116 491 l 1,24,-1
EndSplineSet
EndChar

StartChar: uni2079
Encoding: 8313 8313 457
Width: 365
GlyphClass: 1
Flags: W
LayerCount: 2
Fore
SplineSet
106 237 m 1,0,-1
 106 342 l 1,1,-1
 60 283 l 1,2,-1
 60 398 l 1,3,-1
 145 360 l 1,4,-1
 116 352 l 1,5,-1
 244 316 l 1,6,-1
 246 435 l 1,7,-1
 106 373 l 1,8,-1
 106 481 l 1,9,-1
 60 417 l 1,10,-1
 60 584 l 1,11,-1
 106 589 l 1,12,-1
 106 631 l 1,13,-1
 283 635 l 1,14,-1
 256 584 l 1,15,-1
 330 589 l 1,16,-1
 304 342 l 1,17,-1
 283 283 l 1,18,-1
 256 295 l 1,19,-1
 106 237 l 1,0,-1
116 491 m 1,20,-1
 244 450 l 1,21,-1
 246 575 l 1,22,-1
 145 557 l 1,23,-1
 116 491 l 1,20,-1
EndSplineSet
EndChar

StartChar: period
Encoding: 46 46 460
Width: 222
GlyphClass: 1
Flags: W
LayerCount: 2
Fore
SplineSet
60 0 m 1,0,-1
 61 137 l 1,1,-1
 161 101 l 1,2,-1
 188 0 l 1,3,-1
 60 0 l 1,0,-1
EndSplineSet
EndChar

StartChar: comma
Encoding: 44 44 461
Width: 267
GlyphClass: 1
Flags: W
LayerCount: 2
Fore
SplineSet
105 -85 m 1,0,-1
 105 -41 l 1,1,-1
 105 -21 l 1,2,-1
 151 0 l 1,3,-1
 61 0 l 1,4,-1
 60 101 l 1,5,-1
 188 137 l 1,6,-1
 161 10 l 1,7,-1
 232 51 l 1,8,-1
 206 -44 l 1,9,-1
 188 -41 l 1,10,-1
 161 -90 l 1,11,-1
 105 -85 l 1,0,-1
EndSplineSet
EndChar

StartChar: colon
Encoding: 58 58 462
Width: 222
GlyphClass: 1
Flags: W
LayerCount: 2
Fore
SplineSet
60 81 m 1,0,-1
 61 214 l 1,1,-1
 161 182 l 1,2,-1
 188 77 l 1,3,-1
 60 81 l 1,0,-1
60 259 m 1,4,-1
 61 381 l 1,5,-1
 161 359 l 1,6,-1
 188 245 l 1,7,-1
 60 259 l 1,4,-1
EndSplineSet
EndChar

StartChar: semicolon
Encoding: 59 59 463
Width: 267
GlyphClass: 1
Flags: W
LayerCount: 2
Fore
SplineSet
105 -8 m 1,0,-1
 105 39 l 1,1,-1
 105 56 l 1,2,-1
 151 81 l 1,3,-1
 61 77 l 1,4,-1
 60 182 l 1,5,-1
 188 214 l 1,6,-1
 161 91 l 1,7,-1
 232 128 l 1,8,-1
 206 37 l 1,9,-1
 188 35 l 1,10,-1
 161 -9 l 1,11,-1
 105 -8 l 1,0,-1
60 259 m 1,12,-1
 61 381 l 1,13,-1
 161 359 l 1,14,-1
 188 245 l 1,15,-1
 60 259 l 1,12,-1
EndSplineSet
EndChar

StartChar: ellipsis
Encoding: 8230 8230 464
Width: 643
GlyphClass: 1
Flags: W
LayerCount: 2
Fore
SplineSet
270 0 m 1,0,-1
 265 137 l 1,1,-1
 372 101 l 1,2,-1
 393 0 l 1,3,-1
 270 0 l 1,0,-1
60 0 m 1,4,-1
 61 137 l 1,5,-1
 161 101 l 1,6,-1
 188 0 l 1,7,-1
 60 0 l 1,4,-1
481 0 m 1,8,-1
 470 137 l 1,9,-1
 582 101 l 1,10,-1
 597 0 l 1,11,-1
 481 0 l 1,8,-1
EndSplineSet
EndChar

StartChar: exclam
Encoding: 33 33 465
Width: 222
GlyphClass: 1
Flags: W
LayerCount: 2
Fore
SplineSet
60 169 m 1,0,-1
 61 638 l 1,1,-1
 161 631 l 1,2,-1
 188 160 l 1,3,-1
 60 169 l 1,0,-1
60 -12 m 1,4,-1
 61 125 l 1,5,-1
 161 88 l 1,6,-1
 188 -11 l 1,7,-1
 60 -12 l 1,4,-1
EndSplineSet
EndChar

StartChar: exclamdown
Encoding: 161 161 466
Width: 222
GlyphClass: 1
Flags: W
LayerCount: 2
Fore
SplineSet
60 -12 m 1,0,-1
 61 467 l 1,1,-1
 161 450 l 1,2,-1
 188 -11 l 1,3,-1
 60 -12 l 1,0,-1
60 531 m 1,4,-1
 61 638 l 1,5,-1
 161 631 l 1,6,-1
 188 502 l 1,7,-1
 60 531 l 1,4,-1
EndSplineSet
EndChar

StartChar: question
Encoding: 63 63 467
Width: 586
GlyphClass: 1
Flags: W
LayerCount: 2
Fore
SplineSet
241 169 m 1,0,-1
 237 381 l 1,1,-1
 423 359 l 1,2,-1
 414 501 l 1,3,-1
 161 530 l 1,4,-1
 188 331 l 1,5,-1
 60 350 l 1,6,-1
 61 552 l 1,7,-1
 151 540 l 1,8,-1
 149 638 l 1,9,-1
 433 631 l 1,10,-1
 453 552 l 1,11,-1
 525 540 l 1,12,-1
 542 331 l 1,13,-1
 433 350 l 1,14,-1
 433 260 l 1,15,-1
 343 260 l 1,16,-1
 365 160 l 1,17,-1
 241 169 l 1,0,-1
241 -12 m 1,18,-1
 237 125 l 1,19,-1
 343 88 l 1,20,-1
 365 -11 l 1,21,-1
 241 -12 l 1,18,-1
EndSplineSet
EndChar

StartChar: questiondown
Encoding: 191 191 468
Width: 586
GlyphClass: 1
Flags: W
LayerCount: 2
Fore
SplineSet
151 -12 m 1,0,-1
 149 75 l 1,1,-1
 60 79 l 1,2,-1
 61 297 l 1,3,-1
 151 270 l 1,4,-1
 151 359 l 1,5,-1
 241 359 l 1,6,-1
 237 467 l 1,7,-1
 343 450 l 1,8,-1
 365 246 l 1,9,-1
 161 260 l 1,10,-1
 188 126 l 1,11,-1
 423 89 l 1,12,-1
 414 297 l 1,13,-1
 525 270 l 1,14,-1
 542 75 l 1,15,-1
 433 79 l 1,16,-1
 453 -11 l 1,17,-1
 151 -12 l 1,0,-1
241 531 m 1,18,-1
 237 638 l 1,19,-1
 343 631 l 1,20,-1
 365 502 l 1,21,-1
 241 531 l 1,18,-1
EndSplineSet
EndChar

StartChar: periodcentered
Encoding: 183 183 469
Width: 222
GlyphClass: 1
Flags: W
LayerCount: 2
Fore
SplineSet
60 266 m 1,0,-1
 61 388 l 1,1,-1
 161 366 l 1,2,-1
 188 252 l 1,3,-1
 60 266 l 1,0,-1
EndSplineSet
EndChar

StartChar: bullet
Encoding: 8226 8226 470
Width: 258
GlyphClass: 1
Flags: W
LayerCount: 2
Fore
SplineSet
60 248 m 1,0,-1
 61 405 l 1,1,-1
 197 384 l 1,2,-1
 223 235 l 1,3,-1
 60 248 l 1,0,-1
EndSplineSet
EndChar

StartChar: asterisk
Encoding: 42 42 471
Width: 293
GlyphClass: 1
Flags: W
LayerCount: 2
Fore
SplineSet
61 416 m 1,0,-1
 60 468 60 468 61 493 c 1,1,-1
 82.5 496 82.5 496 61 501 c 1,2,-1
 105 513 105 513 61 507 c 1,3,-1
 82.5 530 82.5 530 61 510 c 1,4,-1
 60 557.5 60 557.5 61 594 c 1,5,-1
 82.5 585 82.5 585 105 594 c 1,6,-1
 105 608 105 608 105 638 c 1,7,-1
 133 631 133 631 188 638 c 1,8,-1
 161 608 161 608 188 594 c 1,9,-1
 183.5 585 183.5 585 232 594 c 1,10,-1
 206 557.5 206 557.5 232 510 c 1,11,-1
 183.5 530 183.5 530 232 505 c 1,12,-1
 161 513 161 513 232 501 c 1,13,-1
 183.5 496 183.5 496 232 467 c 1,14,-1
 206 468 206 468 232 416 c 1,15,-1
 178.5 440 178.5 440 149 416 c 1,16,-1
 151 463 151 463 149 459 c 1,17,-1
 133 486 133 486 143 459 c 1,18,-1
 115 463 115 463 143 416 c 1,19,-1
 87.5 440 87.5 440 61 416 c 1,0,-1
EndSplineSet
EndChar

StartChar: exclamdbl
Encoding: 8252 8252 472
Width: 431
GlyphClass: 1
Flags: W
LayerCount: 2
Fore
SplineSet
268 169 m 1,0,-1
 263 638 l 1,1,-1
 370 631 l 1,2,-1
 391 160 l 1,3,-1
 268 169 l 1,0,-1
60 -12 m 1,4,-1
 61 125 l 1,5,-1
 161 88 l 1,6,-1
 188 -11 l 1,7,-1
 60 -12 l 1,4,-1
268 -12 m 1,8,-1
 263 125 l 1,9,-1
 370 88 l 1,10,-1
 391 -11 l 1,11,-1
 268 -12 l 1,8,-1
60 169 m 1,12,-1
 61 638 l 1,13,-1
 161 631 l 1,14,-1
 188 160 l 1,15,-1
 60 169 l 1,12,-1
EndSplineSet
EndChar

StartChar: numbersign
Encoding: 35 35 473
Width: 677
GlyphClass: 1
Flags: W
LayerCount: 2
Fore
SplineSet
151 -12 m 1,0,-1
 149 74 l 1,1,-1
 60 78 l 1,2,-1
 61 211 l 1,3,-1
 151 179 l 1,4,-1
 149 331 l 1,5,-1
 60 350 l 1,6,-1
 61 467 l 1,7,-1
 151 450 l 1,8,-1
 149 638 l 1,9,-1
 251 631 l 1,10,-1
 276 467 l 1,11,-1
 423 450 l 1,12,-1
 414 638 l 1,13,-1
 525 631 l 1,14,-1
 542 467 l 1,15,-1
 616 450 l 1,16,-1
 631 331 l 1,17,-1
 525 350 l 1,18,-1
 542 211 l 1,19,-1
 616 179 l 1,20,-1
 631 74 l 1,21,-1
 525 78 l 1,22,-1
 542 -11 l 1,23,-1
 423 -12 l 1,24,-1
 414 74 l 1,25,-1
 251 78 l 1,26,-1
 276 -11 l 1,27,-1
 151 -12 l 1,0,-1
251 179 m 1,28,-1
 414 211 l 1,29,-1
 423 350 l 1,30,-1
 276 331 l 1,31,-1
 251 179 l 1,28,-1
EndSplineSet
EndChar

StartChar: slash
Encoding: 47 47 474
Width: 548
GlyphClass: 1
Flags: W
LayerCount: 2
Fore
SplineSet
57 -12 m 1,0,-1
 219 309.5 219 309.5 375 631 c 1,1,-1
 422.5 631 422.5 631 491 631 c 1,2,-1
 308 309.5 308 309.5 173 -12 c 1,3,-1
 104.5 -12 104.5 -12 57 -12 c 1,0,-1
EndSplineSet
EndChar

StartChar: backslash
Encoding: 92 92 475
Width: 548
GlyphClass: 1
Flags: W
LayerCount: 2
Fore
SplineSet
375 -12 m 1,0,-1
 219 309.5 219 309.5 57 631 c 1,1,-1
 104.5 631 104.5 631 173 631 c 1,2,-1
 308 309.5 308 309.5 491 -12 c 1,3,-1
 422.5 -12 422.5 -12 375 -12 c 1,0,-1
EndSplineSet
EndChar

StartChar: periodcentered.loclCAT
Encoding: 65538 -1 476
Width: 221
GlyphClass: 1
Flags: W
LayerCount: 2
Fore
SplineSet
60 0 m 1,0,-1
 61 137 l 1,1,-1
 161 101 l 1,2,-1
 188 0 l 1,3,-1
 60 0 l 1,0,-1
EndSplineSet
EndChar

StartChar: periodcentered.loclCAT.case
Encoding: 65539 -1 477
Width: 221
GlyphClass: 1
Flags: W
LayerCount: 2
Fore
SplineSet
60 0 m 1,0,-1
 61 137 l 1,1,-1
 161 101 l 1,2,-1
 188 0 l 1,3,-1
 60 0 l 1,0,-1
EndSplineSet
EndChar

StartChar: hyphen
Encoding: 45 45 478
Width: 333
GlyphClass: 1
Flags: W
LayerCount: 2
Fore
SplineSet
23 200 m 1,0,-1
 28 319 l 1,1,-1
 305 301 l 1,2,-1
 332 182 l 1,3,-1
 23 200 l 1,0,-1
EndSplineSet
EndChar

StartChar: endash
Encoding: 8211 8211 479
Width: 403
GlyphClass: 1
Flags: W
LayerCount: 2
Fore
SplineSet
60 241 m 1,0,-1
 61 365 l 1,1,-1
 342 342 l 1,2,-1
 364 228 l 1,3,-1
 60 241 l 1,0,-1
EndSplineSet
EndChar

StartChar: emdash
Encoding: 8212 8212 480
Width: 502
GlyphClass: 1
Flags: W
LayerCount: 2
Fore
SplineSet
60 241 m 1,0,-1
 61 365 l 1,1,-1
 441 342 l 1,2,-1
 460 228 l 1,3,-1
 60 241 l 1,0,-1
EndSplineSet
EndChar

StartChar: underscore
Encoding: 95 95 481
Width: 442
GlyphClass: 1
Flags: W
LayerCount: 2
Fore
SplineSet
60 0 m 1,0,-1
 61 137 l 1,1,-1
 382 101 l 1,2,-1
 403 0 l 1,3,-1
 60 0 l 1,0,-1
EndSplineSet
EndChar

StartChar: parenleft
Encoding: 40 40 482
Width: 374
GlyphClass: 1
Flags: W
LayerCount: 2
Fore
SplineSet
237 -151 m 1,0,-1
 241 24 l 1,1,-1
 151 24 l 1,2,-1
 151 204 l 1,3,-1
 61 193 l 1,4,-1
 60 395 l 1,5,-1
 149 415 l 1,6,-1
 151 577 l 1,7,-1
 241 577 l 1,8,-1
 237 757 l 1,9,-1
 343 757 l 1,10,-1
 365 536 l 1,11,-1
 251 567 l 1,12,-1
 251 385 l 1,13,-1
 188 364 l 1,14,-1
 161 214 l 1,15,-1
 276 244 l 1,16,-1
 251 31 l 1,17,-1
 365 71 l 1,18,-1
 343 -160 l 1,19,-1
 237 -151 l 1,0,-1
EndSplineSet
EndChar

StartChar: parenright
Encoding: 41 41 483
Width: 374
GlyphClass: 1
Flags: W
LayerCount: 2
Fore
SplineSet
31 -151 m 1,0,-1
 30 31 l 1,1,-1
 119 71 l 1,2,-1
 121 214 l 1,3,-1
 208 244 l 1,4,-1
 212 385 l 1,5,-1
 119 364 l 1,6,-1
 121 567 l 1,7,-1
 31 536 l 1,8,-1
 30 757 l 1,9,-1
 158 757 l 1,10,-1
 131 577 l 1,11,-1
 222 577 l 1,12,-1
 246 415 l 1,13,-1
 313 395 l 1,14,-1
 335 193 l 1,15,-1
 222 204 l 1,16,-1
 222 24 l 1,17,-1
 158 23 l 1,18,-1
 131 -160 l 1,19,-1
 31 -151 l 1,0,-1
EndSplineSet
EndChar

StartChar: braceleft
Encoding: 123 123 484
Width: 464
GlyphClass: 1
Flags: W
LayerCount: 2
Fore
SplineSet
212 -107 m 1,0,-1
 208 -15 l 1,1,-1
 121 -16 l 1,2,-1
 121 256 l 1,3,-1
 31 242 l 1,4,-1
 30 355 l 1,5,-1
 119 377 l 1,6,-1
 121 627 l 1,7,-1
 212 627 l 1,8,-1
 208 720 l 1,9,-1
 313 718 l 1,10,-1
 335 634 l 1,11,-1
 403 627 l 1,12,-1
 422 498 l 1,13,-1
 303 527 l 1,14,-1
 296 583 l 1,15,-1
 222 617 l 1,16,-1
 246 327 l 1,17,-1
 131 346 l 1,18,-1
 158 293 l 1,19,-1
 222 266 l 1,20,-1
 246 36 l 1,21,-1
 303 -6 l 1,22,-1
 296 122 l 1,23,-1
 403 85 l 1,24,-1
 422 -15 l 1,25,-1
 313 -16 l 1,26,-1
 335 -101 l 1,27,-1
 212 -107 l 1,0,-1
EndSplineSet
EndChar

StartChar: braceright
Encoding: 125 125 485
Width: 464
GlyphClass: 1
Flags: W
LayerCount: 2
Fore
SplineSet
120 -107 m 1,0,-1
 118 -15 l 1,1,-1
 30 -16 l 1,2,-1
 31 122 l 1,3,-1
 130 85 l 1,4,-1
 157 36 l 1,5,-1
 212 -6 l 1,6,-1
 208 293 l 1,7,-1
 302 266 l 1,8,-1
 295 327 l 1,9,-1
 212 346 l 1,10,-1
 208 583 l 1,11,-1
 130 617 l 1,12,-1
 157 498 l 1,13,-1
 30 527 l 1,14,-1
 31 634 l 1,15,-1
 120 627 l 1,16,-1
 118 720 l 1,17,-1
 222 718 l 1,18,-1
 246 634 l 1,19,-1
 312 627 l 1,20,-1
 312 355 l 1,21,-1
 422 377 l 1,22,-1
 403 256 l 1,23,-1
 334 242 l 1,24,-1
 312 -16 l 1,25,-1
 222 -16 l 1,26,-1
 246 -101 l 1,27,-1
 120 -107 l 1,0,-1
EndSplineSet
EndChar

StartChar: bracketleft
Encoding: 91 91 486
Width: 374
GlyphClass: 1
Flags: W
LayerCount: 2
Fore
SplineSet
151 -61 m 1,0,-1
 149 29 l 1,1,-1
 60 30 l 1,2,-1
 61 592 l 1,3,-1
 151 582 l 1,4,-1
 149 677 l 1,5,-1
 343 672 l 1,6,-1
 365 541 l 1,7,-1
 161 572 l 1,8,-1
 188 80 l 1,9,-1
 343 40 l 1,10,-1
 365 -57 l 1,11,-1
 151 -61 l 1,0,-1
EndSplineSet
EndChar

StartChar: bracketright
Encoding: 93 93 487
Width: 374
GlyphClass: 1
Flags: W
LayerCount: 2
Fore
SplineSet
30 -61 m 1,0,-1
 31 80 l 1,1,-1
 212 40 l 1,2,-1
 208 541 l 1,3,-1
 30 572 l 1,4,-1
 31 677 l 1,5,-1
 222 672 l 1,6,-1
 246 592 l 1,7,-1
 313 582 l 1,8,-1
 335 29 l 1,9,-1
 222 30 l 1,10,-1
 246 -57 l 1,11,-1
 30 -61 l 1,0,-1
EndSplineSet
EndChar

StartChar: quotesinglbase
Encoding: 8218 8218 488
Width: 267
GlyphClass: 1
Flags: W
LayerCount: 2
Fore
SplineSet
105 -85 m 1,0,-1
 105 -29 l 1,1,-1
 105 -21 l 1,2,-1
 151 0 l 1,3,-1
 61 0 l 1,4,-1
 60 101 l 1,5,-1
 188 137 l 1,6,-1
 161 10 l 1,7,-1
 232 51 l 1,8,-1
 206 -44 l 1,9,-1
 188 -41 l 1,10,-1
 161 -90 l 1,11,-1
 105 -85 l 1,0,-1
EndSplineSet
EndChar

StartChar: quotedblbase
Encoding: 8222 8222 489
Width: 465
GlyphClass: 1
Flags: W
LayerCount: 2
Fore
SplineSet
298 -85 m 1,0,-1
 298 -35 l 1,1,-1
 298 -21 l 1,2,-1
 350 0 l 1,3,-1
 253 0 l 1,4,-1
 258 101 l 1,5,-1
 382 137 l 1,6,-1
 360 10 l 1,7,-1
 424 51 l 1,8,-1
 404 -44 l 1,9,-1
 382 -41 l 1,10,-1
 360 -90 l 1,11,-1
 298 -85 l 1,0,-1
105 -85 m 1,12,-1
 105 -35 l 1,13,-1
 105 -21 l 1,14,-1
 151 0 l 1,15,-1
 61 0 l 1,16,-1
 60 101 l 1,17,-1
 188 137 l 1,18,-1
 161 10 l 1,19,-1
 232 51 l 1,20,-1
 206 -44 l 1,21,-1
 188 -41 l 1,22,-1
 161 -90 l 1,23,-1
 105 -85 l 1,12,-1
EndSplineSet
EndChar

StartChar: quotedblleft
Encoding: 8220 8220 490
Width: 465
GlyphClass: 1
Flags: W
LayerCount: 2
Fore
SplineSet
297 416 m 1,0,-1
 303 531 l 1,1,-1
 253 502 l 1,2,-1
 258 585 l 1,3,-1
 297 594 l 1,4,-1
 303 631 l 1,5,-1
 381 638 l 1,6,-1
 381 589 l 1,7,-1
 381 574 l 1,8,-1
 313 541 l 1,9,-1
 424 553 l 1,10,-1
 404 440 l 1,11,-1
 297 416 l 1,0,-1
104 416 m 1,12,-1
 104 531 l 1,13,-1
 61 502 l 1,14,-1
 60 585 l 1,15,-1
 104 594 l 1,16,-1
 104 631 l 1,17,-1
 187 638 l 1,18,-1
 187 589 l 1,19,-1
 187 574 l 1,20,-1
 114 541 l 1,21,-1
 232 553 l 1,22,-1
 206 440 l 1,23,-1
 104 416 l 1,12,-1
EndSplineSet
EndChar

StartChar: quotedblright
Encoding: 8221 8221 491
Width: 465
GlyphClass: 1
Flags: W
LayerCount: 2
Fore
SplineSet
298 416 m 1,0,-1
 298 463 l 1,1,-1
 298 480 l 1,2,-1
 350 530 l 1,3,-1
 253 501 l 1,4,-1
 258 631 l 1,5,-1
 382 638 l 1,6,-1
 360 540 l 1,7,-1
 424 552 l 1,8,-1
 404 486 l 1,9,-1
 382 459 l 1,10,-1
 360 440 l 1,11,-1
 298 416 l 1,0,-1
105 416 m 1,12,-1
 105 467 l 1,13,-1
 105 480 l 1,14,-1
 151 530 l 1,15,-1
 61 501 l 1,16,-1
 60 631 l 1,17,-1
 188 638 l 1,18,-1
 161 540 l 1,19,-1
 232 552 l 1,20,-1
 206 486 l 1,21,-1
 188 459 l 1,22,-1
 161 440 l 1,23,-1
 105 416 l 1,12,-1
EndSplineSet
EndChar

StartChar: quoteleft
Encoding: 8216 8216 492
Width: 267
GlyphClass: 1
Flags: W
LayerCount: 2
Fore
SplineSet
104 416 m 1,0,-1
 104 531 l 1,1,-1
 61 502 l 1,2,-1
 60 585 l 1,3,-1
 104 594 l 1,4,-1
 104 631 l 1,5,-1
 187 638 l 1,6,-1
 187 591 l 1,7,-1
 187 574 l 1,8,-1
 114 541 l 1,9,-1
 232 553 l 1,10,-1
 206 440 l 1,11,-1
 104 416 l 1,0,-1
EndSplineSet
EndChar

StartChar: quoteright
Encoding: 8217 8217 493
Width: 267
GlyphClass: 1
Flags: W
LayerCount: 2
Fore
SplineSet
105 416 m 1,0,-1
 105 459 l 1,1,-1
 105 480 l 1,2,-1
 151 530 l 1,3,-1
 61 501 l 1,4,-1
 60 631 l 1,5,-1
 188 638 l 1,6,-1
 161 540 l 1,7,-1
 232 552 l 1,8,-1
 206 486 l 1,9,-1
 188 459 l 1,10,-1
 161 440 l 1,11,-1
 105 416 l 1,0,-1
EndSplineSet
EndChar

StartChar: guillemotleft
Encoding: 171 171 494
Width: 873
GlyphClass: 1
Flags: W
LayerCount: 2
Fore
SplineSet
711 -107 m 1,0,-1
 693 -15 l 1,1,-1
 621 -16 l 1,2,-1
 621 75 l 1,3,-1
 530 75 l 1,4,-1
 530 165 l 1,5,-1
 439 165 l 1,6,-1
 439 256 l 1,7,-1
 340 242 l 1,8,-1
 348 355 l 1,9,-1
 428 377 l 1,10,-1
 439 446 l 1,11,-1
 530 446 l 1,12,-1
 530 537 l 1,13,-1
 621 537 l 1,14,-1
 621 627 l 1,15,-1
 711 627 l 1,16,-1
 693 720 l 1,17,-1
 813 718 l 1,18,-1
 821 583 l 1,19,-1
 721 617 l 1,20,-1
 721 527 l 1,21,-1
 631 527 l 1,22,-1
 631 436 l 1,23,-1
 540 436 l 1,24,-1
 556 327 l 1,25,-1
 449 346 l 1,26,-1
 467 293 l 1,27,-1
 540 266 l 1,28,-1
 540 175 l 1,29,-1
 631 175 l 1,30,-1
 631 85 l 1,31,-1
 721 85 l 1,32,-1
 732 36 l 1,33,-1
 813 -6 l 1,34,-1
 821 -101 l 1,35,-1
 711 -107 l 1,0,-1
394 -107 m 1,36,-1
 385 -15 l 1,37,-1
 303 -16 l 1,38,-1
 303 75 l 1,39,-1
 212 75 l 1,40,-1
 212 165 l 1,41,-1
 121 165 l 1,42,-1
 119 242 l 1,43,-1
 30 256 l 1,44,-1
 31 377 l 1,45,-1
 121 355 l 1,46,-1
 121 446 l 1,47,-1
 212 446 l 1,48,-1
 212 537 l 1,49,-1
 303 537 l 1,50,-1
 296 634 l 1,51,-1
 394 627 l 1,52,-1
 385 720 l 1,53,-1
 495 718 l 1,54,-1
 512 583 l 1,55,-1
 403 617 l 1,56,-1
 403 527 l 1,57,-1
 313 527 l 1,58,-1
 313 436 l 1,59,-1
 222 436 l 1,60,-1
 246 327 l 1,61,-1
 131 346 l 1,62,-1
 158 293 l 1,63,-1
 222 266 l 1,64,-1
 222 175 l 1,65,-1
 313 175 l 1,66,-1
 313 85 l 1,67,-1
 403 85 l 1,68,-1
 422 36 l 1,69,-1
 495 -6 l 1,70,-1
 512 -101 l 1,71,-1
 394 -107 l 1,36,-1
EndSplineSet
EndChar

StartChar: guillemotright
Encoding: 187 187 495
Width: 853
GlyphClass: 1
Flags: W
LayerCount: 2
Fore
SplineSet
328 -107 m 1,0,-1
 319 36 l 1,1,-1
 419 -6 l 1,2,-1
 419 85 l 1,3,-1
 510 85 l 1,4,-1
 510 175 l 1,5,-1
 601 175 l 1,6,-1
 585 293 l 1,7,-1
 692 266 l 1,8,-1
 673 327 l 1,9,-1
 601 346 l 1,10,-1
 601 436 l 1,11,-1
 510 436 l 1,12,-1
 510 527 l 1,13,-1
 419 527 l 1,14,-1
 408 583 l 1,15,-1
 328 617 l 1,16,-1
 319 720 l 1,17,-1
 429 718 l 1,18,-1
 447 634 l 1,19,-1
 520 627 l 1,20,-1
 520 537 l 1,21,-1
 611 537 l 1,22,-1
 611 446 l 1,23,-1
 702 446 l 1,24,-1
 712 377 l 1,25,-1
 793 355 l 1,26,-1
 801 242 l 1,27,-1
 702 256 l 1,28,-1
 702 165 l 1,29,-1
 611 165 l 1,30,-1
 611 75 l 1,31,-1
 520 75 l 1,32,-1
 535 -15 l 1,33,-1
 429 -16 l 1,34,-1
 447 -101 l 1,35,-1
 328 -107 l 1,0,-1
10 -107 m 1,36,-1
 10 36 l 1,37,-1
 101 -6 l 1,38,-1
 101 85 l 1,39,-1
 192 85 l 1,40,-1
 192 175 l 1,41,-1
 283 175 l 1,42,-1
 276 293 l 1,43,-1
 374 266 l 1,44,-1
 364 327 l 1,45,-1
 283 346 l 1,46,-1
 283 436 l 1,47,-1
 192 436 l 1,48,-1
 192 527 l 1,49,-1
 101 527 l 1,50,-1
 99 583 l 1,51,-1
 10 617 l 1,52,-1
 10 720 l 1,53,-1
 111 718 l 1,54,-1
 138 634 l 1,55,-1
 202 627 l 1,56,-1
 202 537 l 1,57,-1
 293 537 l 1,58,-1
 314 463 l 1,59,-1
 384 446 l 1,60,-1
 384 355 l 1,61,-1
 491 377 l 1,62,-1
 491 242 l 1,63,-1
 384 256 l 1,64,-1
 384 165 l 1,65,-1
 293 165 l 1,66,-1
 293 75 l 1,67,-1
 202 75 l 1,68,-1
 226 -15 l 1,69,-1
 111 -16 l 1,70,-1
 138 -101 l 1,71,-1
 10 -107 l 1,36,-1
EndSplineSet
EndChar

StartChar: guilsinglleft
Encoding: 8249 8249 496
Width: 556
GlyphClass: 1
Flags: W
LayerCount: 2
Fore
SplineSet
414 -101 m 1,0,-1
 423 -16 l 1,1,-1
 333 -16 l 1,2,-1
 333 75 l 1,3,-1
 241 75 l 1,4,-1
 241 165 l 1,5,-1
 151 165 l 1,6,-1
 149 242 l 1,7,-1
 60 256 l 1,8,-1
 61 377 l 1,9,-1
 151 355 l 1,10,-1
 151 446 l 1,11,-1
 241 446 l 1,12,-1
 241 537 l 1,13,-1
 333 537 l 1,14,-1
 333 627 l 1,15,-1
 414 634 l 1,16,-1
 423 718 l 1,17,-1
 542 720 l 1,18,-1
 525 617 l 1,19,-1
 453 583 l 1,20,-1
 433 527 l 1,21,-1
 343 527 l 1,22,-1
 343 436 l 1,23,-1
 251 436 l 1,24,-1
 251 346 l 1,25,-1
 188 327 l 1,26,-1
 161 266 l 1,27,-1
 276 293 l 1,28,-1
 251 175 l 1,29,-1
 343 175 l 1,30,-1
 343 85 l 1,31,-1
 433 85 l 1,32,-1
 433 -6 l 1,33,-1
 542 36 l 1,34,-1
 525 -107 l 1,35,-1
 414 -101 l 1,0,-1
EndSplineSet
EndChar

StartChar: guilsinglright
Encoding: 8250 8250 497
Width: 556
GlyphClass: 1
Flags: W
LayerCount: 2
Fore
SplineSet
30 -107 m 1,0,-1
 31 36 l 1,1,-1
 121 -6 l 1,2,-1
 121 85 l 1,3,-1
 212 85 l 1,4,-1
 212 175 l 1,5,-1
 303 175 l 1,6,-1
 296 293 l 1,7,-1
 394 266 l 1,8,-1
 385 327 l 1,9,-1
 303 346 l 1,10,-1
 303 436 l 1,11,-1
 212 436 l 1,12,-1
 212 527 l 1,13,-1
 121 527 l 1,14,-1
 119 583 l 1,15,-1
 30 617 l 1,16,-1
 31 720 l 1,17,-1
 131 718 l 1,18,-1
 158 634 l 1,19,-1
 222 627 l 1,20,-1
 222 537 l 1,21,-1
 313 537 l 1,22,-1
 313 446 l 1,23,-1
 403 446 l 1,24,-1
 422 377 l 1,25,-1
 495 355 l 1,26,-1
 512 242 l 1,27,-1
 403 256 l 1,28,-1
 403 165 l 1,29,-1
 313 165 l 1,30,-1
 313 75 l 1,31,-1
 222 75 l 1,32,-1
 246 -15 l 1,33,-1
 131 -16 l 1,34,-1
 158 -101 l 1,35,-1
 30 -107 l 1,0,-1
EndSplineSet
EndChar

StartChar: quotedbl
Encoding: 34 34 498
Width: 465
GlyphClass: 1
Flags: W
LayerCount: 2
Fore
SplineSet
298 416 m 1,0,-1
 298 462 l 1,1,-1
 298 480 l 1,2,-1
 350 530 l 1,3,-1
 253 501 l 1,4,-1
 258 631 l 1,5,-1
 382 638 l 1,6,-1
 360 540 l 1,7,-1
 424 552 l 1,8,-1
 404 486 l 1,9,-1
 382 459 l 1,10,-1
 360 440 l 1,11,-1
 298 416 l 1,0,-1
105 416 m 1,12,-1
 105 459 l 1,13,-1
 105 480 l 1,14,-1
 151 530 l 1,15,-1
 61 501 l 1,16,-1
 60 631 l 1,17,-1
 188 638 l 1,18,-1
 161 540 l 1,19,-1
 232 552 l 1,20,-1
 206 486 l 1,21,-1
 188 459 l 1,22,-1
 161 440 l 1,23,-1
 105 416 l 1,12,-1
EndSplineSet
EndChar

StartChar: quotesingle
Encoding: 39 39 499
Width: 267
GlyphClass: 1
Flags: W
LayerCount: 2
Fore
SplineSet
105 416 m 1,0,-1
 105 442 l 1,1,-1
 105 480 l 1,2,-1
 151 530 l 1,3,-1
 61 501 l 1,4,-1
 60 631 l 1,5,-1
 188 638 l 1,6,-1
 161 540 l 1,7,-1
 232 552 l 1,8,-1
 206 486 l 1,9,-1
 188 459 l 1,10,-1
 161 440 l 1,11,-1
 105 416 l 1,0,-1
EndSplineSet
EndChar

StartChar: florin
Encoding: 402 402 500
Width: 586
GlyphClass: 1
Flags: W
LayerCount: 2
Fore
SplineSet
-32 -103 m 1,0,-1
 -32 40 l 1,1,-1
 60 -2 l 1,2,-1
 58 552 l 1,3,-1
 151 540 l 1,4,-1
 146 638 l 1,5,-1
 433 631 l 1,6,-1
 450 552 l 1,7,-1
 525 540 l 1,8,-1
 539 416 l 1,9,-1
 423 440 l 1,10,-1
 411 501 l 1,11,-1
 161 530 l 1,12,-1
 185 381 l 1,13,-1
 343 359 l 1,14,-1
 362 246 l 1,15,-1
 161 260 l 1,16,-1
 185 -97 l 1,17,-1
 -32 -103 l 1,0,-1
EndSplineSet
EndChar

StartChar: at
Encoding: 64 64 501
Width: 586
GlyphClass: 1
Flags: W
LayerCount: 2
Fore
SplineSet
150 79 m 1,0,-1
 151 108 l 1,1,-1
 105 124 l 1,2,-1
 105 153 l 1,3,-1
 80 148 l 1,4,-1
 60 389 l 1,5,-1
 105 400 l 1,6,-1
 105 433 l 1,7,-1
 150 443 l 1,8,-1
 151 479 l 1,9,-1
 413 468 l 1,10,-1
 388 433 l 1,11,-1
 438 443 l 1,12,-1
 433 389 l 1,13,-1
 479 389 l 1,14,-1
 483 356 l 1,15,-1
 525 344 l 1,16,-1
 538 235 l 1,17,-1
 479 243 l 1,18,-1
 493 191 l 1,19,-1
 433 198 l 1,20,-1
 467 167 l 1,21,-1
 381 153 l 1,22,-1
 377 185 l 1,23,-1
 350 191 l 1,24,-1
 356 167 l 1,25,-1
 212 153 l 1,26,-1
 210 185 l 1,27,-1
 170 191 l 1,28,-1
 188 326 l 1,29,-1
 212 313 l 1,30,-1
 210 345 l 1,31,-1
 350 352 l 1,32,-1
 376 326 l 1,33,-1
 391 313 l 1,34,-1
 396 217 l 1,35,-1
 423 200 l 1,36,-1
 423 253 l 1,37,-1
 473 268 l 1,38,-1
 469 334 l 1,39,-1
 438 323 l 1,40,-1
 423 379 l 1,41,-1
 378 379 l 1,42,-1
 393 411 l 1,43,-1
 161 424 l 1,44,-1
 160 367 l 1,45,-1
 115 379 l 1,46,-1
 144 161 l 1,47,-1
 161 163 l 1,48,-1
 161 118 l 1,49,-1
 369 118 l 1,50,-1
 343 62 l 1,51,-1
 150 79 l 1,0,-1
222 200 m 1,52,-1
 336 217 l 1,53,-1
 340 303 l 1,54,-1
 249 293 l 1,55,-1
 222 200 l 1,52,-1
EndSplineSet
EndChar

StartChar: ampersand
Encoding: 38 38 502
Width: 677
GlyphClass: 1
Flags: W
LayerCount: 2
Fore
SplineSet
149 -11 m 1,0,-1
 151 78 l 1,1,-1
 61 74 l 1,2,-1
 60 179 l 1,3,-1
 149 211 l 1,4,-1
 151 270 l 1,5,-1
 237 297 l 1,6,-1
 241 350 l 1,7,-1
 149 331 l 1,8,-1
 151 440 l 1,9,-1
 61 416 l 1,10,-1
 60 540 l 1,11,-1
 149 552 l 1,12,-1
 151 631 l 1,13,-1
 453 638 l 1,14,-1
 433 540 l 1,15,-1
 542 552 l 1,16,-1
 525 440 l 1,17,-1
 453 416 l 1,18,-1
 433 350 l 1,19,-1
 365 331 l 1,20,-1
 343 270 l 1,21,-1
 453 297 l 1,22,-1
 433 179 l 1,23,-1
 525 179 l 1,24,-1
 525 88 l 1,25,-1
 631 125 l 1,26,-1
 616 -12 l 1,27,-1
 503 -11 l 1,28,-1
 515 78 l 1,29,-1
 453 74 l 1,30,-1
 433 -12 l 1,31,-1
 149 -11 l 1,0,-1
161 88 m 1,32,-1
 414 125 l 1,33,-1
 423 169 l 1,34,-1
 326 160 l 1,35,-1
 333 260 l 1,36,-1
 276 246 l 1,37,-1
 251 169 l 1,38,-1
 188 160 l 1,39,-1
 161 88 l 1,32,-1
251 359 m 1,40,-1
 326 381 l 1,41,-1
 333 450 l 1,42,-1
 414 467 l 1,43,-1
 423 530 l 1,44,-1
 188 501 l 1,45,-1
 161 450 l 1,46,-1
 276 467 l 1,47,-1
 251 359 l 1,40,-1
EndSplineSet
EndChar

StartChar: paragraph
Encoding: 182 182 503
Width: 766
GlyphClass: 1
Flags: W
LayerCount: 2
Fore
SplineSet
414 -182 m 1,0,-1
 423 171 l 1,1,-1
 151 171 l 1,2,-1
 151 261 l 1,3,-1
 61 247 l 1,4,-1
 60 540 l 1,5,-1
 149 552 l 1,6,-1
 151 631 l 1,7,-1
 717 638 l 1,8,-1
 705 530 l 1,9,-1
 668 501 l 1,10,-1
 655 -193 l 1,11,-1
 589 -182 l 1,12,-1
 603 530 l 1,13,-1
 493 501 l 1,14,-1
 475 -193 l 1,15,-1
 414 -182 l 1,0,-1
EndSplineSet
EndChar

StartChar: section
Encoding: 167 167 504
Width: 586
GlyphClass: 1
Flags: W
LayerCount: 2
Fore
SplineSet
149 -11 m 1,0,-1
 151 78 l 1,1,-1
 61 74 l 1,2,-1
 60 270 l 1,3,-1
 149 297 l 1,4,-1
 151 350 l 1,5,-1
 61 331 l 1,6,-1
 60 540 l 1,7,-1
 149 552 l 1,8,-1
 151 631 l 1,9,-1
 453 638 l 1,10,-1
 433 540 l 1,11,-1
 542 552 l 1,12,-1
 525 440 l 1,13,-1
 414 416 l 1,14,-1
 423 530 l 1,15,-1
 188 501 l 1,16,-1
 161 359 l 1,17,-1
 453 381 l 1,18,-1
 433 270 l 1,19,-1
 542 297 l 1,20,-1
 525 169 l 1,21,-1
 188 160 l 1,22,-1
 161 88 l 1,23,-1
 542 125 l 1,24,-1
 525 -12 l 1,25,-1
 149 -11 l 1,0,-1
EndSplineSet
EndChar

StartChar: copyright
Encoding: 169 169 505
Width: 409
GlyphClass: 1
Flags: W
LayerCount: 2
Fore
SplineSet
115 372 m 1,0,-1
 115 400 l 1,1,-1
 70 387 l 1,2,-1
 70 576 l 1,3,-1
 115 581 l 1,4,-1
 115 621 l 1,5,-1
 318 596 l 1,6,-1
 292 576 l 1,7,-1
 364 581 l 1,8,-1
 338 400 l 1,9,-1
 318 387 l 1,10,-1
 292 354 l 1,11,-1
 115 372 l 1,0,-1
125 410 m 1,12,-1
 309 420 l 1,13,-1
 282 566 l 1,14,-1
 124 548 l 1,15,-1
 125 410 l 1,12,-1
175 438 m 1,16,-1
 174 441 l 1,17,-1
 157 455 l 1,18,-1
 166 524 l 1,19,-1
 175 517 l 1,20,-1
 174 533 l 1,21,-1
 237 536 l 1,22,-1
 264 524 l 1,23,-1
 254 517 l 1,24,-1
 271 485 l 1,25,-1
 227 491 l 1,26,-1
 235 491 l 1,27,-1
 185 507 l 1,28,-1
 203 474 l 1,29,-1
 227 465 l 1,30,-1
 235 482 l 1,31,-1
 254 484 l 1,32,-1
 271 441 l 1,33,-1
 237 455 l 1,34,-1
 264 434 l 1,35,-1
 175 438 l 1,16,-1
EndSplineSet
EndChar

StartChar: registered
Encoding: 174 174 506
Width: 409
GlyphClass: 1
Flags: W
LayerCount: 2
Fore
SplineSet
115 360 m 1,0,-1
 115 400 l 1,1,-1
 70 375 l 1,2,-1
 70 576 l 1,3,-1
 115 586 l 1,4,-1
 115 621 l 1,5,-1
 344 601 l 1,6,-1
 292 576 l 1,7,-1
 389 586 l 1,8,-1
 338 400 l 1,9,-1
 344 375 l 1,10,-1
 292 354 l 1,11,-1
 115 360 l 1,0,-1
125 410 m 1,12,-1
 306 430 l 1,13,-1
 282 566 l 1,14,-1
 153 531 l 1,15,-1
 125 410 l 1,12,-1
171 451 m 1,16,-1
 171 500 l 1,17,-1
 201 488 l 1,18,-1
 183 512 l 1,19,-1
 288 519 l 1,20,-1
 221 500 l 1,21,-1
 300 498 l 1,22,-1
 233 487 l 1,23,-1
 220 487 l 1,24,-1
 257 474 l 1,25,-1
 185 499 l 1,26,-1
 243 437 l 1,27,-1
 171 451 l 1,16,-1
EndSplineSet
EndChar

StartChar: trademark
Encoding: 8482 8482 507
Width: 789
GlyphClass: 1
Flags: W
LayerCount: 2
Fore
SplineSet
393 297 m 1,0,-1
 385 593 l 1,1,-1
 440 584 l 1,2,-1
 430 638 l 1,3,-1
 496 631 l 1,4,-1
 514 593 l 1,5,-1
 542 584 l 1,6,-1
 559 508 l 1,7,-1
 579 493 l 1,8,-1
 565 593 l 1,9,-1
 625 584 l 1,10,-1
 610 638 l 1,11,-1
 683 631 l 1,12,-1
 696 593 l 1,13,-1
 728 584 l 1,14,-1
 739 281 l 1,15,-1
 673 297 l 1,16,-1
 657 543 l 1,17,-1
 635 575 l 1,18,-1
 649 457 l 1,19,-1
 589 483 l 1,20,-1
 604 325 l 1,21,-1
 532 344 l 1,22,-1
 520 457 l 1,23,-1
 486 483 l 1,24,-1
 475 543 l 1,25,-1
 450 575 l 1,26,-1
 469 281 l 1,27,-1
 393 297 l 1,0,-1
153 297 m 1,28,-1
 151 543 l 1,29,-1
 116 575 l 1,30,-1
 144 499 l 1,31,-1
 60 528 l 1,32,-1
 61 593 l 1,33,-1
 106 584 l 1,34,-1
 105 638 l 1,35,-1
 256 631 l 1,36,-1
 281 593 l 1,37,-1
 302 584 l 1,38,-1
 325 499 l 1,39,-1
 246 528 l 1,40,-1
 242 543 l 1,41,-1
 209 575 l 1,42,-1
 235 281 l 1,43,-1
 153 297 l 1,28,-1
EndSplineSet
EndChar

StartChar: degree
Encoding: 176 176 508
Width: 313
GlyphClass: 1
Flags: W
LayerCount: 2
Fore
SplineSet
96 392 m 1,0,-1
 96 405 l 1,1,-1
 60 429 l 1,2,-1
 61 559 l 1,3,-1
 96 547 l 1,4,-1
 96 593 l 1,5,-1
 216 584 l 1,6,-1
 242 559 l 1,7,-1
 252 547 l 1,8,-1
 277 405 l 1,9,-1
 216 429 l 1,10,-1
 242 371 l 1,11,-1
 96 392 l 1,0,-1
106 438 m 1,12,-1
 203 456 l 1,13,-1
 206 537 l 1,14,-1
 135 508 l 1,15,-1
 106 438 l 1,12,-1
EndSplineSet
EndChar

StartChar: bar
Encoding: 124 124 509
Width: 222
GlyphClass: 1
Flags: W
LayerCount: 2
Fore
SplineSet
60 -12 m 1,0,-1
 61 638 l 1,1,-1
 161 631 l 1,2,-1
 188 -11 l 1,3,-1
 60 -12 l 1,0,-1
EndSplineSet
EndChar

StartChar: dagger
Encoding: 8224 8224 510
Width: 403
GlyphClass: 1
Flags: W
LayerCount: 2
Fore
SplineSet
150 -12 m 1,0,-1
 148 381 l 1,1,-1
 60 403 l 1,2,-1
 61 518 l 1,3,-1
 150 504 l 1,4,-1
 148 638 l 1,5,-1
 251 631 l 1,6,-1
 276 518 l 1,7,-1
 342 504 l 1,8,-1
 364 381 l 1,9,-1
 251 403 l 1,10,-1
 276 -11 l 1,11,-1
 150 -12 l 1,0,-1
EndSplineSet
EndChar

StartChar: uni2116
Encoding: 8470 8470 511
Width: 1160
GlyphClass: 1
Flags: W
LayerCount: 2
Fore
SplineSet
60 -12 m 1,0,-1
 61 638 l 1,1,-1
 161 631 l 1,2,-1
 188 552 l 1,3,-1
 251 540 l 1,4,-1
 251 450 l 1,5,-1
 343 450 l 1,6,-1
 365 211 l 1,7,-1
 423 179 l 1,8,-1
 414 638 l 1,9,-1
 525 631 l 1,10,-1
 542 -11 l 1,11,-1
 423 -12 l 1,12,-1
 414 74 l 1,13,-1
 333 78 l 1,14,-1
 333 169 l 1,15,-1
 241 169 l 1,16,-1
 237 416 l 1,17,-1
 161 440 l 1,18,-1
 188 -11 l 1,19,-1
 60 -12 l 1,0,-1
705 -13 m 1,20,-1
 688 125 l 1,21,-1
 1027 88 l 1,22,-1
 1030 -12 l 1,23,-1
 705 -13 l 1,20,-1
725 167 m 1,24,-1
 707 243 l 1,25,-1
 634 257 l 1,26,-1
 619 550 l 1,27,-1
 725 538 l 1,28,-1
 707 636 l 1,29,-1
 1008 629 l 1,30,-1
 1012 550 l 1,31,-1
 1099 538 l 1,32,-1
 1100 243 l 1,33,-1
 1008 257 l 1,34,-1
 1012 158 l 1,35,-1
 725 167 l 1,24,-1
735 267 m 1,36,-1
 973 294 l 1,37,-1
 998 528 l 1,38,-1
 746 499 l 1,39,-1
 735 267 l 1,36,-1
EndSplineSet
EndChar

StartChar: cent
Encoding: 162 162 512
Width: 586
GlyphClass: 1
Flags: W
LayerCount: 2
Fore
SplineSet
238 0 m 1,0,-1
 234 93 l 1,1,-1
 151 98 l 1,2,-1
 151 188 l 1,3,-1
 61 178 l 1,4,-1
 60 469 l 1,5,-1
 149 485 l 1,6,-1
 151 560 l 1,7,-1
 238 560 l 1,8,-1
 234 664 l 1,9,-1
 347 659 l 1,10,-1
 369 571 l 1,11,-1
 433 560 l 1,12,-1
 433 469 l 1,13,-1
 542 485 l 1,14,-1
 525 369 l 1,15,-1
 414 349 l 1,16,-1
 423 459 l 1,17,-1
 188 434 l 1,18,-1
 161 198 l 1,19,-1
 414 229 l 1,20,-1
 423 288 l 1,21,-1
 542 314 l 1,22,-1
 525 188 l 1,23,-1
 453 178 l 1,24,-1
 433 98 l 1,25,-1
 347 98 l 1,26,-1
 369 0 l 1,27,-1
 238 0 l 1,0,-1
EndSplineSet
EndChar

StartChar: colonmonetary
Encoding: 8353 8353 513
Width: 603
GlyphClass: 1
Flags: W
LayerCount: 2
Fore
SplineSet
156 -67 m 1,0,-1
 166.5 -41.5 166.5 -41.5 165 -11 c 1,1,-1
 161 -12 161 -12 149 -11 c 1,2,-1
 151 33 151 33 149 74 c 1,3,-1
 105.5 78 105.5 78 61 74 c 1,4,-1
 60 309 60 309 61 552 c 1,5,-1
 105.5 540 105.5 540 149 552 c 1,6,-1
 151 585.5 151 585.5 149 638 c 1,7,-1
 208.5 631 208.5 631 264 638 c 1,8,-1
 270.5 660.5 270.5 660.5 273 694 c 1,9,-1
 301 690 301 690 353 694 c 1,10,-1
 322.5 660.5 322.5 660.5 345 638 c 1,11,-1
 337 631 337 631 351 638 c 1,12,-1
 360.5 660.5 360.5 660.5 360 694 c 1,13,-1
 390.5 690 390.5 690 440 694 c 1,14,-1
 411.5 660.5 411.5 660.5 431 638 c 1,15,-1
 420 631 420 631 453 638 c 1,16,-1
 433 585.5 433 585.5 453 552 c 1,17,-1
 479 540 479 540 542 552 c 1,18,-1
 525 445 525 445 542 331 c 1,19,-1
 474 350 474 350 414 331 c 1,20,-1
 423 440 423 440 414 501 c 1,21,-1
 407.5 530 407.5 530 410 501 c 1,22,-1
 359.5 309 359.5 309 353 125 c 1,23,-1
 375 88 375 88 414 125 c 1,24,-1
 423 179 423 179 414 297 c 1,25,-1
 474 270 474 270 542 297 c 1,26,-1
 525 174 525 174 542 74 c 1,27,-1
 479 78 479 78 453 74 c 1,28,-1
 433 33 433 33 453 -11 c 1,29,-1
 372.5 -12 372.5 -12 332 -11 c 1,30,-1
 307.5 -41.5 307.5 -41.5 323 -67 c 1,31,-1
 277 -71 277 -71 243 -67 c 1,32,-1
 255.5 -41.5 255.5 -41.5 251 -11 c 1,33,-1
 241.5 -12 241.5 -12 246 -11 c 1,34,-1
 218.5 -41.5 218.5 -41.5 237 -67 c 1,35,-1
 188 -71 188 -71 156 -67 c 1,0,-1
188 139 m 1,36,-1
 173.5 88 173.5 88 189 139 c 1,37,-1
 218 309 218 309 242 501 c 1,38,-1
 205.5 530 205.5 530 188 501 c 1,39,-1
 161 309 161 309 188 139 c 1,36,-1
267 125 m 1,40,-1
 256.5 88 256.5 88 273 125 c 1,41,-1
 307.5 309 307.5 309 329 501 c 1,42,-1
 321 530 321 530 322 501 c 1,43,-1
 270 309 270 309 267 125 c 1,40,-1
EndSplineSet
EndChar

StartChar: currency
Encoding: 164 164 514
Width: 454
GlyphClass: 1
Flags: W
LayerCount: 2
Fore
SplineSet
152 186 m 1,0,-1
 200 224 l 1,1,-1
 106 232 l 1,2,-1
 155 391 l 1,3,-1
 152 380 l 1,4,-1
 200 436 l 1,5,-1
 301 426 l 1,6,-1
 377 391 l 1,7,-1
 347 380 l 1,8,-1
 422 224 l 1,9,-1
 301 232 l 1,10,-1
 377 180 l 1,11,-1
 152 186 l 1,0,-1
60 140 m 1,12,-1
 60 213 l 1,13,-1
 116 196 l 1,14,-1
 145 135 l 1,15,-1
 60 140 l 1,12,-1
60 416 m 1,16,-1
 60 481 l 1,17,-1
 116 472 l 1,18,-1
 145 403 l 1,19,-1
 60 416 l 1,16,-1
162 242 m 1,20,-1
 337 257 l 1,21,-1
 291 370 l 1,22,-1
 240 358 l 1,23,-1
 162 242 l 1,20,-1
337 140 m 1,24,-1
 432 213 l 1,25,-1
 394 196 l 1,26,-1
 517 135 l 1,27,-1
 337 140 l 1,24,-1
337 416 m 1,28,-1
 432 481 l 1,29,-1
 394 472 l 1,30,-1
 517 403 l 1,31,-1
 337 416 l 1,28,-1
EndSplineSet
EndChar

StartChar: dollar
Encoding: 36 36 515
Width: 586
GlyphClass: 1
Flags: W
LayerCount: 2
Fore
SplineSet
250 -103 m 1,0,-1
 246 -11 l 1,1,-1
 151 -12 l 1,2,-1
 149 74 l 1,3,-1
 60 78 l 1,4,-1
 61 211 l 1,5,-1
 161 179 l 1,6,-1
 188 125 l 1,7,-1
 423 88 l 1,8,-1
 414 246 l 1,9,-1
 151 260 l 1,10,-1
 151 350 l 1,11,-1
 61 331 l 1,12,-1
 60 540 l 1,13,-1
 149 552 l 1,14,-1
 151 631 l 1,15,-1
 250 631 l 1,16,-1
 246 724 l 1,17,-1
 352 722 l 1,18,-1
 374 638 l 1,19,-1
 433 631 l 1,20,-1
 433 540 l 1,21,-1
 542 552 l 1,22,-1
 525 440 l 1,23,-1
 414 416 l 1,24,-1
 423 530 l 1,25,-1
 188 501 l 1,26,-1
 161 359 l 1,27,-1
 453 381 l 1,28,-1
 433 270 l 1,29,-1
 542 297 l 1,30,-1
 525 78 l 1,31,-1
 453 74 l 1,32,-1
 433 -12 l 1,33,-1
 352 -12 l 1,34,-1
 374 -97 l 1,35,-1
 250 -103 l 1,0,-1
EndSplineSet
EndChar

StartChar: Euro
Encoding: 8364 8364 516
Width: 586
GlyphClass: 1
Flags: W
LayerCount: 2
Fore
SplineSet
151 -12 m 1,0,-1
 149 74 l 1,1,-1
 60 78 l 1,2,-1
 61 552 l 1,3,-1
 151 540 l 1,4,-1
 149 638 l 1,5,-1
 433 631 l 1,6,-1
 453 552 l 1,7,-1
 525 540 l 1,8,-1
 542 331 l 1,9,-1
 423 350 l 1,10,-1
 414 501 l 1,11,-1
 161 530 l 1,12,-1
 188 446 l 1,13,-1
 344 428 l 1,14,-1
 366 309 l 1,15,-1
 161 327 l 1,16,-1
 188 304 l 1,17,-1
 344 278 l 1,18,-1
 366 168 l 1,19,-1
 161 178 l 1,20,-1
 188 125 l 1,21,-1
 423 88 l 1,22,-1
 414 297 l 1,23,-1
 525 270 l 1,24,-1
 542 74 l 1,25,-1
 433 78 l 1,26,-1
 453 -11 l 1,27,-1
 151 -12 l 1,0,-1
EndSplineSet
EndChar

StartChar: franc
Encoding: 8355 8355 517
Width: 585
GlyphClass: 1
Flags: W
LayerCount: 2
Fore
SplineSet
22 -12 m 1,0,-1
 23 126 l 1,1,-1
 60 89 l 1,2,-1
 60 638 l 1,3,-1
 433 631 l 1,4,-1
 452 552 l 1,5,-1
 525 540 l 1,6,-1
 541 416 l 1,7,-1
 423 440 l 1,8,-1
 413 501 l 1,9,-1
 161 530 l 1,10,-1
 187 381 l 1,11,-1
 343 359 l 1,12,-1
 364 246 l 1,13,-1
 161 260 l 1,14,-1
 187 126 l 1,15,-1
 205 89 l 1,16,-1
 230 -11 l 1,17,-1
 22 -12 l 1,0,-1
EndSplineSet
EndChar

StartChar: lira
Encoding: 8356 8356 518
Width: 676
GlyphClass: 1
Flags: W
LayerCount: 2
Fore
SplineSet
60 -12 m 1,0,-1
 61 125 l 1,1,-1
 151 88 l 1,2,-1
 151 540 l 1,3,-1
 241 540 l 1,4,-1
 237 638 l 1,5,-1
 525 631 l 1,6,-1
 542 552 l 1,7,-1
 615 540 l 1,8,-1
 630 416 l 1,9,-1
 515 440 l 1,10,-1
 503 501 l 1,11,-1
 251 530 l 1,12,-1
 276 428 l 1,13,-1
 433 409 l 1,14,-1
 453 292 l 1,15,-1
 251 309 l 1,16,-1
 276 279 l 1,17,-1
 433 251 l 1,18,-1
 453 143 l 1,19,-1
 251 151 l 1,20,-1
 276 125 l 1,21,-1
 515 88 l 1,22,-1
 503 211 l 1,23,-1
 615 179 l 1,24,-1
 630 74 l 1,25,-1
 525 78 l 1,26,-1
 542 -11 l 1,27,-1
 60 -12 l 1,0,-1
EndSplineSet
EndChar

StartChar: peseta
Encoding: 8359 8359 519
Width: 1195
GlyphClass: 1
Flags: W
LayerCount: 2
Fore
SplineSet
60 -12 m 1,0,-1
 61 552 l 1,1,-1
 151 540 l 1,2,-1
 149 638 l 1,3,-1
 433 631 l 1,4,-1
 453 552 l 1,5,-1
 525 540 l 1,6,-1
 542 246 l 1,7,-1
 433 260 l 1,8,-1
 433 169 l 1,9,-1
 161 169 l 1,10,-1
 188 -11 l 1,11,-1
 60 -12 l 1,0,-1
161 270 m 1,12,-1
 414 297 l 1,13,-1
 423 530 l 1,14,-1
 188 501 l 1,15,-1
 161 270 l 1,12,-1
648 -11 m 1,16,-1
 664 33 l 1,17,-1
 619 33 l 1,18,-1
 604 156 l 1,19,-1
 574 165 l 1,20,-1
 561 250 l 1,21,-1
 619 220 l 1,22,-1
 604 333 l 1,23,-1
 674 308 l 1,24,-1
 687 250 l 1,25,-1
 808 220 l 1,26,-1
 817 156 l 1,27,-1
 674 165 l 1,28,-1
 687 82 l 1,29,-1
 798 43 l 1,30,-1
 778 124 l 1,31,-1
 853 87 l 1,32,-1
 861 31 l 1,33,-1
 817 31 l 1,34,-1
 808 -12 l 1,35,-1
 648 -11 l 1,16,-1
878 -11 m 1,36,-1
 900 43 l 1,37,-1
 922 82 l 1,38,-1
 1079 77 l 1,39,-1
 878 115 l 1,40,-1
 878 128 l 1,41,-1
 878 138 l 1,42,-1
 900 175 l 1,43,-1
 922 207 l 1,44,-1
 946 220 l 1,45,-1
 1134 250 l 1,46,-1
 1134 165 l 1,47,-1
 1090 156 l 1,48,-1
 956 131 l 1,49,-1
 1134 124 l 1,50,-1
 1134 115 l 1,51,-1
 1134 101 l 1,52,-1
 1134 33 l 1,53,-1
 1090 31 l 1,54,-1
 1089 -12 l 1,55,-1
 878 -11 l 1,36,-1
EndSplineSet
EndChar

StartChar: sterling
Encoding: 163 163 520
Width: 676
GlyphClass: 1
Flags: W
LayerCount: 2
Fore
SplineSet
60 -12 m 1,0,-1
 61 125 l 1,1,-1
 151 88 l 1,2,-1
 151 540 l 1,3,-1
 241 540 l 1,4,-1
 237 638 l 1,5,-1
 525 631 l 1,6,-1
 542 552 l 1,7,-1
 615 540 l 1,8,-1
 630 416 l 1,9,-1
 515 440 l 1,10,-1
 503 501 l 1,11,-1
 251 530 l 1,12,-1
 276 381 l 1,13,-1
 433 359 l 1,14,-1
 453 246 l 1,15,-1
 251 260 l 1,16,-1
 276 125 l 1,17,-1
 515 88 l 1,18,-1
 503 211 l 1,19,-1
 615 179 l 1,20,-1
 630 74 l 1,21,-1
 525 78 l 1,22,-1
 542 -11 l 1,23,-1
 60 -12 l 1,0,-1
EndSplineSet
EndChar

StartChar: yen
Encoding: 165 165 521
Width: 586
GlyphClass: 1
Flags: W
LayerCount: 2
Fore
SplineSet
241 -12 m 1,0,-1
 239 58 l 1,1,-1
 151 70 l 1,2,-1
 150 139 l 1,3,-1
 241 170 l 1,4,-1
 239 189 l 1,5,-1
 151 205 l 1,6,-1
 150 271 l 1,7,-1
 241 306 l 1,8,-1
 239 339 l 1,9,-1
 151 350 l 1,10,-1
 151 440 l 1,11,-1
 60 426 l 1,12,-1
 60 631 l 1,13,-1
 189 635 l 1,14,-1
 161 450 l 1,15,-1
 251 450 l 1,16,-1
 278 371 l 1,17,-1
 333 359 l 1,18,-1
 329 459 l 1,19,-1
 423 450 l 1,20,-1
 418 635 l 1,21,-1
 525 631 l 1,22,-1
 548 426 l 1,23,-1
 433 440 l 1,24,-1
 457 339 l 1,25,-1
 343 350 l 1,26,-1
 369 271 l 1,27,-1
 433 306 l 1,28,-1
 457 189 l 1,29,-1
 343 205 l 1,30,-1
 369 139 l 1,31,-1
 433 170 l 1,32,-1
 457 58 l 1,33,-1
 343 70 l 1,34,-1
 369 -12 l 1,35,-1
 241 -12 l 1,0,-1
EndSplineSet
EndChar

StartChar: uni2215
Encoding: 8725 8725 522
Width: 529
GlyphClass: 1
Flags: W
LayerCount: 2
Fore
SplineSet
61 -11 m 1,0,-1
 61 189 l 1,1,-1
 139 156 l 1,2,-1
 139 314 l 1,3,-1
 219 314 l 1,4,-1
 219 393 l 1,5,-1
 298 393 l 1,6,-1
 292 563 l 1,7,-1
 379 552 l 1,8,-1
 371 638 l 1,9,-1
 468 631 l 1,10,-1
 487 438 l 1,11,-1
 389 463 l 1,12,-1
 389 383 l 1,13,-1
 308 383 l 1,14,-1
 308 225 l 1,15,-1
 229 225 l 1,16,-1
 229 146 l 1,17,-1
 176 138 l 1,18,-1
 149 -12 l 1,19,-1
 61 -11 l 1,0,-1
EndSplineSet
EndChar

StartChar: plus
Encoding: 43 43 523
Width: 600
GlyphClass: 1
Flags: W
LayerCount: 2
Fore
SplineSet
248 87 m 1,0,-1
 236 243 l 1,1,-1
 67 257 l 1,2,-1
 60 379 l 1,3,-1
 248 357 l 1,4,-1
 236 560 l 1,5,-1
 350 549 l 1,6,-1
 364 379 l 1,7,-1
 532 357 l 1,8,-1
 541 243 l 1,9,-1
 350 257 l 1,10,-1
 364 82 l 1,11,-1
 248 87 l 1,0,-1
EndSplineSet
EndChar

StartChar: minus
Encoding: 8722 8722 524
Width: 600
GlyphClass: 1
Flags: W
LayerCount: 2
Fore
SplineSet
109 241 m 1,0,-1
 101 379 l 1,1,-1
 490 342 l 1,2,-1
 500 242 l 1,3,-1
 109 241 l 1,0,-1
EndSplineSet
EndChar

StartChar: multiply
Encoding: 215 215 525
Width: 600
GlyphClass: 1
Flags: W
LayerCount: 2
Fore
SplineSet
178 101 m 1,0,-1
 138.5 147.5 138.5 147.5 83 194 c 1,1,-1
 167.5 246.5 167.5 246.5 208 314 c 1,2,-1
 164 377.5 164 377.5 76 441 c 1,3,-1
 131.5 480.5 131.5 480.5 171 534 c 1,4,-1
 235 448.5 235 448.5 304 406 c 1,5,-1
 367.5 445 367.5 445 429 527 c 1,6,-1
 467.5 473.5 467.5 473.5 524 435 c 1,7,-1
 439 374 439 374 400 314 c 1,8,-1
 435 250.5 435 250.5 517 201 c 1,9,-1
 459.5 155.5 459.5 155.5 421 109 c 1,10,-1
 363.5 179.5 363.5 179.5 304 222 c 1,11,-1
 238.5 175.5 238.5 175.5 178 101 c 1,0,-1
EndSplineSet
EndChar

StartChar: divide
Encoding: 247 247 526
Width: 600
GlyphClass: 1
Flags: W
LayerCount: 2
Fore
SplineSet
109 241 m 1,0,-1
 101 379 l 1,1,-1
 490 342 l 1,2,-1
 500 242 l 1,3,-1
 109 241 l 1,0,-1
249 81 m 1,4,-1
 236 206 l 1,5,-1
 350 182 l 1,6,-1
 364 69 l 1,7,-1
 249 81 l 1,4,-1
249 407 m 1,8,-1
 236 551 l 1,9,-1
 350 507 l 1,10,-1
 364 415 l 1,11,-1
 249 407 l 1,8,-1
EndSplineSet
EndChar

StartChar: equal
Encoding: 61 61 527
Width: 600
GlyphClass: 1
Flags: W
LayerCount: 2
Fore
SplineSet
109 290 m 1,0,-1
 101 432 l 1,1,-1
 491 391 l 1,2,-1
 500 295 l 1,3,-1
 109 290 l 1,0,-1
109 135 m 1,4,-1
 101 230 l 1,5,-1
 491 235 l 1,6,-1
 500 93 l 1,7,-1
 109 135 l 1,4,-1
EndSplineSet
EndChar

StartChar: notequal
Encoding: 8800 8800 528
Width: 600
GlyphClass: 1
Flags: W
LayerCount: 2
Fore
SplineSet
150 11 m 1,0,-1
 298 536 l 1,1,-1
 427 536 l 1,2,-1
 279 11 l 1,3,-1
 150 11 l 1,0,-1
109 135 m 1,4,-1
 101 230 l 1,5,-1
 491 235 l 1,6,-1
 500 93 l 1,7,-1
 109 135 l 1,4,-1
109 290 m 1,8,-1
 101 432 l 1,9,-1
 491 391 l 1,10,-1
 500 295 l 1,11,-1
 109 290 l 1,8,-1
EndSplineSet
EndChar

StartChar: greater
Encoding: 62 62 529
Width: 600
GlyphClass: 1
Flags: W
LayerCount: 2
Fore
SplineSet
67 -107 m 1,0,-1
 60 36 l 1,1,-1
 158 -6 l 1,2,-1
 158 85 l 1,3,-1
 249 85 l 1,4,-1
 249 175 l 1,5,-1
 340 175 l 1,6,-1
 325 293 l 1,7,-1
 431 266 l 1,8,-1
 414 327 l 1,9,-1
 340 346 l 1,10,-1
 340 436 l 1,11,-1
 249 436 l 1,12,-1
 249 527 l 1,13,-1
 158 527 l 1,14,-1
 148 583 l 1,15,-1
 67 617 l 1,16,-1
 60 720 l 1,17,-1
 168 718 l 1,18,-1
 187 634 l 1,19,-1
 259 627 l 1,20,-1
 259 537 l 1,21,-1
 350 537 l 1,22,-1
 350 446 l 1,23,-1
 440 446 l 1,24,-1
 451 377 l 1,25,-1
 532 355 l 1,26,-1
 541 242 l 1,27,-1
 440 256 l 1,28,-1
 440 165 l 1,29,-1
 350 165 l 1,30,-1
 350 75 l 1,31,-1
 259 75 l 1,32,-1
 275 -15 l 1,33,-1
 168 -16 l 1,34,-1
 187 -101 l 1,35,-1
 67 -107 l 1,0,-1
EndSplineSet
EndChar

StartChar: less
Encoding: 60 60 530
Width: 600
GlyphClass: 1
Flags: W
LayerCount: 2
Fore
SplineSet
413 -101 m 1,0,-1
 430 -16 l 1,1,-1
 340 -16 l 1,2,-1
 340 75 l 1,3,-1
 248 75 l 1,4,-1
 248 165 l 1,5,-1
 158 165 l 1,6,-1
 148 242 l 1,7,-1
 67 256 l 1,8,-1
 60 377 l 1,9,-1
 158 355 l 1,10,-1
 158 446 l 1,11,-1
 248 446 l 1,12,-1
 248 537 l 1,13,-1
 340 537 l 1,14,-1
 340 627 l 1,15,-1
 413 634 l 1,16,-1
 430 718 l 1,17,-1
 541 720 l 1,18,-1
 532 617 l 1,19,-1
 452 583 l 1,20,-1
 440 527 l 1,21,-1
 350 527 l 1,22,-1
 350 436 l 1,23,-1
 258 436 l 1,24,-1
 258 346 l 1,25,-1
 187 327 l 1,26,-1
 168 266 l 1,27,-1
 275 293 l 1,28,-1
 258 175 l 1,29,-1
 350 175 l 1,30,-1
 350 85 l 1,31,-1
 440 85 l 1,32,-1
 440 -6 l 1,33,-1
 541 36 l 1,34,-1
 532 -107 l 1,35,-1
 413 -101 l 1,0,-1
EndSplineSet
EndChar

